STARTFONT 2.1
COMMENT
COMMENT Converted from OpenType font "ipag.ttf" by "otf2bdf 3.0".
COMMENT
FONT -FreeType-IPAGothic-Medium-R-Normal--28-280-72-72-P-244-ISO10646-1
SIZE 28 72 72
FONTBOUNDINGBOX 28 28 0 -3
STARTPROPERTIES 19
FOUNDRY "FreeType"
FAMILY_NAME "IPAGothic"
WEIGHT_NAME "Medium"
SLANT "R"
SETWIDTH_NAME "Normal"
ADD_STYLE_NAME ""
PIXEL_SIZE 28
POINT_SIZE 280
RESOLUTION_X 72
RESOLUTION_Y 72
SPACING "P"
AVERAGE_WIDTH 244
CHARSET_REGISTRY "ISO10646"
CHARSET_ENCODING "1"
FONT_ASCENT 24
FONT_DESCENT 3
COPYRIGHT "Copyright(c) Information-technology Promotion Agency, Japan (IPA), 2003-2011. You must accept "http://ipafont.ipa.go.jp/ipa_font_license_v1.html" to use this product."
_OTF_FONTFILE "ipag.ttf"
_OTF_PSNAME "IPAGothic"
ENDPROPERTIES
CHARS 11158
STARTCHAR 0020
ENCODING 32
SWIDTH 500 0
DWIDTH 14 0
BBX 0 0 0 0
BITMAP
ENDCHAR
STARTCHAR 0021
ENCODING 33
SWIDTH 500 0
DWIDTH 14 0
BBX 4 22 5 0
BITMAP
F0
F0
F0
F0
70
60
60
60
60
60
60
60
60
60
60
60
60
00
00
F0
F0
F0
ENDCHAR
STARTCHAR 0022
ENCODING 34
SWIDTH 500 0
DWIDTH 14 0
BBX 9 7 2 16
BITMAP
F380
F380
F380
2180
6180
6300
C200
ENDCHAR
STARTCHAR 0023
ENCODING 35
SWIDTH 500 0
DWIDTH 14 0
BBX 12 23 1 -1
BITMAP
0840
08C0
18C0
18C0
18C0
7FF0
7FF0
18C0
18C0
1880
1080
3180
3180
3180
3180
FFE0
FFE0
3180
3180
3100
2100
2300
6300
ENDCHAR
STARTCHAR 0024
ENCODING 36
SWIDTH 500 0
DWIDTH 14 0
BBX 12 24 1 -1
BITMAP
0600
0600
1F80
3FC0
66C0
6660
6660
6600
7600
3E00
1E00
0700
07C0
06E0
0660
C670
C630
6670
6660
3FE0
1FC0
0600
0600
0600
ENDCHAR
STARTCHAR 0025
ENCODING 37
SWIDTH 500 0
DWIDTH 14 0
BBX 12 25 1 -2
BITMAP
0030
7030
7820
CC60
CC40
CCC0
CCC0
CD80
CD80
CF00
7B00
7200
0600
04E0
0DE0
0F30
1B30
1B30
3330
3330
2330
6330
41E0
C0E0
C000
ENDCHAR
STARTCHAR 0026
ENCODING 38
SWIDTH 500 0
DWIDTH 14 0
BBX 12 20 1 1
BITMAP
0F00
3F80
31C0
30C0
20C0
30C0
3180
1F00
1E00
1C00
3630
6630
E330
C1E0
C1E0
E0E0
61E0
3FE0
1F30
0030
ENDCHAR
STARTCHAR 0027
ENCODING 39
SWIDTH 500 0
DWIDTH 14 0
BBX 4 7 2 16
BITMAP
F0
F0
F0
20
60
60
C0
ENDCHAR
STARTCHAR 0028
ENCODING 40
SWIDTH 500 0
DWIDTH 14 0
BBX 7 25 4 -2
BITMAP
06
0E
0C
18
30
30
70
60
60
60
E0
E0
C0
C0
E0
60
60
60
70
30
30
18
0C
0C
06
ENDCHAR
STARTCHAR 0029
ENCODING 41
SWIDTH 500 0
DWIDTH 14 0
BBX 7 25 3 -2
BITMAP
C0
E0
60
30
18
18
1C
0C
0C
0C
0E
0E
06
0E
0E
0C
0C
0C
1C
18
18
30
60
E0
C0
ENDCHAR
STARTCHAR 002A
ENCODING 42
SWIDTH 500 0
DWIDTH 14 0
BBX 12 14 1 4
BITMAP
0600
0600
0600
C630
E670
3FC0
0F00
0F00
1F80
76E0
E670
C630
0600
0600
ENDCHAR
STARTCHAR 002B
ENCODING 43
SWIDTH 500 0
DWIDTH 14 0
BBX 12 17 1 2
BITMAP
0600
0600
0600
0600
0600
0600
0600
FFF0
FFF0
0600
0600
0600
0600
0600
0600
0600
0600
ENDCHAR
STARTCHAR 002C
ENCODING 44
SWIDTH 500 0
DWIDTH 14 0
BBX 4 8 2 -3
BITMAP
70
70
70
60
E0
E0
C0
C0
ENDCHAR
STARTCHAR 002D
ENCODING 45
SWIDTH 500 0
DWIDTH 14 0
BBX 12 2 1 10
BITMAP
FFF0
FFF0
ENDCHAR
STARTCHAR 002E
ENCODING 46
SWIDTH 500 0
DWIDTH 14 0
BBX 3 4 3 0
BITMAP
E0
E0
E0
E0
ENDCHAR
STARTCHAR 002F
ENCODING 47
SWIDTH 500 0
DWIDTH 14 0
BBX 12 25 1 -2
BITMAP
0010
0030
0020
0060
0040
00C0
0080
0080
0100
0100
0300
0200
0600
0400
0C00
0800
1800
1000
3000
2000
2000
4000
4000
C000
8000
ENDCHAR
STARTCHAR 0030
ENCODING 48
SWIDTH 500 0
DWIDTH 14 0
BBX 10 19 2 2
BITMAP
1E00
3F00
7180
E1C0
C1C0
C2C0
C2C0
C6C0
C4C0
CCC0
C8C0
D8C0
D0C0
D0C0
E0C0
E1C0
6380
3F00
1E00
ENDCHAR
STARTCHAR 0031
ENCODING 49
SWIDTH 500 0
DWIDTH 14 0
BBX 6 20 3 1
BITMAP
1C
3C
FC
DC
1C
1C
1C
1C
1C
1C
1C
1C
1C
1C
1C
1C
1C
1C
1C
1C
ENDCHAR
STARTCHAR 0032
ENCODING 50
SWIDTH 500 0
DWIDTH 14 0
BBX 12 20 1 1
BITMAP
0F00
3FC0
7060
6060
6060
E060
0060
00E0
00E0
01C0
0380
0700
0E00
1C00
3800
3000
6000
6000
FFF0
FFF0
ENDCHAR
STARTCHAR 0033
ENCODING 51
SWIDTH 500 0
DWIDTH 14 0
BBX 12 19 1 2
BITMAP
1F00
3FC0
70E0
6060
0060
0060
0060
00C0
0F80
0F80
00C0
0060
0070
0030
0070
E070
60E0
7FC0
1F80
ENDCHAR
STARTCHAR 0034
ENCODING 52
SWIDTH 500 0
DWIDTH 14 0
BBX 12 20 1 1
BITMAP
01C0
01C0
03C0
07C0
06C0
0CC0
0CC0
18C0
38C0
30C0
60C0
60C0
C0C0
FFF0
FFF0
00C0
00C0
00C0
00C0
00C0
ENDCHAR
STARTCHAR 0035
ENCODING 53
SWIDTH 500 0
DWIDTH 14 0
BBX 11 19 2 2
BITMAP
FFC0
FFC0
C000
C000
C000
C000
CF00
DF80
F1C0
E0C0
C0E0
00E0
0060
0060
00C0
C0C0
E1C0
7F80
3E00
ENDCHAR
STARTCHAR 0036
ENCODING 54
SWIDTH 500 0
DWIDTH 14 0
BBX 12 19 1 2
BITMAP
0F80
1FC0
38E0
3060
6000
6000
6000
6F80
DFC0
F8E0
E060
E070
6030
6070
6070
6060
30E0
1FC0
0F80
ENDCHAR
STARTCHAR 0037
ENCODING 55
SWIDTH 500 0
DWIDTH 14 0
BBX 12 20 1 1
BITMAP
FFF0
FFF0
0060
0060
00C0
00C0
01C0
0180
0180
0380
0300
0300
0700
0600
0600
0E00
0E00
0C00
0C00
1C00
ENDCHAR
STARTCHAR 0038
ENCODING 56
SWIDTH 500 0
DWIDTH 14 0
BBX 12 19 1 2
BITMAP
0F00
3FC0
70E0
6060
6060
6060
6060
30C0
1F80
3FC0
70E0
E070
C030
C030
C030
E070
70E0
3FC0
1F80
ENDCHAR
STARTCHAR 0039
ENCODING 57
SWIDTH 500 0
DWIDTH 14 0
BBX 11 19 2 2
BITMAP
1E00
7F80
6180
C0C0
C0C0
C0C0
C0C0
C0E0
C0E0
E1E0
7F60
3E60
00C0
00C0
00C0
C0C0
E180
7F00
3E00
ENDCHAR
STARTCHAR 003A
ENCODING 58
SWIDTH 500 0
DWIDTH 14 0
BBX 4 14 5 1
BITMAP
F0
F0
F0
00
00
00
00
00
00
00
00
F0
F0
F0
ENDCHAR
STARTCHAR 003B
ENCODING 59
SWIDTH 500 0
DWIDTH 14 0
BBX 5 17 4 -3
BITMAP
78
78
78
00
00
00
00
00
00
00
70
70
70
70
60
60
C0
ENDCHAR
STARTCHAR 003C
ENCODING 60
SWIDTH 500 0
DWIDTH 14 0
BBX 12 23 1 -1
BITMAP
0010
0030
0070
00C0
0180
0300
0600
0C00
1800
3000
6000
C000
6000
3000
1C00
0E00
0700
0380
01C0
00E0
0070
0030
0010
ENDCHAR
STARTCHAR 003D
ENCODING 61
SWIDTH 500 0
DWIDTH 14 0
BBX 12 7 1 7
BITMAP
FFF0
FFF0
0000
0000
0000
FFF0
FFF0
ENDCHAR
STARTCHAR 003E
ENCODING 62
SWIDTH 500 0
DWIDTH 14 0
BBX 12 23 1 -1
BITMAP
8000
C000
E000
3000
1800
0C00
0600
0300
0180
00C0
0060
0030
0060
01C0
0380
0700
0E00
1C00
3800
7000
E000
C000
8000
ENDCHAR
STARTCHAR 003F
ENCODING 63
SWIDTH 500 0
DWIDTH 14 0
BBX 12 22 1 0
BITMAP
0F80
3FC0
70E0
6060
6070
E070
E060
0060
00E0
01C0
0380
0700
0600
0600
0600
0600
0600
0000
0000
0E00
0E00
0E00
ENDCHAR
STARTCHAR 0040
ENCODING 64
SWIDTH 500 0
DWIDTH 14 0
BBX 12 21 1 0
BITMAP
0F00
3FC0
30E0
6060
4030
C7B0
CF90
9990
9990
9990
9190
9190
91B0
9BB0
DFE0
CEC0
C000
6020
70E0
3FC0
0F80
ENDCHAR
STARTCHAR 0041
ENCODING 65
SWIDTH 500 0
DWIDTH 14 0
BBX 12 20 1 1
BITMAP
0F00
0F00
0F00
0F00
1980
1980
1980
1980
39C0
30C0
30C0
3FC0
7FE0
6060
6060
6060
E070
E070
C030
C030
ENDCHAR
STARTCHAR 0042
ENCODING 66
SWIDTH 500 0
DWIDTH 14 0
BBX 11 20 2 1
BITMAP
FE00
FF80
C1C0
C1C0
C0C0
C0C0
C1C0
C380
FF00
FF00
C180
C0C0
C0C0
C0E0
C0E0
C0E0
C0C0
C1C0
FF80
FE00
ENDCHAR
STARTCHAR 0043
ENCODING 67
SWIDTH 500 0
DWIDTH 14 0
BBX 12 19 1 2
BITMAP
0F00
1FC0
38C0
70E0
6060
6060
E000
E000
E000
E000
E000
E000
E000
6070
6060
7060
38E0
1FC0
0F80
ENDCHAR
STARTCHAR 0044
ENCODING 68
SWIDTH 500 0
DWIDTH 14 0
BBX 12 20 1 1
BITMAP
FE00
FF80
71C0
70E0
7060
7060
7060
7070
7070
7070
7070
7070
7070
7060
7060
70E0
70E0
71C0
FF80
FE00
ENDCHAR
STARTCHAR 0045
ENCODING 69
SWIDTH 500 0
DWIDTH 14 0
BBX 10 20 2 1
BITMAP
FFC0
FFC0
C000
C000
C000
C000
C000
C000
FF80
FF80
C000
C000
C000
C000
C000
C000
C000
C000
FFC0
FFC0
ENDCHAR
STARTCHAR 0046
ENCODING 70
SWIDTH 500 0
DWIDTH 14 0
BBX 10 20 2 1
BITMAP
FFC0
FFC0
C000
C000
C000
C000
C000
C000
FF80
FF80
C000
C000
C000
C000
C000
C000
C000
C000
C000
C000
ENDCHAR
STARTCHAR 0047
ENCODING 71
SWIDTH 500 0
DWIDTH 14 0
BBX 12 20 1 1
BITMAP
0F00
1FC0
38C0
70E0
6060
6060
E000
E000
E000
E000
E1F0
E1F0
E030
6070
6070
7070
38F0
3FB0
0F30
0030
ENDCHAR
STARTCHAR 0048
ENCODING 72
SWIDTH 500 0
DWIDTH 14 0
BBX 10 20 2 1
BITMAP
C0C0
C0C0
C0C0
C0C0
C0C0
C0C0
C0C0
C0C0
FFC0
FFC0
C0C0
C0C0
C0C0
C0C0
C0C0
C0C0
C0C0
C0C0
C0C0
C0C0
ENDCHAR
STARTCHAR 0049
ENCODING 73
SWIDTH 500 0
DWIDTH 14 0
BBX 8 20 3 1
BITMAP
FF
FF
18
18
18
18
18
18
18
18
18
18
18
18
18
18
18
18
FF
FF
ENDCHAR
STARTCHAR 004A
ENCODING 74
SWIDTH 500 0
DWIDTH 14 0
BBX 10 19 1 2
BITMAP
00C0
00C0
00C0
00C0
00C0
00C0
00C0
00C0
00C0
00C0
00C0
00C0
00C0
00C0
E0C0
E0C0
71C0
7F80
1F00
ENDCHAR
STARTCHAR 004B
ENCODING 75
SWIDTH 500 0
DWIDTH 14 0
BBX 11 20 2 1
BITMAP
C1C0
C180
C380
C300
C700
CE00
CC00
DC00
DC00
FC00
F600
E600
C700
C300
C380
C180
C1C0
C1C0
C0C0
C0E0
ENDCHAR
STARTCHAR 004C
ENCODING 76
SWIDTH 500 0
DWIDTH 14 0
BBX 11 20 2 1
BITMAP
C000
C000
C000
C000
C000
C000
C000
C000
C000
C000
C000
C000
C000
C000
C000
C000
C000
C000
FFE0
FFE0
ENDCHAR
STARTCHAR 004D
ENCODING 77
SWIDTH 500 0
DWIDTH 14 0
BBX 12 20 1 1
BITMAP
E070
E070
F0F0
F0F0
F0F0
D0F0
D0B0
D0B0
D9B0
D9B0
D9B0
C9B0
C930
CB30
CF30
CF30
CF30
C630
C630
C630
ENDCHAR
STARTCHAR 004E
ENCODING 78
SWIDTH 500 0
DWIDTH 14 0
BBX 10 20 2 1
BITMAP
E0C0
E0C0
E0C0
F0C0
F0C0
D0C0
D8C0
D8C0
CCC0
CCC0
CCC0
C6C0
C6C0
C6C0
C3C0
C3C0
C3C0
C1C0
C1C0
C0C0
ENDCHAR
STARTCHAR 004F
ENCODING 79
SWIDTH 500 0
DWIDTH 14 0
BBX 12 19 1 2
BITMAP
0F00
1F80
31C0
70E0
6060
6060
E060
E070
E070
E070
E070
E070
E070
6060
6060
70E0
30C0
1F80
0F00
ENDCHAR
STARTCHAR 0050
ENCODING 80
SWIDTH 500 0
DWIDTH 14 0
BBX 11 20 2 1
BITMAP
FF00
FF80
C1C0
C0C0
C0E0
C0E0
C0E0
C0C0
C1C0
FF80
FF00
C000
C000
C000
C000
C000
C000
C000
C000
C000
ENDCHAR
STARTCHAR 0051
ENCODING 81
SWIDTH 500 0
DWIDTH 14 0
BBX 12 21 1 0
BITMAP
0F00
1F80
31C0
70E0
6060
6060
E060
E070
E070
E070
E070
E070
E070
6260
6760
7360
31C0
1FC0
0FC0
00C0
00C0
ENDCHAR
STARTCHAR 0052
ENCODING 82
SWIDTH 500 0
DWIDTH 14 0
BBX 11 20 2 1
BITMAP
FF00
FF80
C1C0
C0C0
C0E0
C0E0
C0C0
C1C0
FF80
FE00
C600
C700
C300
C300
C380
C180
C1C0
C0C0
C0C0
C0E0
ENDCHAR
STARTCHAR 0053
ENCODING 83
SWIDTH 500 0
DWIDTH 14 0
BBX 12 19 1 2
BITMAP
0F00
3FC0
70E0
6060
6060
6000
7000
3800
1C00
0700
0180
00E0
0060
0070
E070
6070
70E0
3FE0
1FC0
ENDCHAR
STARTCHAR 0054
ENCODING 84
SWIDTH 500 0
DWIDTH 14 0
BBX 12 20 1 1
BITMAP
FFF0
FFF0
0600
0600
0600
0600
0600
0600
0600
0600
0600
0600
0600
0600
0600
0600
0600
0600
0600
0600
ENDCHAR
STARTCHAR 0055
ENCODING 85
SWIDTH 500 0
DWIDTH 14 0
BBX 10 19 2 2
BITMAP
C0C0
C0C0
C0C0
C0C0
C0C0
C0C0
C0C0
C0C0
C0C0
C0C0
C0C0
C0C0
C0C0
C0C0
C0C0
C0C0
E1C0
7F80
3F00
ENDCHAR
STARTCHAR 0056
ENCODING 86
SWIDTH 500 0
DWIDTH 14 0
BBX 12 20 1 1
BITMAP
E070
E070
6070
6060
6060
70E0
70E0
30C0
30C0
30C0
39C0
1980
1980
1980
1980
0F80
0F00
0F00
0F00
0F00
ENDCHAR
STARTCHAR 0057
ENCODING 87
SWIDTH 500 0
DWIDTH 14 0
BBX 12 20 1 1
BITMAP
C630
C630
C630
C630
CF30
CF30
CF30
CF30
6960
6960
6960
7960
79E0
79E0
79E0
79E0
70E0
30C0
30C0
30C0
ENDCHAR
STARTCHAR 0058
ENCODING 88
SWIDTH 500 0
DWIDTH 14 0
BBX 12 20 1 1
BITMAP
6060
70E0
30C0
39C0
1980
1F80
0F00
0F00
0F00
0F00
0F00
0F00
1F80
1980
39C0
30C0
70E0
70E0
6060
E070
ENDCHAR
STARTCHAR 0059
ENCODING 89
SWIDTH 500 0
DWIDTH 14 0
BBX 12 20 1 1
BITMAP
E070
E070
6060
70E0
30C0
30C0
19C0
1980
1F80
0F00
0F00
0600
0600
0600
0600
0600
0600
0600
0600
0600
ENDCHAR
STARTCHAR 005A
ENCODING 90
SWIDTH 500 0
DWIDTH 14 0
BBX 10 20 2 1
BITMAP
FFC0
FFC0
01C0
0180
0380
0300
0700
0600
0E00
0C00
1C00
1800
3800
3000
7000
6000
E000
E000
FFC0
FFC0
ENDCHAR
STARTCHAR 005B
ENCODING 91
SWIDTH 500 0
DWIDTH 14 0
BBX 9 25 3 -2
BITMAP
FF80
FF80
C000
C000
C000
C000
C000
C000
C000
C000
C000
C000
C000
C000
C000
C000
C000
C000
C000
C000
C000
C000
C000
FF80
FF80
ENDCHAR
STARTCHAR 005C
ENCODING 92
SWIDTH 500 0
DWIDTH 14 0
BBX 12 20 1 1
BITMAP
C070
6060
70E0
30C0
39C0
1980
0F00
0F00
FFF0
FFF0
0600
0600
FFF0
FFF0
0600
0600
0600
0600
0600
0600
ENDCHAR
STARTCHAR 005D
ENCODING 93
SWIDTH 500 0
DWIDTH 14 0
BBX 9 25 2 -2
BITMAP
FF80
FF80
0180
0180
0180
0180
0180
0180
0180
0180
0180
0180
0180
0180
0180
0180
0180
0180
0180
0180
0180
0180
0180
FF80
FF80
ENDCHAR
STARTCHAR 005E
ENCODING 94
SWIDTH 500 0
DWIDTH 14 0
BBX 9 3 3 18
BITMAP
3C00
6600
C380
ENDCHAR
STARTCHAR 005F
ENCODING 95
SWIDTH 500 0
DWIDTH 14 0
BBX 0 0 0 -3
BITMAP
ENDCHAR
STARTCHAR 0060
ENCODING 96
SWIDTH 500 0
DWIDTH 14 0
BBX 6 3 4 18
BITMAP
E0
30
1C
ENDCHAR
STARTCHAR 0061
ENCODING 97
SWIDTH 500 0
DWIDTH 14 0
BBX 11 13 2 2
BITMAP
3E00
7F80
E180
C180
00C0
0FC0
7FC0
E0C0
C0C0
C1C0
C3C0
FFE0
7CE0
ENDCHAR
STARTCHAR 0062
ENCODING 98
SWIDTH 500 0
DWIDTH 14 0
BBX 11 20 2 1
BITMAP
C000
C000
C000
C000
C000
C000
CF00
FF80
F1C0
E0C0
C0C0
C0E0
C0E0
C0E0
C0C0
E0C0
F1C0
FF80
CF00
C000
ENDCHAR
STARTCHAR 0063
ENCODING 99
SWIDTH 500 0
DWIDTH 14 0
BBX 10 13 2 2
BITMAP
1E00
7F80
6180
E0C0
C000
C000
C000
C000
C000
E0C0
61C0
7F80
1F00
ENDCHAR
STARTCHAR 0064
ENCODING 100
SWIDTH 500 0
DWIDTH 14 0
BBX 11 20 1 1
BITMAP
0060
0060
0060
0060
0060
0060
1E60
3FE0
71E0
60E0
6060
E060
E060
E060
6060
60E0
71E0
3FE0
1E60
0060
ENDCHAR
STARTCHAR 0065
ENCODING 101
SWIDTH 500 0
DWIDTH 14 0
BBX 10 13 2 2
BITMAP
1E00
7F00
6180
E1C0
C0C0
C0C0
FFC0
FFC0
C000
C0C0
61C0
7F80
1F00
ENDCHAR
STARTCHAR 0066
ENCODING 102
SWIDTH 500 0
DWIDTH 14 0
BBX 10 20 2 1
BITMAP
07C0
0FC0
0C00
0C00
0C00
0C00
FFC0
FFC0
0C00
0C00
0C00
0C00
0C00
0C00
0C00
0C00
0C00
0C00
0C00
0C00
ENDCHAR
STARTCHAR 0067
ENCODING 103
SWIDTH 500 0
DWIDTH 14 0
BBX 11 17 1 -2
BITMAP
1F60
3FE0
70E0
6060
E060
E060
E060
60E0
71E0
3FE0
1F60
0060
0060
6060
70C0
3FC0
1F00
ENDCHAR
STARTCHAR 0068
ENCODING 104
SWIDTH 500 0
DWIDTH 14 0
BBX 10 20 2 1
BITMAP
C000
C000
C000
C000
C000
C000
CF00
FF80
F1C0
E0C0
C0C0
C0C0
C0C0
C0C0
C0C0
C0C0
C0C0
C0C0
C0C0
C0C0
ENDCHAR
STARTCHAR 0069
ENCODING 105
SWIDTH 500 0
DWIDTH 14 0
BBX 2 20 6 1
BITMAP
C0
C0
C0
00
00
00
C0
C0
C0
C0
C0
C0
C0
C0
C0
C0
C0
C0
C0
C0
ENDCHAR
STARTCHAR 006A
ENCODING 106
SWIDTH 500 0
DWIDTH 14 0
BBX 6 23 3 -2
BITMAP
1C
1C
1C
00
00
00
0C
0C
0C
0C
0C
0C
0C
0C
0C
0C
0C
0C
0C
0C
0C
FC
F8
ENDCHAR
STARTCHAR 006B
ENCODING 107
SWIDTH 500 0
DWIDTH 14 0
BBX 11 20 2 1
BITMAP
C000
C000
C000
C000
C000
C000
C180
C380
C700
CE00
CC00
DC00
FC00
E600
E700
C300
C380
C180
C1C0
C0E0
ENDCHAR
STARTCHAR 006C
ENCODING 108
SWIDTH 500 0
DWIDTH 14 0
BBX 5 19 6 2
BITMAP
C0
C0
C0
C0
C0
C0
C0
C0
C0
C0
C0
C0
C0
C0
C0
C0
C0
F8
78
ENDCHAR
STARTCHAR 006D
ENCODING 109
SWIDTH 500 0
DWIDTH 14 0
BBX 12 14 1 1
BITMAP
DDE0
FFF0
E730
C630
C630
C630
C630
C630
C630
C630
C630
C630
C630
C630
ENDCHAR
STARTCHAR 006E
ENCODING 110
SWIDTH 500 0
DWIDTH 14 0
BBX 10 14 2 1
BITMAP
CF00
FF80
F1C0
E0C0
C0C0
C0C0
C0C0
C0C0
C0C0
C0C0
C0C0
C0C0
C0C0
C0C0
ENDCHAR
STARTCHAR 006F
ENCODING 111
SWIDTH 500 0
DWIDTH 14 0
BBX 10 13 2 2
BITMAP
1E00
7F80
6180
E0C0
C0C0
C0C0
C0C0
C0C0
C0C0
E1C0
6180
7F80
1E00
ENDCHAR
STARTCHAR 0070
ENCODING 112
SWIDTH 500 0
DWIDTH 14 0
BBX 11 18 2 -3
BITMAP
CF00
FF80
F1C0
E0C0
C0C0
C0E0
C0E0
C0E0
C0C0
E0C0
F1C0
FF80
CF00
C000
C000
C000
C000
C000
ENDCHAR
STARTCHAR 0071
ENCODING 113
SWIDTH 500 0
DWIDTH 14 0
BBX 11 18 1 -3
BITMAP
1E60
3FE0
71E0
60E0
6060
E060
E060
E060
6060
60E0
71E0
3FE0
1E60
0060
0060
0060
0060
0060
ENDCHAR
STARTCHAR 0072
ENCODING 114
SWIDTH 500 0
DWIDTH 14 0
BBX 7 14 4 2
BITMAP
C6
CE
DC
F0
E0
C0
C0
C0
C0
C0
C0
C0
C0
C0
ENDCHAR
STARTCHAR 0073
ENCODING 115
SWIDTH 500 0
DWIDTH 14 0
BBX 10 13 2 2
BITMAP
3E00
7F80
E180
C0C0
6000
3800
0F00
0180
00C0
C0C0
E1C0
7F80
3F00
ENDCHAR
STARTCHAR 0074
ENCODING 116
SWIDTH 500 0
DWIDTH 14 0
BBX 8 16 3 2
BITMAP
38
38
38
FF
FF
38
38
38
38
38
38
38
38
38
1F
1F
ENDCHAR
STARTCHAR 0075
ENCODING 117
SWIDTH 500 0
DWIDTH 14 0
BBX 10 14 2 1
BITMAP
C0C0
C0C0
C0C0
C0C0
C0C0
C0C0
C0C0
C0C0
C0C0
C0C0
E3C0
7FC0
3EC0
00C0
ENDCHAR
STARTCHAR 0076
ENCODING 118
SWIDTH 500 0
DWIDTH 14 0
BBX 10 14 2 1
BITMAP
C0C0
C0C0
C1C0
6180
6180
6180
7380
3300
3300
3300
1E00
1E00
1E00
0C00
ENDCHAR
STARTCHAR 0077
ENCODING 119
SWIDTH 500 0
DWIDTH 14 0
BBX 12 14 1 1
BITMAP
C630
C630
CF30
CF30
CF30
4F20
4960
6960
79E0
79E0
79E0
70E0
30C0
30C0
ENDCHAR
STARTCHAR 0078
ENCODING 120
SWIDTH 500 0
DWIDTH 14 0
BBX 12 14 1 1
BITMAP
70E0
30C0
1980
1980
0F00
0F00
0600
0F00
1F80
1980
39C0
30C0
70E0
E070
ENDCHAR
STARTCHAR 0079
ENCODING 121
SWIDTH 500 0
DWIDTH 14 0
BBX 11 17 2 -2
BITMAP
C0E0
E0C0
60C0
61C0
7180
3180
3300
1B00
1B00
1E00
0E00
0E00
0C00
0C00
1C00
F800
F800
ENDCHAR
STARTCHAR 007A
ENCODING 122
SWIDTH 500 0
DWIDTH 14 0
BBX 10 14 2 1
BITMAP
7FC0
7FC0
0180
0300
0700
0600
0C00
1C00
3800
3000
7000
E000
FFC0
FFC0
ENDCHAR
STARTCHAR 007B
ENCODING 123
SWIDTH 500 0
DWIDTH 14 0
BBX 7 25 5 -2
BITMAP
0E
1E
38
30
30
30
30
30
30
30
30
E0
C0
60
30
30
30
30
30
30
30
30
38
1E
0E
ENDCHAR
STARTCHAR 007C
ENCODING 124
SWIDTH 500 0
DWIDTH 14 0
BBX 2 28 6 -3
BITMAP
C0
C0
C0
C0
C0
C0
C0
C0
C0
C0
C0
C0
C0
C0
C0
C0
C0
C0
C0
C0
C0
C0
C0
C0
C0
C0
C0
C0
ENDCHAR
STARTCHAR 007D
ENCODING 125
SWIDTH 500 0
DWIDTH 14 0
BBX 7 25 2 -2
BITMAP
E0
F0
38
18
18
18
18
18
18
18
18
0E
06
0C
18
18
18
18
18
18
18
18
38
F0
E0
ENDCHAR
STARTCHAR 007E
ENCODING 126
SWIDTH 500 0
DWIDTH 14 0
BBX 10 3 2 18
BITMAP
7840
FFC0
0780
ENDCHAR
STARTCHAR 00A0
ENCODING 160
SWIDTH 500 0
DWIDTH 14 0
BBX 0 0 0 0
BITMAP
ENDCHAR
STARTCHAR 00A1
ENCODING 161
SWIDTH 500 0
DWIDTH 14 0
BBX 4 22 5 0
BITMAP
F0
F0
F0
00
00
00
60
60
60
60
60
60
60
60
60
60
60
60
F0
F0
F0
F0
ENDCHAR
STARTCHAR 00A2
ENCODING 162
SWIDTH 1000 0
DWIDTH 28 0
BBX 14 21 7 1
BITMAP
0060
0060
0060
07C0
1FE0
38F0
71B8
6198
E180
C300
C300
C600
E600
E61C
7C18
3C78
1FF0
1FC0
1800
3000
3000
ENDCHAR
STARTCHAR 00A3
ENCODING 163
SWIDTH 1000 0
DWIDTH 28 0
BBX 20 20 4 1
BITMAP
00F800
01FE00
038700
030700
030300
030000
030000
1FFE00
1FFE00
00C000
00C000
00C000
3CC000
7FC000
63C020
C1C070
E1E060
63B8C0
7F1FC0
1E0700
ENDCHAR
STARTCHAR 00A4
ENCODING 164
SWIDTH 500 0
DWIDTH 14 0
BBX 10 9 2 8
BITMAP
C0C0
7F80
2100
4080
4080
4080
2100
7F80
C0C0
ENDCHAR
STARTCHAR 00A5
ENCODING 165
SWIDTH 1000 0
DWIDTH 28 0
BBX 16 20 6 1
BITMAP
E007
700E
300C
381C
1C38
0E70
07E0
FFFF
FFFF
0180
0180
0180
FFFF
FFFF
0180
0180
0180
0180
0180
0180
ENDCHAR
STARTCHAR 00A6
ENCODING 166
SWIDTH 500 0
DWIDTH 14 0
BBX 2 25 6 -2
BITMAP
C0
C0
C0
C0
C0
C0
C0
C0
C0
C0
C0
00
00
00
C0
C0
C0
C0
C0
C0
C0
C0
C0
C0
C0
ENDCHAR
STARTCHAR 00A7
ENCODING 167
SWIDTH 1000 0
DWIDTH 28 0
BBX 12 25 8 -2
BITMAP
1F80
3FC0
70E0
6060
6060
6000
7000
3800
3F00
63C0
E0E0
C070
E070
7070
3C60
1FC0
07C0
01E0
00E0
E060
E060
6060
70E0
3FC0
1F80
ENDCHAR
STARTCHAR 00A8
ENCODING 168
SWIDTH 1000 0
DWIDTH 28 0
BBX 10 3 9 18
BITMAP
E1C0
E1C0
E1C0
ENDCHAR
STARTCHAR 00A9
ENCODING 169
SWIDTH 500 0
DWIDTH 14 0
BBX 12 12 1 5
BITMAP
0F00
30C0
4F20
9990
B090
B010
B010
B090
9190
4F20
30C0
0F80
ENDCHAR
STARTCHAR 00AA
ENCODING 170
SWIDTH 500 0
DWIDTH 14 0
BBX 9 11 1 10
BITMAP
3C00
6200
0300
3F00
6300
4300
C300
4780
7980
0000
FF00
ENDCHAR
STARTCHAR 00AB
ENCODING 171
SWIDTH 500 0
DWIDTH 14 0
BBX 9 12 3 2
BITMAP
1980
1900
3300
6600
4400
CC00
CC00
4400
6600
3300
1100
1980
ENDCHAR
STARTCHAR 00AC
ENCODING 172
SWIDTH 1000 0
DWIDTH 28 0
BBX 24 12 2 4
BITMAP
FFFFFF
FFFFFF
000003
000003
000003
000003
000003
000003
000003
000003
000003
000003
ENDCHAR
STARTCHAR 00AD
ENCODING 173
SWIDTH 500 0
DWIDTH 14 0
BBX 12 2 1 10
BITMAP
FFF0
FFF0
ENDCHAR
STARTCHAR 00AE
ENCODING 174
SWIDTH 500 0
DWIDTH 14 0
BBX 12 12 1 5
BITMAP
0F80
30C0
5FA0
9090
90D0
9090
9F90
9310
9190
50E0
30C0
0F00
ENDCHAR
STARTCHAR 00AF
ENCODING 175
SWIDTH 500 0
DWIDTH 14 0
BBX 10 1 2 19
BITMAP
FFC0
ENDCHAR
STARTCHAR 00B0
ENCODING 176
SWIDTH 1000 0
DWIDTH 28 0
BBX 7 6 1 17
BITMAP
38
44
C6
C6
44
38
ENDCHAR
STARTCHAR 00B1
ENCODING 177
SWIDTH 1000 0
DWIDTH 28 0
BBX 20 20 4 1
BITMAP
006000
006000
006000
006000
006000
006000
FFFFF0
FFFFF0
006000
006000
006000
006000
006000
006000
006000
000000
000000
000000
FFFFF0
FFFFF0
ENDCHAR
STARTCHAR 00B2
ENCODING 178
SWIDTH 500 0
DWIDTH 14 0
BBX 6 10 2 14
BITMAP
78
CC
84
0C
0C
38
70
E0
C0
FC
ENDCHAR
STARTCHAR 00B3
ENCODING 179
SWIDTH 500 0
DWIDTH 14 0
BBX 7 10 1 13
BITMAP
3C
46
06
0C
1C
06
02
C2
46
3C
ENDCHAR
STARTCHAR 00B4
ENCODING 180
SWIDTH 1000 0
DWIDTH 28 0
BBX 6 3 11 18
BITMAP
1C
30
E0
ENDCHAR
STARTCHAR 00B6
ENCODING 182
SWIDTH 1000 0
DWIDTH 28 0
BBX 11 25 7 -2
BITMAP
1FE0
7C20
7C20
FC20
FC20
FC20
FC20
7C20
3C20
0C20
0420
0420
0420
0420
0420
0420
0420
0420
0420
0420
0420
0420
0420
0420
0420
ENDCHAR
STARTCHAR 00B7
ENCODING 183
SWIDTH 500 0
DWIDTH 14 0
BBX 4 4 5 9
BITMAP
F0
F0
F0
F0
ENDCHAR
STARTCHAR 00B8
ENCODING 184
SWIDTH 500 0
DWIDTH 14 0
BBX 7 6 4 -1
BITMAP
40
40
FC
06
86
FC
ENDCHAR
STARTCHAR 00B9
ENCODING 185
SWIDTH 500 0
DWIDTH 14 0
BBX 3 10 3 14
BITMAP
60
E0
A0
20
20
20
20
20
20
20
ENDCHAR
STARTCHAR 00BA
ENCODING 186
SWIDTH 500 0
DWIDTH 14 0
BBX 8 11 1 10
BITMAP
1C
63
43
41
C1
41
43
63
1C
00
FF
ENDCHAR
STARTCHAR 00BB
ENCODING 187
SWIDTH 500 0
DWIDTH 14 0
BBX 9 12 2 2
BITMAP
CC00
4C00
6600
3300
1100
1980
1980
1100
3300
6600
4C00
CC00
ENDCHAR
STARTCHAR 00BC
ENCODING 188
SWIDTH 500 0
DWIDTH 14 0
BBX 12 25 1 -2
BITMAP
3020
F020
B040
3040
30C0
3080
3180
3100
3100
3300
3200
3600
04E0
0CE0
09E0
09E0
1B60
1360
3660
2660
6C60
4FF0
4060
C060
8060
ENDCHAR
STARTCHAR 00BD
ENCODING 189
SWIDTH 500 0
DWIDTH 14 0
BBX 13 25 1 -2
BITMAP
3020
F020
B040
3040
30C0
3080
3180
3100
3100
3300
3200
3600
05E0
0DF0
0B30
0B10
1810
1030
3030
2060
20C0
4180
4300
C300
83F8
ENDCHAR
STARTCHAR 00BE
ENCODING 190
SWIDTH 500 0
DWIDTH 14 0
BBX 13 25 1 -2
BITMAP
7810
CC30
CC20
0C60
0C40
3040
0CC0
0480
0580
8500
CF00
7A00
0260
06E0
04E0
0DE0
0960
1B60
1A60
1660
3460
2FF8
6060
4060
4060
ENDCHAR
STARTCHAR 00BF
ENCODING 191
SWIDTH 500 0
DWIDTH 14 0
BBX 12 22 1 0
BITMAP
0700
0700
0700
0000
0000
0000
0600
0600
0600
0600
0E00
0C00
1800
3800
7000
6070
E070
E060
E060
70E0
3FC0
1F00
ENDCHAR
STARTCHAR 00C0
ENCODING 192
SWIDTH 500 0
DWIDTH 14 0
BBX 12 23 1 1
BITMAP
0C00
0600
0000
0F00
0F00
0F00
0F00
1980
1980
1980
1980
39C0
30C0
30C0
3FC0
7FE0
6060
6060
6060
E070
E070
C030
C030
ENDCHAR
STARTCHAR 00C1
ENCODING 193
SWIDTH 500 0
DWIDTH 14 0
BBX 12 23 1 1
BITMAP
0300
0600
0000
0F00
0F00
0F00
0F00
1980
1980
1980
1980
39C0
30C0
30C0
3FC0
7FE0
6060
6060
6060
E070
E070
C030
C030
ENDCHAR
STARTCHAR 00C2
ENCODING 194
SWIDTH 500 0
DWIDTH 14 0
BBX 12 23 1 1
BITMAP
0F00
1980
0000
0F00
0F00
0F00
0F00
1980
1980
1980
1980
39C0
30C0
30C0
3FC0
7FE0
6060
6060
6060
E070
E070
C030
C030
ENDCHAR
STARTCHAR 00C3
ENCODING 195
SWIDTH 500 0
DWIDTH 14 0
BBX 12 23 1 1
BITMAP
1E00
0380
0000
0F00
0F00
0F00
0F00
1980
1980
1980
1980
39C0
30C0
30C0
3FC0
7FE0
6060
6060
6060
E070
E070
C030
C030
ENDCHAR
STARTCHAR 00C4
ENCODING 196
SWIDTH 500 0
DWIDTH 14 0
BBX 12 23 1 1
BITMAP
39C0
39C0
0000
0F00
0F00
0F00
0F00
1980
1980
1980
1980
39C0
30C0
30C0
3FC0
7FE0
6060
6060
6060
E070
E070
C030
C030
ENDCHAR
STARTCHAR 00C5
ENCODING 197
SWIDTH 500 0
DWIDTH 14 0
BBX 12 23 1 1
BITMAP
0E00
0900
0900
0600
0F00
0F00
0F00
0900
1980
1980
1980
3980
30C0
30C0
3FC0
7FE0
6060
6060
6060
E070
E070
C030
C030
ENDCHAR
STARTCHAR 00C6
ENCODING 198
SWIDTH 500 0
DWIDTH 14 0
BBX 12 20 1 1
BITMAP
0FF0
0FF0
0F00
0F00
1B00
1B00
1B00
1B00
33F0
33F0
3300
3F00
7F00
6300
6300
6300
E300
C300
C3F0
C3F0
ENDCHAR
STARTCHAR 00C7
ENCODING 199
SWIDTH 500 0
DWIDTH 14 0
BBX 12 24 1 -3
BITMAP
0F80
1FC0
38E0
7060
6060
6000
6000
E000
E000
E000
E000
E000
E000
6070
6060
6060
70E0
38C0
1FC0
0F00
0C00
0F00
0180
0F00
ENDCHAR
STARTCHAR 00C8
ENCODING 200
SWIDTH 500 0
DWIDTH 14 0
BBX 10 23 2 1
BITMAP
1800
0C00
0000
FFC0
FFC0
C000
C000
C000
C000
C000
C000
FF80
FF80
C000
C000
C000
C000
C000
C000
C000
C000
FFC0
FFC0
ENDCHAR
STARTCHAR 00C9
ENCODING 201
SWIDTH 500 0
DWIDTH 14 0
BBX 10 23 2 1
BITMAP
0600
0C00
0000
FFC0
FFC0
C000
C000
C000
C000
C000
C000
FF80
FF80
C000
C000
C000
C000
C000
C000
C000
C000
FFC0
FFC0
ENDCHAR
STARTCHAR 00CA
ENCODING 202
SWIDTH 500 0
DWIDTH 14 0
BBX 10 23 2 1
BITMAP
1E00
3300
0000
FFC0
FFC0
C000
C000
C000
C000
C000
C000
FF80
FF80
C000
C000
C000
C000
C000
C000
C000
C000
FFC0
FFC0
ENDCHAR
STARTCHAR 00CB
ENCODING 203
SWIDTH 500 0
DWIDTH 14 0
BBX 10 23 2 1
BITMAP
7380
7380
0000
FFC0
FFC0
C000
C000
C000
C000
C000
C000
FF80
FF80
C000
C000
C000
C000
C000
C000
C000
C000
FFC0
FFC0
ENDCHAR
STARTCHAR 00CC
ENCODING 204
SWIDTH 500 0
DWIDTH 14 0
BBX 3 23 5 1
BITMAP
C0
60
00
60
60
60
60
60
60
60
60
60
60
60
60
60
60
60
60
60
60
60
60
ENDCHAR
STARTCHAR 00CD
ENCODING 205
SWIDTH 500 0
DWIDTH 14 0
BBX 3 23 6 1
BITMAP
60
C0
00
C0
C0
C0
C0
C0
C0
C0
C0
C0
C0
C0
C0
C0
C0
C0
C0
C0
C0
C0
C0
ENDCHAR
STARTCHAR 00CE
ENCODING 206
SWIDTH 500 0
DWIDTH 14 0
BBX 6 23 4 1
BITMAP
78
CC
00
30
30
30
30
30
30
30
30
30
30
30
30
30
30
30
30
30
30
30
30
ENDCHAR
STARTCHAR 00CF
ENCODING 207
SWIDTH 500 0
DWIDTH 14 0
BBX 8 23 3 1
BITMAP
E7
E7
00
18
18
18
18
18
18
18
18
18
18
18
18
18
18
18
18
18
18
18
18
ENDCHAR
STARTCHAR 00D0
ENCODING 208
SWIDTH 500 0
DWIDTH 14 0
BBX 12 20 1 1
BITMAP
7E00
7F80
61C0
60C0
6060
6060
6060
6070
6070
FE70
6070
6070
6070
6060
6060
60E0
60C0
61C0
7F80
7E00
ENDCHAR
STARTCHAR 00D1
ENCODING 209
SWIDTH 500 0
DWIDTH 14 0
BBX 10 23 2 1
BITMAP
3C00
0700
0000
E0C0
E0C0
E0C0
F0C0
F0C0
D0C0
D8C0
D8C0
CCC0
CCC0
CCC0
C6C0
C6C0
C6C0
C3C0
C3C0
C3C0
C1C0
C1C0
C0C0
ENDCHAR
STARTCHAR 00D2
ENCODING 210
SWIDTH 500 0
DWIDTH 14 0
BBX 12 22 1 2
BITMAP
0C00
0600
0000
0F00
1F80
30C0
70E0
6060
6060
E070
E070
E070
E070
E070
E070
E070
6060
6060
70E0
30C0
3F80
0F00
ENDCHAR
STARTCHAR 00D3
ENCODING 211
SWIDTH 500 0
DWIDTH 14 0
BBX 12 22 1 2
BITMAP
0300
0600
0000
0F00
1F80
30C0
70E0
6060
6060
E070
E070
E070
E070
E070
E070
E070
6060
6060
70E0
30C0
3F80
0F00
ENDCHAR
STARTCHAR 00D4
ENCODING 212
SWIDTH 500 0
DWIDTH 14 0
BBX 12 22 1 2
BITMAP
0F00
1980
0000
0F00
1F80
31C0
70E0
6060
6060
E060
E070
E070
E070
E070
E070
E070
6060
6060
70E0
30C0
1F80
0F00
ENDCHAR
STARTCHAR 00D5
ENCODING 213
SWIDTH 500 0
DWIDTH 14 0
BBX 12 22 1 2
BITMAP
1E80
0380
0000
0F00
1F80
30C0
70E0
6060
6060
E070
E070
E070
E070
E070
E070
E070
6060
6060
70E0
30C0
3F80
0F00
ENDCHAR
STARTCHAR 00D6
ENCODING 214
SWIDTH 500 0
DWIDTH 14 0
BBX 12 22 1 2
BITMAP
39C0
39C0
0000
0F00
1F80
30C0
70E0
6060
6060
E070
E070
E070
E070
E070
E070
E070
6060
6060
70E0
30C0
3F80
0F00
ENDCHAR
STARTCHAR 00D7
ENCODING 215
SWIDTH 1000 0
DWIDTH 28 0
BBX 18 17 5 2
BITMAP
600180
700380
380700
1C0E00
0E1C00
073800
03F000
01E000
01E000
03F000
073800
0E1C00
1C0E00
380700
700380
E001C0
400080
ENDCHAR
STARTCHAR 00D8
ENCODING 216
SWIDTH 500 0
DWIDTH 14 0
BBX 12 23 1 0
BITMAP
0030
0020
0FA0
1FC0
38C0
70E0
60E0
6160
E170
E370
E270
E670
E470
EC70
E860
7860
7060
70E0
31C0
3F80
5F00
4000
C000
ENDCHAR
STARTCHAR 00D9
ENCODING 217
SWIDTH 500 0
DWIDTH 14 0
BBX 10 22 2 2
BITMAP
1800
0C00
0000
C0C0
C0C0
C0C0
C0C0
C0C0
C0C0
C0C0
C0C0
C0C0
C0C0
C0C0
C0C0
C0C0
C0C0
C0C0
C0C0
E1C0
7F80
3F00
ENDCHAR
STARTCHAR 00DA
ENCODING 218
SWIDTH 500 0
DWIDTH 14 0
BBX 10 22 2 2
BITMAP
0600
0C00
0000
C0C0
C0C0
C0C0
C0C0
C0C0
C0C0
C0C0
C0C0
C0C0
C0C0
C0C0
C0C0
C0C0
C0C0
C0C0
C0C0
E1C0
7F80
3F00
ENDCHAR
STARTCHAR 00DB
ENCODING 219
SWIDTH 500 0
DWIDTH 14 0
BBX 10 22 2 2
BITMAP
1E00
3300
0000
C0C0
C0C0
C0C0
C0C0
C0C0
C0C0
C0C0
C0C0
C0C0
C0C0
C0C0
C0C0
C0C0
C0C0
C0C0
C0C0
E1C0
7F80
3F00
ENDCHAR
STARTCHAR 00DC
ENCODING 220
SWIDTH 500 0
DWIDTH 14 0
BBX 10 22 2 2
BITMAP
7380
7380
0000
C0C0
C0C0
C0C0
C0C0
C0C0
C0C0
C0C0
C0C0
C0C0
C0C0
C0C0
C0C0
C0C0
C0C0
C0C0
C0C0
E1C0
7F80
3F00
ENDCHAR
STARTCHAR 00DD
ENCODING 221
SWIDTH 500 0
DWIDTH 14 0
BBX 12 23 1 1
BITMAP
0300
0600
0000
E070
E070
6060
70E0
30C0
30C0
19C0
1980
1F80
0F00
0F00
0600
0600
0600
0600
0600
0600
0600
0600
0600
ENDCHAR
STARTCHAR 00DE
ENCODING 222
SWIDTH 500 0
DWIDTH 14 0
BBX 11 20 2 1
BITMAP
C000
C000
C000
C000
FE00
FF80
C1C0
C0C0
C0E0
C0E0
C0E0
C0C0
C1C0
FF80
FF00
C000
C000
C000
C000
C000
ENDCHAR
STARTCHAR 00DF
ENCODING 223
SWIDTH 500 0
DWIDTH 14 0
BBX 11 20 2 1
BITMAP
1E00
7F80
6180
E180
C1C0
C1C0
C180
C380
CE00
CF00
C180
C0C0
C0C0
C0E0
C0E0
C0C0
C1C0
CF80
CF00
D000
ENDCHAR
STARTCHAR 00E0
ENCODING 224
SWIDTH 500 0
DWIDTH 14 0
BBX 11 17 2 2
BITMAP
1800
0C00
0000
0000
3E00
7F80
E180
C180
00C0
0FC0
7FC0
E0C0
C0C0
C1C0
C3C0
FFE0
7CE0
ENDCHAR
STARTCHAR 00E1
ENCODING 225
SWIDTH 500 0
DWIDTH 14 0
BBX 11 17 2 2
BITMAP
0600
0C00
0000
0000
3E00
7F80
E180
C180
00C0
0FC0
7FC0
E0C0
C0C0
C1C0
C3C0
FFE0
7CE0
ENDCHAR
STARTCHAR 00E2
ENCODING 226
SWIDTH 500 0
DWIDTH 14 0
BBX 11 17 2 2
BITMAP
1E00
3300
0000
0000
3E00
7F80
E180
C180
00C0
0FC0
7FC0
E0C0
C0C0
C1C0
C3C0
FFE0
7CE0
ENDCHAR
STARTCHAR 00E3
ENCODING 227
SWIDTH 500 0
DWIDTH 14 0
BBX 11 18 2 2
BITMAP
3800
2D00
0700
0000
0000
3E00
7F80
E180
C180
00C0
0FC0
7FC0
E0C0
C0C0
C1C0
C3C0
FFE0
7CE0
ENDCHAR
STARTCHAR 00E4
ENCODING 228
SWIDTH 500 0
DWIDTH 14 0
BBX 11 17 2 2
BITMAP
7380
7380
0000
0000
3E00
7F80
E180
C180
00C0
0FC0
7FC0
E0C0
C0C0
C1C0
C3C0
FFE0
7CE0
ENDCHAR
STARTCHAR 00E5
ENCODING 229
SWIDTH 500 0
DWIDTH 14 0
BBX 11 19 2 2
BITMAP
0C00
1200
1200
1C00
0000
0000
3E00
7F80
E180
C180
00C0
0FC0
7FC0
E0C0
C0C0
C1C0
C3C0
FFE0
7CE0
ENDCHAR
STARTCHAR 00E6
ENCODING 230
SWIDTH 500 0
DWIDTH 14 0
BBX 12 13 1 2
BITMAP
39C0
7FE0
6760
C630
0630
0630
1FF0
7600
4600
C630
C730
FFE0
7DE0
ENDCHAR
STARTCHAR 00E7
ENCODING 231
SWIDTH 500 0
DWIDTH 14 0
BBX 10 18 2 -3
BITMAP
1E00
7F80
7180
E0C0
C000
C000
C000
C000
C000
C0C0
E0C0
6180
7F80
1E00
0800
1E00
0100
1E00
ENDCHAR
STARTCHAR 00E8
ENCODING 232
SWIDTH 500 0
DWIDTH 14 0
BBX 10 17 2 2
BITMAP
1800
0C00
0000
0000
1E00
7F00
6180
E1C0
C0C0
C0C0
FFC0
FFC0
C000
C0C0
61C0
7F80
1F00
ENDCHAR
STARTCHAR 00E9
ENCODING 233
SWIDTH 500 0
DWIDTH 14 0
BBX 10 17 2 2
BITMAP
0600
0C00
0000
0000
1E00
7F00
6180
E1C0
C0C0
C0C0
FFC0
FFC0
C000
C0C0
61C0
7F80
1F00
ENDCHAR
STARTCHAR 00EA
ENCODING 234
SWIDTH 500 0
DWIDTH 14 0
BBX 10 17 2 2
BITMAP
1E00
3300
0000
0000
1E00
7F00
6180
E1C0
C0C0
C0C0
FFC0
FFC0
C000
C0C0
61C0
7F80
1F00
ENDCHAR
STARTCHAR 00EB
ENCODING 235
SWIDTH 500 0
DWIDTH 14 0
BBX 10 17 2 2
BITMAP
7380
7380
0000
0000
1E00
7F00
6180
E1C0
C0C0
C0C0
FFC0
FFC0
C000
C0C0
61C0
7F80
1F00
ENDCHAR
STARTCHAR 00EC
ENCODING 236
SWIDTH 500 0
DWIDTH 14 0
BBX 4 18 4 1
BITMAP
E0
30
00
00
30
30
30
30
30
30
30
30
30
30
30
30
30
30
ENDCHAR
STARTCHAR 00ED
ENCODING 237
SWIDTH 500 0
DWIDTH 14 0
BBX 4 18 6 1
BITMAP
70
C0
00
00
C0
C0
C0
C0
C0
C0
C0
C0
C0
C0
C0
C0
C0
C0
ENDCHAR
STARTCHAR 00EE
ENCODING 238
SWIDTH 500 0
DWIDTH 14 0
BBX 6 18 4 1
BITMAP
78
CC
00
00
30
30
30
30
30
30
30
30
30
30
30
30
30
30
ENDCHAR
STARTCHAR 00EF
ENCODING 239
SWIDTH 500 0
DWIDTH 14 0
BBX 8 18 3 1
BITMAP
E7
E7
00
00
18
18
18
18
18
18
18
18
18
18
18
18
18
18
ENDCHAR
STARTCHAR 00F0
ENCODING 240
SWIDTH 500 0
DWIDTH 14 0
BBX 10 20 2 2
BITMAP
3100
1F00
0E00
1F00
3300
0180
0180
1EC0
7FC0
63C0
E1C0
C0C0
C0C0
C0C0
C0C0
C0C0
E0C0
6180
3F80
1E00
ENDCHAR
STARTCHAR 00F1
ENCODING 241
SWIDTH 500 0
DWIDTH 14 0
BBX 10 19 2 1
BITMAP
3800
2D00
0700
0000
0000
CF00
FF80
F1C0
E0C0
C0C0
C0C0
C0C0
C0C0
C0C0
C0C0
C0C0
C0C0
C0C0
C0C0
ENDCHAR
STARTCHAR 00F2
ENCODING 242
SWIDTH 500 0
DWIDTH 14 0
BBX 10 17 2 2
BITMAP
1800
0C00
0000
0000
1E00
7F80
6180
E0C0
C0C0
C0C0
C0C0
C0C0
C0C0
E1C0
6180
7F80
1E00
ENDCHAR
STARTCHAR 00F3
ENCODING 243
SWIDTH 500 0
DWIDTH 14 0
BBX 10 17 2 2
BITMAP
0600
0C00
0000
0000
1E00
7F80
6180
E0C0
C0C0
C0C0
C0C0
C0C0
C0C0
E1C0
6180
7F80
1E00
ENDCHAR
STARTCHAR 00F4
ENCODING 244
SWIDTH 500 0
DWIDTH 14 0
BBX 10 17 2 2
BITMAP
1E00
3300
0000
0000
1E00
7F80
6180
E0C0
C0C0
C0C0
C0C0
C0C0
C0C0
E1C0
6180
7F80
1E00
ENDCHAR
STARTCHAR 00F5
ENCODING 245
SWIDTH 500 0
DWIDTH 14 0
BBX 10 18 2 2
BITMAP
3800
2D00
0700
0000
0000
1E00
7F80
6180
E0C0
C0C0
C0C0
C0C0
C0C0
C0C0
E1C0
6180
7F80
1E00
ENDCHAR
STARTCHAR 00F6
ENCODING 246
SWIDTH 500 0
DWIDTH 14 0
BBX 10 17 2 2
BITMAP
7380
7380
0000
0000
1E00
7F80
6180
E0C0
C0C0
C0C0
C0C0
C0C0
C0C0
E1C0
6180
7F80
1E00
ENDCHAR
STARTCHAR 00F7
ENCODING 247
SWIDTH 1000 0
DWIDTH 28 0
BBX 20 15 4 3
BITMAP
006000
00F000
006000
000000
000000
000000
FFFFF0
FFFFF0
000000
000000
000000
000000
006000
00F000
006000
ENDCHAR
STARTCHAR 00F8
ENCODING 248
SWIDTH 500 0
DWIDTH 14 0
BBX 10 17 2 0
BITMAP
0040
0040
1F80
7F80
61C0
E2C0
C2C0
C4C0
CCC0
C8C0
D0C0
D1C0
E180
7F80
7E00
8000
8000
ENDCHAR
STARTCHAR 00F9
ENCODING 249
SWIDTH 500 0
DWIDTH 14 0
BBX 10 18 2 1
BITMAP
1800
0C00
0000
0000
C0C0
C0C0
C0C0
C0C0
C0C0
C0C0
C0C0
C0C0
C0C0
C0C0
E3C0
7FC0
3EC0
00C0
ENDCHAR
STARTCHAR 00FA
ENCODING 250
SWIDTH 500 0
DWIDTH 14 0
BBX 10 18 2 1
BITMAP
0600
0C00
0000
0000
C0C0
C0C0
C0C0
C0C0
C0C0
C0C0
C0C0
C0C0
C0C0
C0C0
E3C0
7FC0
3EC0
00C0
ENDCHAR
STARTCHAR 00FB
ENCODING 251
SWIDTH 500 0
DWIDTH 14 0
BBX 10 18 2 1
BITMAP
1E00
3300
0000
0000
C0C0
C0C0
C0C0
C0C0
C0C0
C0C0
C0C0
C0C0
C0C0
C0C0
E3C0
7FC0
3EC0
00C0
ENDCHAR
STARTCHAR 00FC
ENCODING 252
SWIDTH 500 0
DWIDTH 14 0
BBX 10 18 2 1
BITMAP
7380
7380
0000
0000
C0C0
C0C0
C0C0
C0C0
C0C0
C0C0
C0C0
C0C0
C0C0
C0C0
E3C0
7FC0
3EC0
00C0
ENDCHAR
STARTCHAR 00FD
ENCODING 253
SWIDTH 500 0
DWIDTH 14 0
BBX 11 22 2 -3
BITMAP
0700
0C00
0000
0000
C0E0
E0C0
60C0
61C0
7180
3180
3380
3B00
1B00
1F00
0E00
0E00
0C00
0C00
0C00
1800
F800
F000
ENDCHAR
STARTCHAR 00FE
ENCODING 254
SWIDTH 500 0
DWIDTH 14 0
BBX 11 24 2 -3
BITMAP
C000
C000
C000
C000
C000
C000
CF00
FF80
F1C0
E0C0
C0C0
C0E0
C0E0
C0E0
C0C0
E0C0
F1C0
FF80
CF00
C000
C000
C000
C000
C000
ENDCHAR
STARTCHAR 00FF
ENCODING 255
SWIDTH 500 0
DWIDTH 14 0
BBX 11 22 2 -3
BITMAP
7180
7180
0000
0000
C0E0
E0C0
60C0
61C0
7180
3180
3380
3B00
1B00
1F00
0E00
0E00
0C00
0C00
0C00
1800
F800
F000
ENDCHAR
STARTCHAR 0100
ENCODING 256
SWIDTH 500 0
DWIDTH 14 0
BBX 12 23 1 1
BITMAP
3FC0
0000
0000
0F00
0F00
0F00
0F00
1980
1980
1980
1980
39C0
30C0
30C0
3FC0
7FE0
6060
6060
6060
E070
E070
C030
C030
ENDCHAR
STARTCHAR 0101
ENCODING 257
SWIDTH 500 0
DWIDTH 14 0
BBX 11 17 2 2
BITMAP
7F80
0000
0000
0000
3E00
7F80
E180
C180
00C0
0FC0
7FC0
E0C0
C0C0
C1C0
C3C0
FFE0
7CE0
ENDCHAR
STARTCHAR 0102
ENCODING 258
SWIDTH 500 0
DWIDTH 14 0
BBX 12 23 1 1
BITMAP
30C0
0F00
0000
0F00
0F00
0F00
0F00
1980
1980
1980
1980
39C0
30C0
30C0
3FC0
7FE0
6060
6060
6060
E070
E070
C030
C030
ENDCHAR
STARTCHAR 0103
ENCODING 259
SWIDTH 500 0
DWIDTH 14 0
BBX 11 17 2 2
BITMAP
6180
1E00
0000
0000
3E00
7F80
E180
C180
00C0
0FC0
7FC0
E0C0
C0C0
C1C0
C3C0
FFE0
7CE0
ENDCHAR
STARTCHAR 0104
ENCODING 260
SWIDTH 500 0
DWIDTH 14 0
BBX 13 24 1 -3
BITMAP
0F00
0F00
0F00
0F00
1980
1980
1980
1980
39C0
30C0
30C0
3FC0
7FE0
6060
6060
6060
E070
E070
C030
C030
0060
00C0
0088
00F0
ENDCHAR
STARTCHAR 0105
ENCODING 261
SWIDTH 500 0
DWIDTH 14 0
BBX 11 18 2 -3
BITMAP
3E00
7F80
E180
C180
00C0
0FC0
7FC0
E0C0
C0C0
C1C0
C3C0
FFE0
7CE0
0080
0100
0100
0120
01C0
ENDCHAR
STARTCHAR 0106
ENCODING 262
SWIDTH 500 0
DWIDTH 14 0
BBX 12 22 1 2
BITMAP
0300
0600
0000
0F00
1FC0
38C0
70E0
6060
6060
E000
E000
E000
E000
E000
E000
E000
6070
6060
7060
38E0
1FC0
0F80
ENDCHAR
STARTCHAR 0107
ENCODING 263
SWIDTH 500 0
DWIDTH 14 0
BBX 10 17 2 2
BITMAP
0600
0C00
0000
0000
1E00
7F80
6180
E0C0
C000
C000
C000
C000
C000
E0C0
61C0
7F80
1F00
ENDCHAR
STARTCHAR 0108
ENCODING 264
SWIDTH 500 0
DWIDTH 14 0
BBX 12 22 1 2
BITMAP
0F00
1980
0000
0F00
1FC0
38C0
70E0
6060
6060
E000
E000
E000
E000
E000
E000
E000
6070
6060
7060
38E0
1FC0
0F80
ENDCHAR
STARTCHAR 0109
ENCODING 265
SWIDTH 500 0
DWIDTH 14 0
BBX 10 17 2 2
BITMAP
1E00
3300
0000
0000
1E00
7F80
6180
E0C0
C000
C000
C000
C000
C000
E0C0
61C0
7F80
1F00
ENDCHAR
STARTCHAR 010C
ENCODING 268
SWIDTH 500 0
DWIDTH 14 0
BBX 12 22 1 2
BITMAP
1980
0F00
0000
0F00
1FC0
38C0
70E0
6060
6060
E000
E000
E000
E000
E000
E000
E000
6070
6060
7060
38E0
1FC0
0F80
ENDCHAR
STARTCHAR 010D
ENCODING 269
SWIDTH 500 0
DWIDTH 14 0
BBX 10 17 2 2
BITMAP
3300
1E00
0000
0000
1E00
7F80
6180
E0C0
C000
C000
C000
C000
C000
E0C0
61C0
7F80
1F00
ENDCHAR
STARTCHAR 010E
ENCODING 270
SWIDTH 500 0
DWIDTH 14 0
BBX 11 23 2 1
BITMAP
6300
1C00
0000
FC00
FF00
C380
C180
C1C0
C0C0
C0C0
C0E0
C0E0
C0E0
C0E0
C0E0
C0E0
C0C0
C0C0
C1C0
C180
C380
FF00
FC00
ENDCHAR
STARTCHAR 010F
ENCODING 271
SWIDTH 500 0
DWIDTH 14 0
BBX 12 22 1 1
BITMAP
0070
0070
01F0
0190
01B0
01A0
0180
0180
3D80
7F80
6780
C380
C180
C180
C180
C180
C180
C380
6780
7F80
3D80
0180
ENDCHAR
STARTCHAR 0111
ENCODING 273
SWIDTH 500 0
DWIDTH 14 0
BBX 12 20 1 1
BITMAP
0060
0060
0060
03F0
0060
0060
1E60
3FE0
71E0
60E0
E0E0
E060
C060
E060
E0E0
60E0
71E0
7FE0
1E60
0060
ENDCHAR
STARTCHAR 0112
ENCODING 274
SWIDTH 500 0
DWIDTH 14 0
BBX 10 23 2 1
BITMAP
7F80
0000
0000
FFC0
FFC0
C000
C000
C000
C000
C000
C000
FF80
FF80
C000
C000
C000
C000
C000
C000
C000
C000
FFC0
FFC0
ENDCHAR
STARTCHAR 0113
ENCODING 275
SWIDTH 500 0
DWIDTH 14 0
BBX 10 17 2 2
BITMAP
7F80
0000
0000
0000
1E00
7F00
6180
E1C0
C0C0
C0C0
FFC0
FFC0
C000
C0C0
61C0
7F80
1F00
ENDCHAR
STARTCHAR 0118
ENCODING 280
SWIDTH 500 0
DWIDTH 14 0
BBX 10 24 2 -3
BITMAP
FFC0
FFC0
C000
C000
C000
C000
C000
C000
FF80
FF80
C000
C000
C000
C000
C000
C000
C000
C000
FFC0
FFC0
0C00
1800
1000
1E00
ENDCHAR
STARTCHAR 0119
ENCODING 281
SWIDTH 500 0
DWIDTH 14 0
BBX 10 18 2 -3
BITMAP
1E00
7F00
6180
E1C0
C0C0
C0C0
FFC0
FFC0
C000
C0C0
C0C0
6180
3F00
0C00
1800
1000
1200
1E00
ENDCHAR
STARTCHAR 011A
ENCODING 282
SWIDTH 500 0
DWIDTH 14 0
BBX 10 23 2 1
BITMAP
3300
1E00
0000
FFC0
FFC0
C000
C000
C000
C000
C000
C000
FF80
FF80
C000
C000
C000
C000
C000
C000
C000
C000
FFC0
FFC0
ENDCHAR
STARTCHAR 011B
ENCODING 283
SWIDTH 500 0
DWIDTH 14 0
BBX 10 17 2 2
BITMAP
3300
1E00
0000
0000
1E00
7F00
6180
E1C0
C0C0
C0C0
FFC0
FFC0
C000
C0C0
61C0
7F80
1F00
ENDCHAR
STARTCHAR 011C
ENCODING 284
SWIDTH 500 0
DWIDTH 14 0
BBX 12 23 1 1
BITMAP
0F00
1980
0000
0F00
1FC0
38C0
70E0
6060
6060
E000
E000
E000
E000
E1F0
E1F0
E030
6070
6070
7070
38F0
3FB0
0F30
0030
ENDCHAR
STARTCHAR 011D
ENCODING 285
SWIDTH 500 0
DWIDTH 14 0
BBX 11 21 1 -2
BITMAP
0E00
1180
0000
0000
1F60
3FE0
70E0
6060
E060
E060
E060
60E0
71E0
3FE0
1F60
0060
0060
6060
70C0
3FC0
1F00
ENDCHAR
STARTCHAR 0124
ENCODING 292
SWIDTH 500 0
DWIDTH 14 0
BBX 10 23 2 1
BITMAP
1E00
3300
0000
C0C0
C0C0
C0C0
C0C0
C0C0
C0C0
C0C0
C0C0
FFC0
FFC0
C0C0
C0C0
C0C0
C0C0
C0C0
C0C0
C0C0
C0C0
C0C0
C0C0
ENDCHAR
STARTCHAR 0125
ENCODING 293
SWIDTH 500 0
DWIDTH 14 0
BBX 10 23 2 1
BITMAP
1E00
3300
0000
C000
C000
C000
C000
C000
C000
CF00
FF80
F1C0
E0C0
C0C0
C0C0
C0C0
C0C0
C0C0
C0C0
C0C0
C0C0
C0C0
C0C0
ENDCHAR
STARTCHAR 0127
ENCODING 295
SWIDTH 500 0
DWIDTH 14 0
BBX 11 20 1 1
BITMAP
6000
6000
6000
FC00
6000
6000
6780
7FC0
78E0
7060
7060
6060
6060
6060
6060
6060
6060
6060
6060
6060
ENDCHAR
STARTCHAR 012A
ENCODING 298
SWIDTH 500 0
DWIDTH 14 0
BBX 8 23 3 1
BITMAP
FF
00
00
18
18
18
18
18
18
18
18
18
18
18
18
18
18
18
18
18
18
18
18
ENDCHAR
STARTCHAR 012B
ENCODING 299
SWIDTH 500 0
DWIDTH 14 0
BBX 8 18 3 1
BITMAP
FF
00
00
00
18
18
18
18
18
18
18
18
18
18
18
18
18
18
ENDCHAR
STARTCHAR 0134
ENCODING 308
SWIDTH 500 0
DWIDTH 14 0
BBX 12 22 1 2
BITMAP
01E0
0330
0000
00C0
00C0
00C0
00C0
00C0
00C0
00C0
00C0
00C0
00C0
00C0
00C0
00C0
00C0
E0C0
E0C0
71C0
7F80
1F00
ENDCHAR
STARTCHAR 0135
ENCODING 309
SWIDTH 500 0
DWIDTH 14 0
BBX 8 21 3 -2
BITMAP
1C
23
00
00
0C
0C
0C
0C
0C
0C
0C
0C
0C
0C
0C
0C
0C
0C
0C
FC
F8
ENDCHAR
STARTCHAR 0139
ENCODING 313
SWIDTH 500 0
DWIDTH 14 0
BBX 11 23 2 1
BITMAP
0600
0C00
0000
C000
C000
C000
C000
C000
C000
C000
C000
C000
C000
C000
C000
C000
C000
C000
C000
C000
C000
FFE0
FFE0
ENDCHAR
STARTCHAR 013A
ENCODING 314
SWIDTH 500 0
DWIDTH 14 0
BBX 3 23 6 1
BITMAP
60
C0
00
C0
C0
C0
C0
C0
C0
C0
C0
C0
C0
C0
C0
C0
C0
C0
C0
C0
C0
C0
C0
ENDCHAR
STARTCHAR 013D
ENCODING 317
SWIDTH 500 0
DWIDTH 14 0
BBX 11 22 2 1
BITMAP
0700
0700
C700
C300
C200
C600
C000
C000
C000
C000
C000
C000
C000
C000
C000
C000
C000
C000
C000
C000
FFE0
FFE0
ENDCHAR
STARTCHAR 013E
ENCODING 318
SWIDTH 500 0
DWIDTH 14 0
BBX 6 22 6 1
BITMAP
0C
0C
CC
C4
CC
C8
C0
C0
C0
C0
C0
C0
C0
C0
C0
C0
C0
C0
C0
C0
C0
C0
ENDCHAR
STARTCHAR 0141
ENCODING 321
SWIDTH 500 0
DWIDTH 14 0
BBX 12 20 1 1
BITMAP
3000
3000
3000
3000
3000
3000
3600
3C00
3800
3000
7000
F000
B000
3000
3000
3000
3000
3000
3FF0
3FF0
ENDCHAR
STARTCHAR 0142
ENCODING 322
SWIDTH 500 0
DWIDTH 14 0
BBX 8 20 3 1
BITMAP
18
18
18
18
18
18
1B
1E
1C
18
38
78
D8
98
18
18
18
18
18
18
ENDCHAR
STARTCHAR 0143
ENCODING 323
SWIDTH 500 0
DWIDTH 14 0
BBX 10 23 2 1
BITMAP
0600
0C00
0000
E0C0
E0C0
E0C0
F0C0
F0C0
D0C0
D8C0
D8C0
CCC0
CCC0
CCC0
C6C0
C6C0
C6C0
C3C0
C3C0
C3C0
C1C0
C1C0
C0C0
ENDCHAR
STARTCHAR 0144
ENCODING 324
SWIDTH 500 0
DWIDTH 14 0
BBX 10 18 2 1
BITMAP
0600
0C00
0000
0000
CF00
FF80
F1C0
E0C0
C0C0
C0C0
C0C0
C0C0
C0C0
C0C0
C0C0
C0C0
C0C0
C0C0
ENDCHAR
STARTCHAR 0147
ENCODING 327
SWIDTH 500 0
DWIDTH 14 0
BBX 10 23 2 1
BITMAP
3300
1E00
0000
E0C0
E0C0
E0C0
F0C0
F0C0
D0C0
D8C0
D8C0
CCC0
CCC0
CCC0
C6C0
C6C0
C6C0
C3C0
C3C0
C3C0
C1C0
C1C0
C0C0
ENDCHAR
STARTCHAR 0148
ENCODING 328
SWIDTH 500 0
DWIDTH 14 0
BBX 10 18 2 1
BITMAP
3300
1E00
0000
0000
CF00
FF80
F1C0
E0C0
C0C0
C0C0
C0C0
C0C0
C0C0
C0C0
C0C0
C0C0
C0C0
C0C0
ENDCHAR
STARTCHAR 014B
ENCODING 331
SWIDTH 500 0
DWIDTH 14 0
BBX 10 18 2 -3
BITMAP
CF00
FF80
F1C0
E0C0
C0C0
C0C0
C0C0
C0C0
C0C0
C0C0
C0C0
C0C0
C0C0
C0C0
00C0
00C0
07C0
0780
ENDCHAR
STARTCHAR 014C
ENCODING 332
SWIDTH 500 0
DWIDTH 14 0
BBX 12 22 1 2
BITMAP
3FC0
0000
0000
0F00
1F80
31C0
70E0
6060
6060
E060
E070
E070
E070
E070
E070
E070
6060
6060
70E0
30C0
1F80
0F00
ENDCHAR
STARTCHAR 014D
ENCODING 333
SWIDTH 500 0
DWIDTH 14 0
BBX 10 17 2 2
BITMAP
7F80
0000
0000
0000
1E00
7F80
6180
E0C0
C0C0
C0C0
C0C0
C0C0
C0C0
E1C0
6180
7F80
1E00
ENDCHAR
STARTCHAR 0150
ENCODING 336
SWIDTH 500 0
DWIDTH 14 0
BBX 12 22 1 2
BITMAP
0EC0
1900
0000
0F00
1F80
30C0
70E0
6060
6060
E070
E070
E070
E070
E070
E070
E070
6060
6060
70E0
30C0
3F80
0F00
ENDCHAR
STARTCHAR 0151
ENCODING 337
SWIDTH 500 0
DWIDTH 14 0
BBX 10 17 2 2
BITMAP
0DC0
1300
0000
0000
1E00
7F80
6180
E0C0
C0C0
C0C0
C0C0
C0C0
C0C0
E1C0
6180
7F80
1E00
ENDCHAR
STARTCHAR 0152
ENCODING 338
SWIDTH 500 0
DWIDTH 14 0
BBX 12 20 1 1
BITMAP
1FF0
3FF0
3300
6300
6300
6300
E300
C300
C3F0
C3F0
C300
C300
C300
4300
6300
6300
2300
3F00
1FF0
03F0
ENDCHAR
STARTCHAR 0153
ENCODING 339
SWIDTH 500 0
DWIDTH 14 0
BBX 12 14 1 1
BITMAP
39C0
7FE0
6F60
C630
C630
C630
C7F0
C600
C600
C630
C630
6F30
7FE0
39C0
ENDCHAR
STARTCHAR 0154
ENCODING 340
SWIDTH 500 0
DWIDTH 14 0
BBX 11 23 2 1
BITMAP
0600
0C00
0000
FF00
FF80
C1C0
C0C0
C0E0
C0E0
C0C0
C1C0
FF80
FE00
C600
C700
C300
C300
C380
C180
C1C0
C0C0
C0C0
C0E0
ENDCHAR
STARTCHAR 0155
ENCODING 341
SWIDTH 500 0
DWIDTH 14 0
BBX 7 18 4 1
BITMAP
18
30
00
00
C6
CE
DC
F0
E0
C0
C0
C0
C0
C0
C0
C0
C0
C0
ENDCHAR
STARTCHAR 0158
ENCODING 344
SWIDTH 500 0
DWIDTH 14 0
BBX 11 23 2 1
BITMAP
6300
1C00
0000
FF00
FF80
C1C0
C0C0
C0E0
C0E0
C0C0
C1C0
FF80
FE00
C600
C700
C300
C300
C380
C180
C1C0
C0C0
C0C0
C0E0
ENDCHAR
STARTCHAR 0159
ENCODING 345
SWIDTH 500 0
DWIDTH 14 0
BBX 7 18 4 1
BITMAP
CC
78
00
00
C6
CE
DC
F0
E0
C0
C0
C0
C0
C0
C0
C0
C0
C0
ENDCHAR
STARTCHAR 015A
ENCODING 346
SWIDTH 500 0
DWIDTH 14 0
BBX 12 22 1 2
BITMAP
0300
0600
0000
0F00
3FC0
70E0
6060
6060
6000
7000
3800
1E00
0700
01C0
00E0
0060
0070
E070
6070
70E0
3FC0
1F80
ENDCHAR
STARTCHAR 015B
ENCODING 347
SWIDTH 500 0
DWIDTH 14 0
BBX 10 17 2 2
BITMAP
0600
0C00
0000
0000
3E00
7F80
E180
C0C0
6000
3800
0F00
0180
00C0
C0C0
E1C0
7F80
3F00
ENDCHAR
STARTCHAR 015C
ENCODING 348
SWIDTH 500 0
DWIDTH 14 0
BBX 12 22 1 2
BITMAP
0F00
1980
0000
0F00
3FC0
70E0
6060
6060
6000
7000
3800
1C00
0700
0180
00E0
0060
0070
E070
6070
70E0
3FE0
1FC0
ENDCHAR
STARTCHAR 015D
ENCODING 349
SWIDTH 500 0
DWIDTH 14 0
BBX 10 17 2 2
BITMAP
1E00
3300
0000
0000
3E00
7F80
E180
C0C0
6000
3800
0F00
0180
00C0
C0C0
E1C0
7F80
3F00
ENDCHAR
STARTCHAR 015E
ENCODING 350
SWIDTH 500 0
DWIDTH 14 0
BBX 12 24 1 -3
BITMAP
1F00
3FC0
70E0
6060
6060
6000
3000
3C00
0E00
0380
00C0
0060
0070
E070
6070
70E0
3FE0
0F80
0000
0700
0700
0700
0200
0600
ENDCHAR
STARTCHAR 015F
ENCODING 351
SWIDTH 500 0
DWIDTH 14 0
BBX 10 18 2 -3
BITMAP
3F00
7F80
E1C0
C000
7000
1C00
0380
00C0
C0C0
E1C0
7FC0
3F00
0000
0E00
0E00
0E00
0400
0C00
ENDCHAR
STARTCHAR 0160
ENCODING 352
SWIDTH 500 0
DWIDTH 14 0
BBX 12 22 1 2
BITMAP
1980
0F00
0000
0F00
3FC0
70E0
6060
6060
6000
7000
3800
1E00
0700
01C0
00E0
0060
0070
E070
6070
70E0
3FC0
1F80
ENDCHAR
STARTCHAR 0161
ENCODING 353
SWIDTH 500 0
DWIDTH 14 0
BBX 10 17 2 2
BITMAP
3300
1E00
0000
0000
3E00
7F80
E180
C0C0
6000
3800
0F00
0180
00C0
C0C0
E1C0
7F80
3F00
ENDCHAR
STARTCHAR 0162
ENCODING 354
SWIDTH 500 0
DWIDTH 14 0
BBX 12 24 1 -3
BITMAP
FFF0
FFF0
0600
0600
0600
0600
0600
0600
0600
0600
0600
0600
0600
0600
0600
0600
0600
0600
0000
0E00
0E00
0E00
0200
0400
ENDCHAR
STARTCHAR 0163
ENCODING 355
SWIDTH 500 0
DWIDTH 14 0
BBX 8 21 3 -3
BITMAP
38
38
38
FF
FF
38
38
38
38
38
38
38
38
1F
1F
00
1C
1C
1C
0C
18
ENDCHAR
STARTCHAR 0164
ENCODING 356
SWIDTH 500 0
DWIDTH 14 0
BBX 12 23 1 1
BITMAP
1980
0F00
0000
FFF0
FFF0
0600
0600
0600
0600
0600
0600
0600
0600
0600
0600
0600
0600
0600
0600
0600
0600
0600
0600
ENDCHAR
STARTCHAR 0165
ENCODING 357
SWIDTH 500 0
DWIDTH 14 0
BBX 9 21 3 2
BITMAP
0380
0380
0380
0180
0180
3B00
3800
3800
FF00
FF00
3800
3800
3800
3800
3800
3800
3800
3800
3800
1F00
1F00
ENDCHAR
STARTCHAR 016A
ENCODING 362
SWIDTH 500 0
DWIDTH 14 0
BBX 10 22 2 2
BITMAP
7F80
0000
0000
C0C0
C0C0
C0C0
C0C0
C0C0
C0C0
C0C0
C0C0
C0C0
C0C0
C0C0
C0C0
C0C0
C0C0
C0C0
C0C0
E1C0
7F80
3F00
ENDCHAR
STARTCHAR 016B
ENCODING 363
SWIDTH 500 0
DWIDTH 14 0
BBX 10 18 2 1
BITMAP
7F80
0000
0000
0000
C0C0
C0C0
C0C0
C0C0
C0C0
C0C0
C0C0
C0C0
C0C0
C0C0
E3C0
7FC0
3EC0
00C0
ENDCHAR
STARTCHAR 016C
ENCODING 364
SWIDTH 500 0
DWIDTH 14 0
BBX 10 22 2 2
BITMAP
6180
1E00
0000
C0C0
C0C0
C0C0
C0C0
C0C0
C0C0
C0C0
C0C0
C0C0
C0C0
C0C0
C0C0
C0C0
C0C0
C0C0
C0C0
E1C0
7F80
3F00
ENDCHAR
STARTCHAR 016D
ENCODING 365
SWIDTH 500 0
DWIDTH 14 0
BBX 10 18 2 1
BITMAP
6180
1E00
0000
0000
C0C0
C0C0
C0C0
C0C0
C0C0
C0C0
C0C0
C0C0
C0C0
C0C0
E3C0
7FC0
3EC0
00C0
ENDCHAR
STARTCHAR 016E
ENCODING 366
SWIDTH 500 0
DWIDTH 14 0
BBX 10 22 2 2
BITMAP
0E00
1200
1E00
C0C0
C0C0
C0C0
C0C0
C0C0
C0C0
C0C0
C0C0
C0C0
C0C0
C0C0
C0C0
C0C0
C0C0
C0C0
C0C0
E1C0
7F80
3F00
ENDCHAR
STARTCHAR 016F
ENCODING 367
SWIDTH 500 0
DWIDTH 14 0
BBX 10 20 2 1
BITMAP
0C00
1200
1200
1C00
0000
0000
C0C0
C0C0
C0C0
C0C0
C0C0
C0C0
C0C0
C0C0
C0C0
C0C0
E3C0
7FC0
3EC0
00C0
ENDCHAR
STARTCHAR 0170
ENCODING 368
SWIDTH 500 0
DWIDTH 14 0
BBX 10 22 2 2
BITMAP
1D80
3200
0000
C0C0
C0C0
C0C0
C0C0
C0C0
C0C0
C0C0
C0C0
C0C0
C0C0
C0C0
C0C0
C0C0
C0C0
C0C0
C0C0
E1C0
7F80
3F00
ENDCHAR
STARTCHAR 0171
ENCODING 369
SWIDTH 500 0
DWIDTH 14 0
BBX 10 18 2 1
BITMAP
0D80
1300
0000
0000
C0C0
C0C0
C0C0
C0C0
C0C0
C0C0
C0C0
C0C0
C0C0
C0C0
E3C0
7FC0
3EC0
00C0
ENDCHAR
STARTCHAR 0179
ENCODING 377
SWIDTH 500 0
DWIDTH 14 0
BBX 10 23 2 1
BITMAP
0600
0C00
0000
FFC0
FFC0
01C0
0180
0380
0300
0700
0600
0E00
0C00
1C00
1800
3800
3000
7000
6000
E000
E000
FFC0
FFC0
ENDCHAR
STARTCHAR 017A
ENCODING 378
SWIDTH 500 0
DWIDTH 14 0
BBX 10 18 2 1
BITMAP
0600
0C00
0000
0000
7FC0
7FC0
0180
0300
0700
0600
0C00
1C00
3800
3000
7000
E000
FFC0
FFC0
ENDCHAR
STARTCHAR 017B
ENCODING 379
SWIDTH 500 0
DWIDTH 14 0
BBX 10 23 2 1
BITMAP
0C00
0C00
0000
FFC0
FFC0
01C0
0180
0380
0300
0700
0600
0E00
0C00
1C00
1800
3800
3000
7000
6000
E000
E000
FFC0
FFC0
ENDCHAR
STARTCHAR 017C
ENCODING 380
SWIDTH 500 0
DWIDTH 14 0
BBX 10 18 2 1
BITMAP
0C00
0C00
0000
0000
7FC0
7FC0
0180
0300
0700
0600
0C00
1C00
3800
3000
7000
E000
FFC0
FFC0
ENDCHAR
STARTCHAR 017D
ENCODING 381
SWIDTH 500 0
DWIDTH 14 0
BBX 10 23 2 1
BITMAP
3300
1E00
0000
FFC0
FFC0
01C0
0180
0380
0300
0700
0600
0E00
0C00
1C00
1800
3800
3000
7000
6000
E000
E000
FFC0
FFC0
ENDCHAR
STARTCHAR 017E
ENCODING 382
SWIDTH 500 0
DWIDTH 14 0
BBX 10 18 2 1
BITMAP
3300
1E00
0000
0000
7FC0
7FC0
0180
0300
0700
0600
0C00
1C00
3800
3000
7000
E000
FFC0
FFC0
ENDCHAR
STARTCHAR 0193
ENCODING 403
SWIDTH 500 0
DWIDTH 14 0
BBX 13 22 1 1
BITMAP
0078
0078
1F40
3FC0
71C0
60C0
60C0
E0C0
E000
C000
C000
C000
C3E0
C3E0
E060
E060
60E0
60E0
71E0
3FE0
1E60
0060
ENDCHAR
STARTCHAR 01C2
ENCODING 450
SWIDTH 500 0
DWIDTH 14 0
BBX 10 24 2 -3
BITMAP
0C00
0C00
0C00
0C00
0C00
FFC0
FFC0
0C00
0C00
0C00
0C00
0C00
0C00
0C00
0C00
FFC0
FFC0
0C00
0C00
0C00
0C00
0C00
0C00
0C00
ENDCHAR
STARTCHAR 01CD
ENCODING 461
SWIDTH 1000 0
DWIDTH 28 0
BBX 18 23 5 1
BITMAP
061800
01E000
000000
01E000
01E000
03F000
033000
033000
073800
061800
0E1C00
0E1C00
0C0C00
1C0E00
1FFE00
1FFE00
380700
300300
700380
700380
600180
E001C0
E001C0
ENDCHAR
STARTCHAR 01CE
ENCODING 462
SWIDTH 1000 0
DWIDTH 28 0
BBX 14 17 7 2
BITMAP
1860
0780
0000
0000
0FC0
3FE0
7870
7030
0038
07F8
3FF8
7038
6038
E038
E0F8
7FDC
3F1C
ENDCHAR
STARTCHAR 01D0
ENCODING 464
SWIDTH 1000 0
DWIDTH 28 0
BBX 8 18 10 1
BITMAP
C3
3C
00
00
18
18
18
18
18
18
18
18
18
18
18
18
18
18
ENDCHAR
STARTCHAR 01D1
ENCODING 465
SWIDTH 1000 0
DWIDTH 28 0
BBX 18 22 5 2
BITMAP
061800
01E000
000000
03F000
0FFC00
1E1E00
380700
700380
600180
E001C0
E001C0
E001C0
E001C0
E001C0
E001C0
E001C0
600180
700380
380700
1C1E00
0FFC00
03F000
ENDCHAR
STARTCHAR 01D2
ENCODING 466
SWIDTH 1000 0
DWIDTH 28 0
BBX 14 17 7 2
BITMAP
1860
0780
0000
0FC0
1FE0
3870
7038
E01C
E01C
C00C
C00C
E01C
E01C
7038
7870
3FF0
0FC0
ENDCHAR
STARTCHAR 01D4
ENCODING 468
SWIDTH 1000 0
DWIDTH 28 0
BBX 12 18 8 1
BITMAP
30C0
0F00
0000
0000
E030
E030
E030
E030
E030
E030
E030
E030
E070
E070
E1F0
7FB0
3F30
0030
ENDCHAR
STARTCHAR 01D6
ENCODING 470
SWIDTH 1000 0
DWIDTH 28 0
BBX 12 20 8 1
BITMAP
7FE0
7FE0
70E0
70E0
0000
0000
E030
E030
E030
E030
E030
E030
E030
E030
E070
E070
E1F0
7FB0
3F30
0030
ENDCHAR
STARTCHAR 01D8
ENCODING 472
SWIDTH 1000 0
DWIDTH 28 0
BBX 12 20 8 1
BITMAP
0380
0600
70E0
70E0
0000
0000
E030
E030
E030
E030
E030
E030
E030
E030
E070
E070
E1F0
7FB0
3F30
0030
ENDCHAR
STARTCHAR 01DA
ENCODING 474
SWIDTH 1000 0
DWIDTH 28 0
BBX 12 20 8 1
BITMAP
1880
0F00
30E0
30E0
0000
0000
E030
E030
E030
E030
E030
E030
E030
E030
E070
E070
E1F0
7FB0
3F30
0030
ENDCHAR
STARTCHAR 01DC
ENCODING 476
SWIDTH 1000 0
DWIDTH 28 0
BBX 12 20 8 1
BITMAP
1C00
0600
70E0
70E0
0000
0000
E030
E030
E030
E030
E030
E030
E030
E030
E070
E070
E1F0
7FB0
3F30
0030
ENDCHAR
STARTCHAR 01F8
ENCODING 504
SWIDTH 500 0
DWIDTH 14 0
BBX 10 23 2 1
BITMAP
1800
0C00
0000
E0C0
E0C0
E0C0
F0C0
F0C0
D0C0
D8C0
D8C0
CCC0
CCC0
CCC0
C6C0
C6C0
C6C0
C3C0
C3C0
C3C0
C1C0
C1C0
C0C0
ENDCHAR
STARTCHAR 01F9
ENCODING 505
SWIDTH 500 0
DWIDTH 14 0
BBX 10 18 2 1
BITMAP
1800
0C00
0000
0000
CF00
FF80
F1C0
E0C0
C0C0
C0C0
C0C0
C0C0
C0C0
C0C0
C0C0
C0C0
C0C0
C0C0
ENDCHAR
STARTCHAR 01FD
ENCODING 509
SWIDTH 500 0
DWIDTH 14 0
BBX 12 17 1 2
BITMAP
0300
0600
0000
0000
39C0
7FE0
6760
C630
0630
0630
1FF0
7600
4600
C630
C730
FFE0
7DE0
ENDCHAR
STARTCHAR 0250
ENCODING 592
SWIDTH 500 0
DWIDTH 14 0
BBX 11 13 1 2
BITMAP
E7C0
EFE0
7860
7060
7060
6060
61C0
7F80
7E00
6000
30E0
3FC0
1F80
ENDCHAR
STARTCHAR 0251
ENCODING 593
SWIDTH 500 0
DWIDTH 14 0
BBX 12 13 1 1
BITMAP
0F60
3FE0
70E0
60E0
6060
E060
E060
E060
6060
60E0
70E0
3FF0
1F70
ENDCHAR
STARTCHAR 0252
ENCODING 594
SWIDTH 500 0
DWIDTH 14 0
BBX 12 14 1 1
BITMAP
CF80
FFC0
70E0
7060
6060
6070
6070
6070
6060
6060
70E0
7FC0
6F00
6000
ENDCHAR
STARTCHAR 0253
ENCODING 595
SWIDTH 500 0
DWIDTH 14 0
BBX 11 20 2 1
BITMAP
1F00
7F80
61C0
C0C0
C000
C000
CF00
FF80
F1C0
E0C0
C0C0
C0E0
C0E0
C0E0
C0C0
E0C0
F1C0
FF80
DF00
C000
ENDCHAR
STARTCHAR 0254
ENCODING 596
SWIDTH 500 0
DWIDTH 14 0
BBX 10 13 2 2
BITMAP
3E00
7F80
E180
C1C0
00C0
00C0
00C0
00C0
00C0
C1C0
E180
7F80
3E00
ENDCHAR
STARTCHAR 0255
ENCODING 597
SWIDTH 500 0
DWIDTH 14 0
BBX 10 15 2 0
BITMAP
1E00
7F80
6180
E0C0
C000
C000
C380
CFC0
DCC0
D8C0
F1C0
7F80
FE00
C000
8000
ENDCHAR
STARTCHAR 0256
ENCODING 598
SWIDTH 500 0
DWIDTH 14 0
BBX 13 23 1 -2
BITMAP
00C0
00C0
00C0
00C0
00C0
00C0
1EC0
3FC0
63C0
E1C0
C0C0
C0C0
C0C0
C0C0
C0C0
E1C0
73C0
7FC0
1EC0
00C0
00C0
00F8
0078
ENDCHAR
STARTCHAR 0257
ENCODING 599
SWIDTH 500 0
DWIDTH 14 0
BBX 13 20 1 1
BITMAP
0078
00F8
00C0
00C0
00C0
00C0
1EC0
3FC0
63C0
E1C0
C0C0
C0C0
C0C0
C0C0
C0C0
E1C0
73C0
7FC0
1EC0
00C0
ENDCHAR
STARTCHAR 0258
ENCODING 600
SWIDTH 500 0
DWIDTH 14 0
BBX 10 13 2 2
BITMAP
1E00
7F80
6180
E1C0
C0C0
C0C0
FFC0
FFC0
00C0
C0C0
E180
7F80
3E00
ENDCHAR
STARTCHAR 0259
ENCODING 601
SWIDTH 500 0
DWIDTH 14 0
BBX 10 13 2 2
BITMAP
3E00
7F80
E180
C1C0
00C0
00C0
00C0
FFC0
FFC0
C0C0
E180
7F80
3E00
ENDCHAR
STARTCHAR 025A
ENCODING 602
SWIDTH 500 0
DWIDTH 14 0
BBX 12 13 1 2
BITMAP
1C00
7E00
6700
C300
C3C0
03C0
0FF0
3DB0
F180
C300
6300
7E00
3C00
ENDCHAR
STARTCHAR 025C
ENCODING 604
SWIDTH 500 0
DWIDTH 14 0
BBX 10 13 2 2
BITMAP
1F00
7F80
E1C0
00C0
00C0
0180
1F00
1F80
00C0
00C0
E0C0
7FC0
3F00
ENDCHAR
STARTCHAR 025E
ENCODING 606
SWIDTH 500 0
DWIDTH 14 0
BBX 10 13 2 2
BITMAP
1F80
3FC0
70C0
C0C0
C0C0
C0C0
CF80
CF80
C0C0
C0C0
70C0
7FC0
1F80
ENDCHAR
STARTCHAR 025F
ENCODING 607
SWIDTH 500 0
DWIDTH 14 0
BBX 10 18 2 -3
BITMAP
0C00
0C00
0C00
0C00
0C00
0C00
0C00
0C00
0C00
FFC0
FFC0
0C00
0C00
0C00
0C00
0C00
FC00
F800
ENDCHAR
STARTCHAR 0260
ENCODING 608
SWIDTH 500 0
DWIDTH 14 0
BBX 13 23 1 -2
BITMAP
0078
00F8
00C0
00C0
00C0
00C0
1EC0
7FC0
61C0
E1C0
C0C0
C0C0
C0C0
C1C0
61C0
7FC0
1EC0
00C0
00C0
C0C0
6180
7F80
1F00
ENDCHAR
STARTCHAR 0261
ENCODING 609
SWIDTH 500 0
DWIDTH 14 0
BBX 11 17 1 -2
BITMAP
1F60
3FE0
70E0
6060
E060
E060
E060
60E0
71E0
3FE0
1F60
0060
0060
6060
70C0
3FC0
1F00
ENDCHAR
STARTCHAR 0264
ENCODING 612
SWIDTH 500 0
DWIDTH 14 0
BBX 12 13 1 2
BITMAP
E070
F0F0
1980
0F00
0F00
0600
0E00
0F00
0F00
1980
1980
0F00
0F00
ENDCHAR
STARTCHAR 0265
ENCODING 613
SWIDTH 500 0
DWIDTH 14 0
BBX 10 18 2 -3
BITMAP
C0C0
C0C0
C0C0
C0C0
C0C0
C0C0
C0C0
C0C0
C0C0
C1C0
E3C0
7FC0
3CC0
00C0
00C0
00C0
00C0
00C0
ENDCHAR
STARTCHAR 0266
ENCODING 614
SWIDTH 500 0
DWIDTH 14 0
BBX 10 20 2 1
BITMAP
1E00
7F80
61C0
C0C0
C000
C000
CF00
FF80
F1C0
E0C0
C0C0
C0C0
C0C0
C0C0
C0C0
C0C0
C0C0
C0C0
C0C0
C0C0
ENDCHAR
STARTCHAR 0267
ENCODING 615
SWIDTH 500 0
DWIDTH 14 0
BBX 10 24 2 -3
BITMAP
1E00
7F80
61C0
C0C0
C000
C000
CF00
FF80
F1C0
E0C0
C0C0
C0C0
C0C0
C0C0
C0C0
C0C0
C0C0
C0C0
C0C0
C0C0
00C0
00C0
07C0
0780
ENDCHAR
STARTCHAR 0268
ENCODING 616
SWIDTH 500 0
DWIDTH 14 0
BBX 8 20 3 1
BITMAP
18
18
18
00
00
00
18
18
18
18
18
FF
18
18
18
18
18
18
18
18
ENDCHAR
STARTCHAR 026C
ENCODING 620
SWIDTH 500 0
DWIDTH 14 0
BBX 9 20 2 1
BITMAP
0C00
0C00
0C00
0C00
0C00
0C00
7C00
8C00
8C00
EC00
3F80
0C00
0C00
0C00
0C00
0C00
0C00
0C00
0C00
0C00
ENDCHAR
STARTCHAR 026D
ENCODING 621
SWIDTH 500 0
DWIDTH 14 0
BBX 6 24 6 -3
BITMAP
C0
C0
C0
C0
C0
C0
C0
C0
C0
C0
C0
C0
C0
C0
C0
C0
C0
C0
C0
C0
C0
C0
FC
7C
ENDCHAR
STARTCHAR 026E
ENCODING 622
SWIDTH 500 0
DWIDTH 14 0
BBX 11 24 2 -3
BITMAP
C000
C000
C000
C000
C000
C000
FFC0
FFC0
C1C0
C380
C600
DC00
FF00
DFC0
C1C0
C0E0
C060
C060
C060
C060
00C0
31C0
3F80
1F00
ENDCHAR
STARTCHAR 026F
ENCODING 623
SWIDTH 500 0
DWIDTH 14 0
BBX 12 14 1 1
BITMAP
C630
C630
C630
C630
C630
C630
C630
C630
C630
C630
C670
FFF0
7BB0
0030
ENDCHAR
STARTCHAR 0270
ENCODING 624
SWIDTH 500 0
DWIDTH 14 0
BBX 12 18 1 -3
BITMAP
C630
C630
C630
C630
C630
C630
C630
C630
C630
C630
C670
FFF0
7BB0
0030
0030
0030
0030
0030
ENDCHAR
STARTCHAR 0271
ENCODING 625
SWIDTH 500 0
DWIDTH 14 0
BBX 12 18 1 -3
BITMAP
DDE0
FFF0
E730
C630
C630
C630
C630
C630
C630
C630
C630
C630
C630
C630
0030
0030
01F0
01E0
ENDCHAR
STARTCHAR 0272
ENCODING 626
SWIDTH 500 0
DWIDTH 14 0
BBX 12 18 0 -3
BITMAP
19E0
1FF0
1E30
1C30
1830
1830
1830
1830
1830
1830
1830
1830
1830
1830
1800
1800
F800
F000
ENDCHAR
STARTCHAR 0273
ENCODING 627
SWIDTH 500 0
DWIDTH 14 0
BBX 12 18 2 -3
BITMAP
9E00
BF00
E300
C180
C180
C180
C180
C180
C180
C180
C180
C180
C180
C180
0180
0180
01F0
00F0
ENDCHAR
STARTCHAR 0275
ENCODING 629
SWIDTH 500 0
DWIDTH 14 0
BBX 10 13 2 2
BITMAP
1E00
7F80
6180
E1C0
C0C0
C0C0
FFC0
FFC0
C0C0
C0C0
6180
7F80
1E00
ENDCHAR
STARTCHAR 0279
ENCODING 633
SWIDTH 500 0
DWIDTH 14 0
BBX 7 14 3 0
BITMAP
06
06
06
06
06
06
06
06
06
0E
1E
76
E6
C6
ENDCHAR
STARTCHAR 027A
ENCODING 634
SWIDTH 500 0
DWIDTH 14 0
BBX 7 20 3 0
BITMAP
06
06
06
06
06
06
06
06
06
06
06
06
06
06
06
0E
1E
76
E6
C6
ENDCHAR
STARTCHAR 027B
ENCODING 635
SWIDTH 500 0
DWIDTH 14 0
BBX 10 17 3 -2
BITMAP
0600
0600
0600
0600
0600
0600
0600
0600
0E00
1E00
3E00
F600
C600
8600
0600
07C0
03C0
ENDCHAR
STARTCHAR 027D
ENCODING 637
SWIDTH 500 0
DWIDTH 14 0
BBX 7 17 4 -1
BITMAP
C6
CE
FC
F0
E0
C0
C0
C0
C0
C0
C0
C0
C0
C0
C0
FC
7C
ENDCHAR
STARTCHAR 027E
ENCODING 638
SWIDTH 500 0
DWIDTH 14 0
BBX 6 14 5 1
BITMAP
7C
FC
C0
C0
C0
C0
C0
C0
C0
C0
C0
C0
C0
C0
ENDCHAR
STARTCHAR 0281
ENCODING 641
SWIDTH 500 0
DWIDTH 14 0
BBX 11 14 2 1
BITMAP
C060
C0E0
C1C0
C180
C380
C300
FF00
FF80
C0C0
C0C0
C0C0
C0C0
FFC0
FF00
ENDCHAR
STARTCHAR 0282
ENCODING 642
SWIDTH 500 0
DWIDTH 14 0
BBX 10 17 2 -2
BITMAP
3E00
7F80
E180
C1C0
6000
3800
0F00
0180
00C0
C0C0
E1C0
FF80
FF00
C000
C000
F000
7000
ENDCHAR
STARTCHAR 0283
ENCODING 643
SWIDTH 500 0
DWIDTH 14 0
BBX 8 24 3 -3
BITMAP
0F
1F
18
18
18
18
18
18
18
18
18
18
18
18
18
18
18
18
18
18
18
18
F8
F0
ENDCHAR
STARTCHAR 0284
ENCODING 644
SWIDTH 500 0
DWIDTH 14 0
BBX 8 23 3 -2
BITMAP
0F
1F
18
18
18
18
18
18
18
18
18
18
18
18
18
FF
FF
18
18
18
18
F8
F0
ENDCHAR
STARTCHAR 0288
ENCODING 648
SWIDTH 500 0
DWIDTH 14 0
BBX 8 20 3 -2
BITMAP
38
38
38
FF
FF
38
38
38
38
38
38
38
38
38
38
38
38
38
1F
1F
ENDCHAR
STARTCHAR 0289
ENCODING 649
SWIDTH 500 0
DWIDTH 14 0
BBX 12 14 1 1
BITMAP
6060
6060
6060
6060
6060
FFF0
6060
6060
6060
6060
71E0
3FE0
1F60
0060
ENDCHAR
STARTCHAR 028A
ENCODING 650
SWIDTH 500 0
DWIDTH 14 0
BBX 12 13 1 2
BITMAP
F9F0
F9F0
1980
30C0
6060
6060
6060
6060
6060
6060
70E0
3FC0
1F80
ENDCHAR
STARTCHAR 028B
ENCODING 651
SWIDTH 500 0
DWIDTH 14 0
BBX 10 14 2 2
BITMAP
0080
C180
C1C0
C0C0
C0C0
C0C0
C0C0
C0C0
C0C0
C0C0
C180
E380
7F00
3E00
ENDCHAR
STARTCHAR 028C
ENCODING 652
SWIDTH 500 0
DWIDTH 14 0
BBX 10 14 2 1
BITMAP
0C00
1E00
1E00
1E00
3300
3300
3300
7380
6180
6180
6180
E0C0
C0C0
C0C0
ENDCHAR
STARTCHAR 028D
ENCODING 653
SWIDTH 500 0
DWIDTH 14 0
BBX 12 14 1 1
BITMAP
30C0
30C0
70E0
79E0
79E0
79E0
6960
6960
4F20
CF30
CF30
CF30
C630
C630
ENDCHAR
STARTCHAR 028E
ENCODING 654
SWIDTH 500 0
DWIDTH 14 0
BBX 11 20 1 1
BITMAP
01E0
03E0
0300
0300
0700
0600
0600
0E00
0E00
0E00
1F00
1B00
1B00
3980
3180
31C0
70C0
60C0
60E0
E060
ENDCHAR
STARTCHAR 0290
ENCODING 656
SWIDTH 500 0
DWIDTH 14 0
BBX 12 18 2 -3
BITMAP
FF80
FF80
0380
0300
0700
0E00
0C00
1800
3800
3000
6000
E000
FF80
FF80
0080
0080
00F0
00F0
ENDCHAR
STARTCHAR 0291
ENCODING 657
SWIDTH 500 0
DWIDTH 14 0
BBX 11 17 2 -2
BITMAP
7FC0
7FC0
0180
0300
0700
0600
0C00
1C00
39C0
33E0
6760
E660
FFE0
FFC0
1800
3000
1000
ENDCHAR
STARTCHAR 0292
ENCODING 658
SWIDTH 500 0
DWIDTH 14 0
BBX 11 18 2 -3
BITMAP
7F80
7FC0
0380
0700
1C00
3800
7F00
7F80
01C0
00C0
00C0
00E0
00E0
C0C0
C0C0
E1C0
7F80
1E00
ENDCHAR
STARTCHAR 0294
ENCODING 660
SWIDTH 500 0
DWIDTH 14 0
BBX 11 20 1 1
BITMAP
1F00
3F80
71C0
E0E0
0060
0060
0060
0060
0060
0060
00E0
00C0
03C0
0F80
0E00
0C00
0C00
0C00
0C00
0C00
ENDCHAR
STARTCHAR 0295
ENCODING 661
SWIDTH 500 0
DWIDTH 14 0
BBX 11 20 2 1
BITMAP
1F00
3F80
71C0
E0E0
C000
C000
C000
C000
C000
C000
E000
6000
7800
3E00
0E00
0600
0600
0600
0600
0600
ENDCHAR
STARTCHAR 0298
ENCODING 664
SWIDTH 500 0
DWIDTH 14 0
BBX 12 13 1 2
BITMAP
1F00
30C0
6040
6020
4620
CF30
CF30
CF30
4620
4020
2040
10C0
0F00
ENDCHAR
STARTCHAR 029D
ENCODING 669
SWIDTH 500 0
DWIDTH 14 0
BBX 11 24 1 -3
BITMAP
0700
0700
0700
0000
0000
0000
0300
0300
0300
0300
0300
0300
0300
0300
0300
0300
0300
7B00
FF00
C700
C7C0
C7E0
7E60
3C00
ENDCHAR
STARTCHAR 02A1
ENCODING 673
SWIDTH 500 0
DWIDTH 14 0
BBX 11 20 1 1
BITMAP
1F00
3F80
71C0
E0E0
0060
0060
0060
0060
0060
0060
00E0
00C0
03C0
0F80
0E00
0C00
7F80
0C00
0C00
0C00
ENDCHAR
STARTCHAR 02A2
ENCODING 674
SWIDTH 500 0
DWIDTH 14 0
BBX 11 20 2 1
BITMAP
1F00
3F80
71C0
E0E0
C000
C000
C000
C000
C000
C000
E000
6000
7000
3E00
0E00
0600
3FC0
0600
0600
0600
ENDCHAR
STARTCHAR 02C7
ENCODING 711
SWIDTH 500 0
DWIDTH 14 0
BBX 10 3 2 18
BITMAP
E1C0
3300
1E00
ENDCHAR
STARTCHAR 02C8
ENCODING 712
SWIDTH 500 0
DWIDTH 14 0
BBX 2 3 6 21
BITMAP
C0
C0
C0
ENDCHAR
STARTCHAR 02CC
ENCODING 716
SWIDTH 500 0
DWIDTH 14 0
BBX 2 3 6 -3
BITMAP
C0
C0
C0
ENDCHAR
STARTCHAR 02D0
ENCODING 720
SWIDTH 500 0
DWIDTH 14 0
BBX 4 14 5 1
BITMAP
F0
F0
60
60
00
00
00
00
00
00
60
60
F0
F0
ENDCHAR
STARTCHAR 02D1
ENCODING 721
SWIDTH 500 0
DWIDTH 14 0
BBX 4 4 5 10
BITMAP
F0
F0
60
60
ENDCHAR
STARTCHAR 02D8
ENCODING 728
SWIDTH 500 0
DWIDTH 14 0
BBX 10 4 2 17
BITMAP
C0C0
6180
3F00
1E00
ENDCHAR
STARTCHAR 02D9
ENCODING 729
SWIDTH 500 0
DWIDTH 14 0
BBX 4 3 5 18
BITMAP
F0
F0
F0
ENDCHAR
STARTCHAR 02DB
ENCODING 731
SWIDTH 500 0
DWIDTH 14 0
BBX 6 6 4 -1
BITMAP
30
60
C0
C0
C4
F8
ENDCHAR
STARTCHAR 02DC
ENCODING 732
SWIDTH 500 0
DWIDTH 14 0
BBX 10 3 2 18
BITMAP
7840
FFC0
0780
ENDCHAR
STARTCHAR 02DD
ENCODING 733
SWIDTH 500 0
DWIDTH 14 0
BBX 10 3 2 18
BITMAP
39C0
7300
E600
ENDCHAR
STARTCHAR 02DE
ENCODING 734
SWIDTH 500 0
DWIDTH 14 0
BBX 9 6 2 7
BITMAP
1000
F000
5000
1080
0900
0700
ENDCHAR
STARTCHAR 02E5
ENCODING 741
SWIDTH 500 0
DWIDTH 14 0
BBX 7 28 3 -3
BITMAP
FE
FE
02
02
02
02
02
02
02
02
02
02
02
02
02
02
02
02
02
02
02
02
02
02
02
02
02
02
ENDCHAR
STARTCHAR 02E6
ENCODING 742
SWIDTH 500 0
DWIDTH 14 0
BBX 7 28 3 -3
BITMAP
02
02
02
02
02
02
02
FE
FE
02
02
02
02
02
02
02
02
02
02
02
02
02
02
02
02
02
02
02
ENDCHAR
STARTCHAR 02E7
ENCODING 743
SWIDTH 500 0
DWIDTH 14 0
BBX 7 28 3 -3
BITMAP
02
02
02
02
02
02
02
02
02
02
02
02
02
02
FE
FE
02
02
02
02
02
02
02
02
02
02
02
02
ENDCHAR
STARTCHAR 02E8
ENCODING 744
SWIDTH 500 0
DWIDTH 14 0
BBX 7 28 3 -3
BITMAP
02
02
02
02
02
02
02
02
02
02
02
02
02
02
02
02
02
02
02
02
FE
FE
02
02
02
02
02
02
ENDCHAR
STARTCHAR 02E9
ENCODING 745
SWIDTH 500 0
DWIDTH 14 0
BBX 7 28 3 -3
BITMAP
02
02
02
02
02
02
02
02
02
02
02
02
02
02
02
02
02
02
02
02
02
02
02
02
02
02
FE
FE
ENDCHAR
STARTCHAR 0300
ENCODING 768
SWIDTH 500 0
DWIDTH 14 0
BBX 3 2 5 22
BITMAP
C0
60
ENDCHAR
STARTCHAR 0301
ENCODING 769
SWIDTH 500 0
DWIDTH 14 0
BBX 3 2 6 22
BITMAP
60
C0
ENDCHAR
STARTCHAR 0302
ENCODING 770
SWIDTH 500 0
DWIDTH 14 0
BBX 6 2 4 22
BITMAP
78
CC
ENDCHAR
STARTCHAR 0303
ENCODING 771
SWIDTH 500 0
DWIDTH 14 0
BBX 6 2 4 22
BITMAP
F4
1C
ENDCHAR
STARTCHAR 0304
ENCODING 772
SWIDTH 500 0
DWIDTH 14 0
BBX 8 1 3 23
BITMAP
FF
ENDCHAR
STARTCHAR 0306
ENCODING 774
SWIDTH 500 0
DWIDTH 14 0
BBX 8 2 3 22
BITMAP
C3
3C
ENDCHAR
STARTCHAR 0308
ENCODING 776
SWIDTH 500 0
DWIDTH 14 0
BBX 8 2 3 22
BITMAP
E7
E7
ENDCHAR
STARTCHAR 030B
ENCODING 779
SWIDTH 500 0
DWIDTH 14 0
BBX 7 2 4 22
BITMAP
76
C8
ENDCHAR
STARTCHAR 030C
ENCODING 780
SWIDTH 500 0
DWIDTH 14 0
BBX 6 2 4 22
BITMAP
CC
78
ENDCHAR
STARTCHAR 030F
ENCODING 783
SWIDTH 500 0
DWIDTH 14 0
BBX 7 2 3 22
BITMAP
DC
26
ENDCHAR
STARTCHAR 0318
ENCODING 792
SWIDTH 500 0
DWIDTH 14 0
BBX 4 3 4 -3
BITMAP
10
F0
10
ENDCHAR
STARTCHAR 0319
ENCODING 793
SWIDTH 500 0
DWIDTH 14 0
BBX 4 3 6 -3
BITMAP
80
F0
80
ENDCHAR
STARTCHAR 031A
ENCODING 794
SWIDTH 500 0
DWIDTH 14 0
BBX 5 3 8 21
BITMAP
F8
08
08
ENDCHAR
STARTCHAR 031C
ENCODING 796
SWIDTH 500 0
DWIDTH 14 0
BBX 3 3 5 -3
BITMAP
E0
C0
60
ENDCHAR
STARTCHAR 031D
ENCODING 797
SWIDTH 500 0
DWIDTH 14 0
BBX 6 3 4 -3
BITMAP
30
30
FC
ENDCHAR
STARTCHAR 031E
ENCODING 798
SWIDTH 500 0
DWIDTH 14 0
BBX 6 3 4 -3
BITMAP
FC
30
30
ENDCHAR
STARTCHAR 031F
ENCODING 799
SWIDTH 500 0
DWIDTH 14 0
BBX 6 3 4 -3
BITMAP
30
FC
30
ENDCHAR
STARTCHAR 0320
ENCODING 800
SWIDTH 500 0
DWIDTH 14 0
BBX 6 1 4 -2
BITMAP
FC
ENDCHAR
STARTCHAR 0324
ENCODING 804
SWIDTH 500 0
DWIDTH 14 0
BBX 8 2 3 -3
BITMAP
E7
E7
ENDCHAR
STARTCHAR 0325
ENCODING 805
SWIDTH 500 0
DWIDTH 14 0
BBX 4 5 5 -3
BITMAP
60
90
90
90
60
ENDCHAR
STARTCHAR 0329
ENCODING 809
SWIDTH 500 0
DWIDTH 14 0
BBX 2 3 6 -3
BITMAP
C0
C0
C0
ENDCHAR
STARTCHAR 032A
ENCODING 810
SWIDTH 500 0
DWIDTH 14 0
BBX 6 3 4 -3
BITMAP
FC
84
84
ENDCHAR
STARTCHAR 032C
ENCODING 812
SWIDTH 500 0
DWIDTH 14 0
BBX 6 3 4 -3
BITMAP
84
78
78
ENDCHAR
STARTCHAR 032F
ENCODING 815
SWIDTH 500 0
DWIDTH 14 0
BBX 8 3 3 -3
BITMAP
3C
66
C3
ENDCHAR
STARTCHAR 0330
ENCODING 816
SWIDTH 500 0
DWIDTH 14 0
BBX 6 2 4 -2
BITMAP
E0
1C
ENDCHAR
STARTCHAR 0334
ENCODING 820
SWIDTH 500 0
DWIDTH 14 0
BBX 6 3 4 9
BITMAP
E0
B4
1C
ENDCHAR
STARTCHAR 0339
ENCODING 825
SWIDTH 500 0
DWIDTH 14 0
BBX 3 3 6 -3
BITMAP
E0
60
C0
ENDCHAR
STARTCHAR 033A
ENCODING 826
SWIDTH 500 0
DWIDTH 14 0
BBX 6 3 4 -3
BITMAP
84
84
FC
ENDCHAR
STARTCHAR 033B
ENCODING 827
SWIDTH 500 0
DWIDTH 14 0
BBX 6 3 4 -3
BITMAP
FC
84
FC
ENDCHAR
STARTCHAR 033C
ENCODING 828
SWIDTH 500 0
DWIDTH 14 0
BBX 10 2 2 -3
BITMAP
7380
CCC0
ENDCHAR
STARTCHAR 033D
ENCODING 829
SWIDTH 500 0
DWIDTH 14 0
BBX 6 2 4 22
BITMAP
FC
FC
ENDCHAR
STARTCHAR 0361
ENCODING 865
SWIDTH 500 0
DWIDTH 14 0
BBX 12 3 1 21
BITMAP
1F80
E070
8010
ENDCHAR
STARTCHAR 0391
ENCODING 913
SWIDTH 1000 0
DWIDTH 28 0
BBX 18 20 5 1
BITMAP
01E000
01E000
03F000
033000
033000
073800
061800
0E1C00
0E1C00
0C0C00
1C0E00
1FFE00
1FFE00
380700
300300
700380
700380
600180
E001C0
E001C0
ENDCHAR
STARTCHAR 0392
ENCODING 914
SWIDTH 1000 0
DWIDTH 28 0
BBX 16 20 7 1
BITMAP
FFE0
FFF8
C01C
C00E
C00E
C00E
C00C
C018
FFF0
FFF8
C01C
C00E
C006
C007
C007
C006
C00E
C01E
FFFC
FFF0
ENDCHAR
STARTCHAR 0393
ENCODING 915
SWIDTH 1000 0
DWIDTH 28 0
BBX 15 20 7 1
BITMAP
FFFE
FFFE
E000
E000
E000
E000
E000
E000
E000
E000
E000
E000
E000
E000
E000
E000
E000
E000
E000
E000
ENDCHAR
STARTCHAR 0394
ENCODING 916
SWIDTH 1000 0
DWIDTH 28 0
BBX 20 20 4 1
BITMAP
00F000
00F000
01F800
01F800
019800
039C00
030C00
070E00
070E00
0E0700
0E0700
0C0300
1C0380
1C0380
3801C0
3801C0
3000C0
7000E0
7FFFE0
FFFFF0
ENDCHAR
STARTCHAR 0395
ENCODING 917
SWIDTH 1000 0
DWIDTH 28 0
BBX 15 20 7 1
BITMAP
FFFC
FFFC
C000
C000
C000
C000
C000
C000
FFF8
FFF8
C000
C000
C000
C000
C000
C000
C000
C000
FFFE
FFFE
ENDCHAR
STARTCHAR 0396
ENCODING 918
SWIDTH 1000 0
DWIDTH 28 0
BBX 16 20 6 1
BITMAP
7FFE
7FFE
000E
001C
0038
0038
0070
00E0
01C0
0380
0380
0700
0E00
1C00
1C00
3800
7000
E000
FFFF
FFFF
ENDCHAR
STARTCHAR 0397
ENCODING 919
SWIDTH 1000 0
DWIDTH 28 0
BBX 16 20 6 1
BITMAP
E007
E007
E007
E007
E007
E007
E007
E007
FFFF
FFFF
E007
E007
E007
E007
E007
E007
E007
E007
E007
E007
ENDCHAR
STARTCHAR 0398
ENCODING 920
SWIDTH 1000 0
DWIDTH 28 0
BBX 18 21 5 1
BITMAP
03F000
0FFC00
1E1E00
380700
700380
700380
600180
E001C0
E001C0
E001C0
EFFDC0
EFFDC0
E001C0
E001C0
E00180
700380
700380
380700
1E1E00
0FFC00
03F000
ENDCHAR
STARTCHAR 0399
ENCODING 921
SWIDTH 1000 0
DWIDTH 28 0
BBX 2 20 13 1
BITMAP
C0
C0
C0
C0
C0
C0
C0
C0
C0
C0
C0
C0
C0
C0
C0
C0
C0
C0
C0
C0
ENDCHAR
STARTCHAR 039A
ENCODING 922
SWIDTH 1000 0
DWIDTH 28 0
BBX 17 20 6 1
BITMAP
E00E00
E01C00
E03800
E07000
E0E000
E1C000
E38000
E70000
EF0000
FF8000
F9C000
F0E000
E07000
E07000
E03800
E01C00
E00E00
E00F00
E00700
E00380
ENDCHAR
STARTCHAR 039B
ENCODING 923
SWIDTH 1000 0
DWIDTH 28 0
BBX 18 20 5 1
BITMAP
01E000
01E000
01E000
03F000
033000
073800
073800
061800
0E1C00
0E1C00
0C0C00
1C0E00
180600
380700
380700
300300
700380
700380
E001C0
E001C0
ENDCHAR
STARTCHAR 039C
ENCODING 924
SWIDTH 1000 0
DWIDTH 28 0
BBX 20 20 4 1
BITMAP
F000F0
F000F0
F801F0
F801B0
F801B0
EC03B0
EC0330
EC0730
E60630
E60630
E70E30
E30C30
E30C30
E39C30
E19830
E19830
E1F830
E0F030
E0F030
E0F030
ENDCHAR
STARTCHAR 039D
ENCODING 925
SWIDTH 1000 0
DWIDTH 28 0
BBX 16 20 6 1
BITMAP
F003
F003
D803
DC03
CC03
CE03
C703
C303
C383
C183
C1C3
C0E3
C063
C073
C033
C03B
C01F
C00F
C00F
C007
ENDCHAR
STARTCHAR 039E
ENCODING 926
SWIDTH 1000 0
DWIDTH 28 0
BBX 16 20 6 1
BITMAP
FFFF
FFFF
0000
0000
0000
0000
0000
0000
7FFE
7FFE
0000
0000
0000
0000
0000
0000
0000
0000
FFFF
FFFF
ENDCHAR
STARTCHAR 039F
ENCODING 927
SWIDTH 1000 0
DWIDTH 28 0
BBX 18 21 5 1
BITMAP
03F000
0FFC00
1E1E00
380700
700380
700380
600180
E001C0
E001C0
E001C0
E001C0
E001C0
E001C0
E001C0
E00180
700380
700380
380700
1E1E00
0FFC00
03F000
ENDCHAR
STARTCHAR 03A0
ENCODING 928
SWIDTH 1000 0
DWIDTH 28 0
BBX 16 20 6 1
BITMAP
FFFF
FFFF
E007
E007
E007
E007
E007
E007
E007
E007
E007
E007
E007
E007
E007
E007
E007
E007
E007
E007
ENDCHAR
STARTCHAR 03A1
ENCODING 929
SWIDTH 1000 0
DWIDTH 28 0
BBX 15 20 7 1
BITMAP
FFE0
FFFC
E01C
E00E
E006
E006
E006
E00E
E01C
FFF8
FFE0
E000
E000
E000
E000
E000
E000
E000
E000
E000
ENDCHAR
STARTCHAR 03A3
ENCODING 931
SWIDTH 1000 0
DWIDTH 28 0
BBX 16 20 6 1
BITMAP
FFFF
FFFF
E000
7000
3800
1C00
0F00
0780
01C0
00E0
01C0
0380
0700
0E00
1C00
3800
7000
E000
FFFF
FFFF
ENDCHAR
STARTCHAR 03A4
ENCODING 932
SWIDTH 1000 0
DWIDTH 28 0
BBX 18 20 5 1
BITMAP
FFFFC0
FFFFC0
00C000
00C000
00C000
00C000
00C000
00C000
00C000
00C000
00C000
00C000
00C000
00C000
00C000
00C000
00C000
00C000
00C000
00C000
ENDCHAR
STARTCHAR 03A5
ENCODING 933
SWIDTH 1000 0
DWIDTH 28 0
BBX 18 20 5 1
BITMAP
E001C0
700380
780780
380700
1C0E00
0C0E00
0E1C00
073800
033000
03F000
01E000
00C000
00C000
00C000
00C000
00C000
00C000
00C000
00C000
00C000
ENDCHAR
STARTCHAR 03A6
ENCODING 934
SWIDTH 1000 0
DWIDTH 28 0
BBX 20 20 4 1
BITMAP
006000
006000
006000
07FC00
1FFF80
3C63C0
7060E0
6060E0
606060
E06070
E06070
606060
606060
7060E0
3C63C0
1FFF80
07FE00
006000
006000
006000
ENDCHAR
STARTCHAR 03A7
ENCODING 935
SWIDTH 1000 0
DWIDTH 28 0
BBX 18 20 5 1
BITMAP
700380
380700
3C0F00
1C0E00
0E1C00
073800
073800
03F000
01E000
00C000
01E000
03F000
073800
0F3C00
0E1C00
1C0E00
380700
780780
F00380
E001C0
ENDCHAR
STARTCHAR 03A8
ENCODING 936
SWIDTH 1000 0
DWIDTH 28 0
BBX 16 20 6 1
BITMAP
C183
C183
C183
C183
C183
C183
C183
C183
C183
C183
E187
6186
799E
3FFC
0FF0
0180
0180
0180
0180
0180
ENDCHAR
STARTCHAR 03A9
ENCODING 937
SWIDTH 1000 0
DWIDTH 28 0
BBX 20 21 4 1
BITMAP
01F800
07FE00
0F0F00
1C0380
3801C0
3000C0
7000E0
7000E0
7000E0
7000E0
7000E0
7000E0
7000E0
3801C0
3801C0
1C0380
0F0F00
039C00
039C00
FF9FF0
FF9FF0
ENDCHAR
STARTCHAR 03B1
ENCODING 945
SWIDTH 1000 0
DWIDTH 28 0
BBX 17 15 5 1
BITMAP
008000
07E380
0FF300
1C7700
383600
303E00
703C00
603800
603800
E03000
E07980
E0D980
619B80
7F1F00
3C0E00
ENDCHAR
STARTCHAR 03B2
ENCODING 946
SWIDTH 1000 0
DWIDTH 28 0
BBX 16 25 5 -3
BITMAP
007C
00FE
01C7
0303
0703
0603
0E03
0C03
0C06
19DC
19F8
1818
180C
300E
3006
3006
3006
780E
7E1C
67F8
61F0
6000
6000
6000
E000
ENDCHAR
STARTCHAR 03B3
ENCODING 947
SWIDTH 1000 0
DWIDTH 28 0
BBX 16 19 6 -3
BITMAP
1C00
3E02
7F07
E30E
431C
01B8
01B0
01E0
01E0
01C0
0180
0180
0380
0300
0700
0700
0700
0700
0600
ENDCHAR
STARTCHAR 03B4
ENCODING 948
SWIDTH 1000 0
DWIDTH 28 0
BBX 14 21 7 1
BITMAP
0780
0FE0
1C78
1C3C
0C1C
0E00
0700
0380
07E0
1FE0
3C70
7030
7030
6030
E030
E030
E070
6060
71C0
3FC0
1F00
ENDCHAR
STARTCHAR 03B5
ENCODING 949
SWIDTH 1000 0
DWIDTH 28 0
BBX 12 14 8 1
BITMAP
1FC0
3FF0
7070
6000
7000
3780
3F80
7780
C000
C000
C060
E1E0
FFC0
3F00
ENDCHAR
STARTCHAR 03B6
ENCODING 950
SWIDTH 1000 0
DWIDTH 28 0
BBX 14 25 8 -3
BITMAP
081C
1C7C
18F8
31F0
3FC0
1F00
0E00
1C00
1800
3800
3000
6000
6000
E000
C000
C000
C000
7E00
07C0
00C0
00E0
20E0
70C0
3FC0
0F00
ENDCHAR
STARTCHAR 03B7
ENCODING 951
SWIDTH 1000 0
DWIDTH 28 0
BBX 15 18 6 -3
BITMAP
1838
7CFC
E78E
C70E
060E
060E
0E0C
0C0C
0C0C
1C1C
181C
1818
3818
3038
0038
0038
0030
0030
ENDCHAR
STARTCHAR 03B8
ENCODING 952
SWIDTH 1000 0
DWIDTH 28 0
BBX 14 21 7 1
BITMAP
03E0
07F0
0E38
1C18
381C
300C
700C
600C
600C
FFFC
FFFC
C01C
C018
C038
C038
C030
E070
60E0
71C0
3F80
1F00
ENDCHAR
STARTCHAR 03B9
ENCODING 953
SWIDTH 1000 0
DWIDTH 28 0
BBX 9 14 9 1
BITMAP
0E00
1C00
1800
3800
3000
7000
6000
6000
E000
C180
C380
E700
7E00
3C00
ENDCHAR
STARTCHAR 03BA
ENCODING 954
SWIDTH 1000 0
DWIDTH 28 0
BBX 14 14 7 2
BITMAP
1C0C
183C
18F8
19E0
3F80
3E00
3E00
3300
7300
6300
618C
E19C
E1F8
C0E0
ENDCHAR
STARTCHAR 03BB
ENCODING 955
SWIDTH 1000 0
DWIDTH 28 0
BBX 15 21 6 1
BITMAP
0780
1FC0
3CE0
3060
0060
0060
0060
0060
00E0
01E0
01E0
03F0
0730
0630
0E30
1C30
1818
3818
701C
E00C
E00E
ENDCHAR
STARTCHAR 03BC
ENCODING 956
SWIDTH 1000 0
DWIDTH 28 0
BBX 19 18 5 -3
BITMAP
0E0600
0C0600
0C0600
0C0E00
1C0C00
1C0C00
180C00
181C00
381C00
381C60
3C3860
3C6CC0
37EF80
738700
600000
600000
600000
E00000
ENDCHAR
STARTCHAR 03BD
ENCODING 957
SWIDTH 1000 0
DWIDTH 28 0
BBX 13 14 8 2
BITMAP
E038
6038
7038
7038
3030
3070
3070
30E0
30E0
71C0
6780
7E00
7C00
E000
ENDCHAR
STARTCHAR 03BE
ENCODING 958
SWIDTH 1000 0
DWIDTH 28 0
BBX 13 25 7 -3
BITMAP
0C78
07F8
07F0
0C00
1800
3800
3800
1800
1EF0
07F0
1EF0
3800
6000
6000
E000
E000
7800
7FC0
1FE0
01F0
0070
2030
3070
3FE0
0F80
ENDCHAR
STARTCHAR 03BF
ENCODING 959
SWIDTH 1000 0
DWIDTH 28 0
BBX 12 14 8 1
BITMAP
0FC0
1FE0
3870
7030
E030
C030
C030
C030
C070
C060
C0E0
E1C0
7F80
1F00
ENDCHAR
STARTCHAR 03C0
ENCODING 960
SWIDTH 1000 0
DWIDTH 28 0
BBX 16 15 7 1
BITMAP
0002
7FFF
FFFC
CC60
9C60
18C0
18C0
38C0
30C0
3180
7182
6186
618E
E1FC
C0F0
ENDCHAR
STARTCHAR 03C1
ENCODING 961
SWIDTH 1000 0
DWIDTH 28 0
BBX 14 18 6 -3
BITMAP
01F0
07F8
0E18
1C0C
180C
380C
300C
300C
701C
701C
7838
6C70
6FF0
67C0
6000
E000
E000
E000
ENDCHAR
STARTCHAR 03C2
ENCODING 962
SWIDTH 500 0
DWIDTH 14 0
BBX 11 17 2 -2
BITMAP
1F00
3F80
71C0
E0E0
E040
C000
6000
6000
3000
1800
0C00
0600
0300
0300
C700
FE00
7C00
ENDCHAR
STARTCHAR 03C3
ENCODING 963
SWIDTH 1000 0
DWIDTH 28 0
BBX 15 14 8 1
BITMAP
07FE
1FFC
3860
7030
E030
C030
C030
C030
C070
C060
C0E0
E1C0
7F80
1E00
ENDCHAR
STARTCHAR 03C4
ENCODING 964
SWIDTH 1000 0
DWIDTH 28 0
BBX 15 15 7 1
BITMAP
0004
3FFE
FFF8
6300
0700
0600
0600
0C00
0C00
0C00
1C00
1830
1C70
0FE0
0780
ENDCHAR
STARTCHAR 03C5
ENCODING 965
SWIDTH 1000 0
DWIDTH 28 0
BBX 15 14 6 1
BITMAP
3C18
7E1C
E60C
CE0E
0C0E
1C0E
180E
380E
300C
301C
3038
3870
1FE0
0F80
ENDCHAR
STARTCHAR 03C6
ENCODING 966
SWIDTH 1000 0
DWIDTH 28 0
BBX 16 23 6 -3
BITMAP
0030
0070
0060
0060
0060
07F0
1FFC
38CE
70C6
6187
E187
E187
C187
E307
E306
731E
3B7C
1FF0
0700
0600
0E00
0E00
0C00
ENDCHAR
STARTCHAR 03C7
ENCODING 967
SWIDTH 1000 0
DWIDTH 28 0
BBX 15 19 6 -3
BITMAP
0400
1E0E
7F1C
6318
0338
0370
03E0
01C0
01C0
0380
0380
0780
0F80
1CC0
18C4
38C6
70CC
707C
E070
ENDCHAR
STARTCHAR 03C8
ENCODING 968
SWIDTH 1000 0
DWIDTH 28 0
BBX 16 23 6 -3
BITMAP
0030
0070
0060
0060
0060
08C4
3CCE
78C6
61C7
E183
C183
C183
C383
C307
C306
630E
7F7C
1FF0
0700
0600
0E00
0C00
0C00
ENDCHAR
STARTCHAR 03C9
ENCODING 969
SWIDTH 1000 0
DWIDTH 28 0
BBX 18 14 5 1
BITMAP
0C0300
1E0300
1C0380
384180
70E1C0
60C1C0
E0C0C0
C0C1C0
C0C1C0
C1C180
C1C380
E3E300
7E7F00
3C3C00
ENDCHAR
STARTCHAR 0401
ENCODING 1025
SWIDTH 1000 0
DWIDTH 28 0
BBX 15 23 7 1
BITMAP
3870
3870
0000
FFFC
FFFC
C000
C000
C000
C000
C000
C000
FFF8
FFF8
C000
C000
C000
C000
C000
C000
C000
C000
FFFE
FFFE
ENDCHAR
STARTCHAR 0410
ENCODING 1040
SWIDTH 1000 0
DWIDTH 28 0
BBX 18 20 5 1
BITMAP
01E000
01E000
03F000
033000
033000
073800
061800
0E1C00
0E1C00
0C0C00
1C0E00
1FFE00
1FFE00
380700
300300
700380
700380
600180
E001C0
E001C0
ENDCHAR
STARTCHAR 0411
ENCODING 1041
SWIDTH 1000 0
DWIDTH 28 0
BBX 16 20 7 1
BITMAP
FFFE
FFFE
C000
C000
C000
C000
C000
C000
FFE0
FFF8
C01C
C00E
C006
C007
C007
C006
C00E
C01E
FFFC
FFF0
ENDCHAR
STARTCHAR 0412
ENCODING 1042
SWIDTH 1000 0
DWIDTH 28 0
BBX 16 20 7 1
BITMAP
FFE0
FFF8
C01C
C00E
C00E
C00E
C00C
C018
FFF0
FFF8
C01C
C00E
C006
C007
C007
C006
C00E
C01E
FFFC
FFF0
ENDCHAR
STARTCHAR 0413
ENCODING 1043
SWIDTH 1000 0
DWIDTH 28 0
BBX 15 20 7 1
BITMAP
FFFE
FFFE
E000
E000
E000
E000
E000
E000
E000
E000
E000
E000
E000
E000
E000
E000
E000
E000
E000
E000
ENDCHAR
STARTCHAR 0414
ENCODING 1044
SWIDTH 1000 0
DWIDTH 28 0
BBX 19 22 4 -1
BITMAP
03FF80
03FF80
030180
030180
030180
030180
070180
070180
070180
060180
060180
060180
0E0180
0E0180
0C0180
1C0180
1C0180
180180
FFFFE0
FFFFE0
E00060
E00060
ENDCHAR
STARTCHAR 0415
ENCODING 1045
SWIDTH 1000 0
DWIDTH 28 0
BBX 15 20 7 1
BITMAP
FFFC
FFFC
C000
C000
C000
C000
C000
C000
FFF8
FFF8
C000
C000
C000
C000
C000
C000
C000
C000
FFFE
FFFE
ENDCHAR
STARTCHAR 0416
ENCODING 1046
SWIDTH 1000 0
DWIDTH 28 0
BBX 22 20 3 1
BITMAP
603038
703038
303030
303030
383070
183060
1C30E0
0E31C0
07FF80
03FF00
073380
063180
0E31C0
1C30E0
1C30E0
383070
303030
703038
E0301C
E0301C
ENDCHAR
STARTCHAR 0417
ENCODING 1047
SWIDTH 1000 0
DWIDTH 28 0
BBX 16 21 6 1
BITMAP
07E0
1FF8
381C
700C
600E
000E
000E
000C
003C
03F0
03F8
003C
000E
0006
0007
0007
E007
E00E
781C
3FF8
0FE0
ENDCHAR
STARTCHAR 0418
ENCODING 1048
SWIDTH 1000 0
DWIDTH 28 0
BBX 16 20 6 1
BITMAP
C003
C003
C003
C007
C00F
C01F
C03B
C073
C0E3
C1C3
C383
C703
CE03
DC03
F803
F003
E003
C003
C003
C003
ENDCHAR
STARTCHAR 0419
ENCODING 1049
SWIDTH 1000 0
DWIDTH 28 0
BBX 16 23 6 1
BITMAP
1C38
0FF0
07E0
C003
C003
C007
C00F
C00F
C01B
C03B
C073
C0E3
C1C3
C383
C703
CE03
DC03
F803
F003
E003
C003
C003
C003
ENDCHAR
STARTCHAR 041A
ENCODING 1050
SWIDTH 1000 0
DWIDTH 28 0
BBX 17 20 6 1
BITMAP
E00700
E00600
E00E00
E00E00
E01C00
E01C00
E03800
E0F000
EFE000
FFC000
FCE000
E06000
E07000
E03800
E01800
E01C00
E00E00
E00700
E00700
E00380
ENDCHAR
STARTCHAR 041B
ENCODING 1051
SWIDTH 1000 0
DWIDTH 28 0
BBX 19 20 3 1
BITMAP
00FFE0
00FFE0
00C0E0
00C0E0
00C0E0
00C0E0
00C0E0
00C0E0
00C0E0
01C0E0
01C0E0
01C0E0
01C0E0
0180E0
0180E0
C180E0
E380E0
6700E0
7E00E0
3C00E0
ENDCHAR
STARTCHAR 041C
ENCODING 1052
SWIDTH 1000 0
DWIDTH 28 0
BBX 20 20 4 1
BITMAP
F000F0
F000F0
F801F0
F801B0
F801B0
EC03B0
EC0330
EC0730
E60630
E60630
E70E30
E30C30
E30C30
E39C30
E19830
E19830
E1F830
E0F030
E0F030
E0F030
ENDCHAR
STARTCHAR 041D
ENCODING 1053
SWIDTH 1000 0
DWIDTH 28 0
BBX 16 20 6 1
BITMAP
E007
E007
E007
E007
E007
E007
E007
E007
FFFF
FFFF
E007
E007
E007
E007
E007
E007
E007
E007
E007
E007
ENDCHAR
STARTCHAR 041E
ENCODING 1054
SWIDTH 1000 0
DWIDTH 28 0
BBX 18 21 5 1
BITMAP
03F000
0FFC00
1E1E00
380700
700380
700380
600180
E001C0
E001C0
E001C0
E001C0
E001C0
E001C0
E001C0
E00180
700380
700380
380700
1E1E00
0FFC00
03F000
ENDCHAR
STARTCHAR 041F
ENCODING 1055
SWIDTH 1000 0
DWIDTH 28 0
BBX 16 20 6 1
BITMAP
FFFF
FFFF
E007
E007
E007
E007
E007
E007
E007
E007
E007
E007
E007
E007
E007
E007
E007
E007
E007
E007
ENDCHAR
STARTCHAR 0420
ENCODING 1056
SWIDTH 1000 0
DWIDTH 28 0
BBX 15 20 7 1
BITMAP
FFE0
FFFC
E01C
E00E
E006
E006
E006
E00E
E01C
FFF8
FFE0
E000
E000
E000
E000
E000
E000
E000
E000
E000
ENDCHAR
STARTCHAR 0421
ENCODING 1057
SWIDTH 1000 0
DWIDTH 28 0
BBX 18 21 5 1
BITMAP
03F000
0FFC00
1E1E00
380700
700300
700380
E00180
E00000
E00000
C00000
C00000
C00000
C00000
C00000
E001C0
600180
700380
380700
1C0F00
0FFC00
03F000
ENDCHAR
STARTCHAR 0422
ENCODING 1058
SWIDTH 1000 0
DWIDTH 28 0
BBX 18 20 5 1
BITMAP
FFFFC0
FFFFC0
00C000
00C000
00C000
00C000
00C000
00C000
00C000
00C000
00C000
00C000
00C000
00C000
00C000
00C000
00C000
00C000
00C000
00C000
ENDCHAR
STARTCHAR 0423
ENCODING 1059
SWIDTH 1000 0
DWIDTH 28 0
BBX 16 20 7 1
BITMAP
C007
E006
600E
700C
301C
381C
1818
1C38
0C30
0E70
0660
0760
03E0
03C0
01C0
0180
0380
0300
FF00
FC00
ENDCHAR
STARTCHAR 0424
ENCODING 1060
SWIDTH 1000 0
DWIDTH 28 0
BBX 20 20 4 1
BITMAP
006000
006000
006000
07FC00
1FFF80
3C63C0
7060E0
7060E0
606060
E06070
E06070
606060
6060E0
7060E0
3C63C0
1FFF80
07FE00
006000
006000
006000
ENDCHAR
STARTCHAR 0425
ENCODING 1061
SWIDTH 1000 0
DWIDTH 28 0
BBX 18 20 5 1
BITMAP
700380
380700
3C0F00
1C0E00
0E1C00
073800
073800
03F000
01E000
00C000
01E000
03F000
073800
0F3C00
0E1C00
1C0E00
380700
780780
F00380
E001C0
ENDCHAR
STARTCHAR 0426
ENCODING 1062
SWIDTH 1000 0
DWIDTH 28 0
BBX 18 22 6 -1
BITMAP
E00600
E00600
E00600
E00600
E00600
E00600
E00600
E00600
E00600
E00600
E00600
E00600
E00600
E00600
E00600
E00600
E00600
E00600
FFFFC0
FFFFC0
0000C0
0000C0
ENDCHAR
STARTCHAR 0427
ENCODING 1063
SWIDTH 1000 0
DWIDTH 28 0
BBX 14 20 7 1
BITMAP
C00C
C00C
C00C
C00C
C00C
C00C
C00C
C00C
C00C
E01C
E03C
70FC
7FCC
1F0C
000C
000C
000C
000C
000C
000C
ENDCHAR
STARTCHAR 0428
ENCODING 1064
SWIDTH 1000 0
DWIDTH 28 0
BBX 20 20 4 1
BITMAP
C06030
C06030
C06030
C06030
C06030
C06030
C06030
C06030
C06030
C06030
C06030
C06030
C06030
C06030
C06030
C06030
C06030
C06030
FFFFF0
FFFFF0
ENDCHAR
STARTCHAR 0429
ENCODING 1065
SWIDTH 1000 0
DWIDTH 28 0
BBX 22 22 4 -1
BITMAP
C0E060
C0E060
C0E060
C0E060
C0E060
C0E060
C0E060
C0E060
C0E060
C0E060
C0E060
C0E060
C0E060
C0E060
C0E060
C0E060
C0E060
C0E060
FFFFFC
FFFFFC
00001C
00001C
ENDCHAR
STARTCHAR 042A
ENCODING 1066
SWIDTH 1000 0
DWIDTH 28 0
BBX 19 20 4 1
BITMAP
FE0000
FE0000
060000
060000
060000
060000
060000
060000
07FE00
07FF80
0601C0
0600E0
060060
060060
060060
0600E0
0600E0
0601C0
07FF80
07FE00
ENDCHAR
STARTCHAR 042B
ENCODING 1067
SWIDTH 1000 0
DWIDTH 28 0
BBX 18 20 5 1
BITMAP
C000C0
C000C0
C000C0
C000C0
C000C0
C000C0
C000C0
C000C0
FF80C0
FFE0C0
C070C0
C038C0
C018C0
C018C0
C018C0
C018C0
C038C0
C070C0
FFE0C0
FF80C0
ENDCHAR
STARTCHAR 042C
ENCODING 1068
SWIDTH 1000 0
DWIDTH 28 0
BBX 16 20 7 1
BITMAP
C000
C000
C000
C000
C000
C000
C000
C000
FFE0
FFF8
C01C
C00E
C006
C007
C007
C006
C00E
C01E
FFFC
FFF0
ENDCHAR
STARTCHAR 042D
ENCODING 1069
SWIDTH 1000 0
DWIDTH 28 0
BBX 18 21 5 1
BITMAP
03F000
0FFC00
1C1E00
380700
700380
600180
0001C0
0001C0
0000C0
1F04C0
1FFCC0
10FCC0
0000C0
0001C0
0001C0
E00180
700380
780700
3C0E00
0FFC00
03F000
ENDCHAR
STARTCHAR 042E
ENCODING 1070
SWIDTH 1000 0
DWIDTH 28 0
BBX 21 21 4 1
BITMAP
001F00
E07FC0
E0E1E0
E1C060
E18070
E38030
E38038
E30038
E30018
FF0018
FF0018
E30018
E30018
E30038
E38038
E38030
E18070
E1C060
E0E1E0
E07FC0
E01F00
ENDCHAR
STARTCHAR 042F
ENCODING 1071
SWIDTH 1000 0
DWIDTH 28 0
BBX 15 20 6 1
BITMAP
0FFE
3FFE
7006
6006
6006
6006
6006
7006
3FFE
0FFE
0706
0706
0E06
0E06
1C06
1C06
3806
7006
7006
E006
ENDCHAR
STARTCHAR 0430
ENCODING 1072
SWIDTH 1000 0
DWIDTH 28 0
BBX 14 14 7 2
BITMAP
1FE0
3FF0
7070
7030
0038
07F8
3FF8
7838
6038
E038
E078
60F8
7F9C
1F1C
ENDCHAR
STARTCHAR 0431
ENCODING 1073
SWIDTH 1000 0
DWIDTH 28 0
BBX 14 20 7 1
BITMAP
0038
00F0
07E0
0F00
1C00
3800
7000
6FE0
7FF0
7838
7038
E018
E018
601C
6018
6018
7038
3870
1FE0
0FC0
ENDCHAR
STARTCHAR 0432
ENCODING 1074
SWIDTH 1000 0
DWIDTH 28 0
BBX 12 14 8 1
BITMAP
FF80
FFC0
E0E0
E060
E060
E0E0
FF80
FFC0
E060
E070
E070
E070
FFE0
FF80
ENDCHAR
STARTCHAR 0433
ENCODING 1075
SWIDTH 1000 0
DWIDTH 28 0
BBX 11 14 9 1
BITMAP
FFE0
FFE0
C000
C000
C000
C000
C000
C000
C000
C000
C000
C000
C000
C000
ENDCHAR
STARTCHAR 0434
ENCODING 1076
SWIDTH 1000 0
DWIDTH 28 0
BBX 15 16 6 -1
BITMAP
07F8
07F8
0618
0618
0E18
0E18
0C18
0C18
1C18
1818
3818
3018
FFFE
FFFE
C006
C006
ENDCHAR
STARTCHAR 0435
ENCODING 1077
SWIDTH 1000 0
DWIDTH 28 0
BBX 14 14 7 2
BITMAP
1FE0
3FF0
7030
6018
E018
FFFC
FFFC
C000
E000
E01C
7038
3878
1FF0
0FC0
ENDCHAR
STARTCHAR 0436
ENCODING 1078
SWIDTH 1000 0
DWIDTH 28 0
BBX 18 14 5 1
BITMAP
60C180
60C180
70C380
30C300
38C700
1FFE00
0FFC00
0DEC00
18C600
38C700
30C300
70C380
60C180
E0C1C0
ENDCHAR
STARTCHAR 0437
ENCODING 1079
SWIDTH 1000 0
DWIDTH 28 0
BBX 12 15 8 1
BITMAP
0600
3FC0
7FE0
E0E0
0060
0060
00C0
0F80
0FC0
00E0
0070
E070
F0E0
7FE0
1F80
ENDCHAR
STARTCHAR 0438
ENCODING 1080
SWIDTH 1000 0
DWIDTH 28 0
BBX 12 14 8 1
BITMAP
C030
C030
C070
C0F0
C1F0
C3B0
C730
CE30
DC30
F830
F030
E030
C030
C030
ENDCHAR
STARTCHAR 0439
ENCODING 1081
SWIDTH 1000 0
DWIDTH 28 0
BBX 12 19 8 1
BITMAP
6060
30C0
3FC0
0F00
0000
C030
C030
C070
C0F0
C1F0
C3B0
C730
CE30
DC30
F830
F030
E030
C030
C030
ENDCHAR
STARTCHAR 043A
ENCODING 1082
SWIDTH 1000 0
DWIDTH 28 0
BBX 13 14 8 1
BITMAP
C060
C060
C0E0
C0C0
C1C0
C780
FF00
FB00
C380
C1C0
C0E0
C0E0
C070
C038
ENDCHAR
STARTCHAR 043B
ENCODING 1083
SWIDTH 1000 0
DWIDTH 28 0
BBX 15 14 5 1
BITMAP
03FE
03FE
030E
030E
030E
030E
030E
030E
070E
070E
C60E
CE0E
FE0E
7C0E
ENDCHAR
STARTCHAR 043C
ENCODING 1084
SWIDTH 1000 0
DWIDTH 28 0
BBX 14 14 7 1
BITMAP
F03C
F03C
F07C
D86C
D86C
D86C
CCCC
CCCC
CCCC
C78C
C78C
C78C
C38C
C30C
ENDCHAR
STARTCHAR 043D
ENCODING 1085
SWIDTH 1000 0
DWIDTH 28 0
BBX 12 14 8 1
BITMAP
C030
C030
C030
C030
C030
FFF0
FFF0
C030
C030
C030
C030
C030
C030
C030
ENDCHAR
STARTCHAR 043E
ENCODING 1086
SWIDTH 1000 0
DWIDTH 28 0
BBX 14 14 7 1
BITMAP
0FC0
3FF0
7878
6018
E01C
E01C
C00C
C00C
E01C
E01C
7038
7878
3FF0
0FC0
ENDCHAR
STARTCHAR 043F
ENCODING 1087
SWIDTH 1000 0
DWIDTH 28 0
BBX 12 14 8 1
BITMAP
FFF0
FFF0
C030
C030
C030
C030
C030
C030
C030
C030
C030
C030
C030
C030
ENDCHAR
STARTCHAR 0440
ENCODING 1088
SWIDTH 1000 0
DWIDTH 28 0
BBX 14 18 8 -2
BITMAP
CFE0
DFF0
F070
E038
E018
E018
C01C
C01C
E018
E018
F038
F870
EFE0
E7C0
E000
E000
E000
E000
ENDCHAR
STARTCHAR 0441
ENCODING 1089
SWIDTH 1000 0
DWIDTH 28 0
BBX 14 15 7 1
BITMAP
0300
1FE0
3FF0
7038
6018
E000
C000
C000
C000
E000
E01C
7038
3878
1FF0
0FC0
ENDCHAR
STARTCHAR 0442
ENCODING 1090
SWIDTH 1000 0
DWIDTH 28 0
BBX 12 14 8 1
BITMAP
FFF0
FFF0
0600
0600
0600
0600
0600
0600
0600
0600
0600
0600
0600
0600
ENDCHAR
STARTCHAR 0443
ENCODING 1091
SWIDTH 1000 0
DWIDTH 28 0
BBX 14 18 7 -3
BITMAP
E00C
601C
7018
3038
3838
1830
1C70
0C60
0EE0
06C0
07C0
0380
0380
0300
0700
0700
7E00
7C00
ENDCHAR
STARTCHAR 0444
ENCODING 1092
SWIDTH 1000 0
DWIDTH 28 0
BBX 18 24 5 -3
BITMAP
00C000
00C000
00C000
00C000
00C000
00C000
3EDF00
7FFF80
61E180
E0C180
E0C1C0
C0C0C0
C0C0C0
C0C0C0
C0C0C0
E0C1C0
61C180
71E380
3FFF00
1EDE00
00C000
00C000
00C000
00C000
ENDCHAR
STARTCHAR 0445
ENCODING 1093
SWIDTH 1000 0
DWIDTH 28 0
BBX 16 14 6 1
BITMAP
700E
381C
1C38
0E70
07E0
03C0
03C0
03C0
07E0
0E70
1C38
381C
780E
F00F
ENDCHAR
STARTCHAR 0446
ENCODING 1094
SWIDTH 1000 0
DWIDTH 28 0
BBX 14 16 8 -1
BITMAP
C070
C070
C070
C070
C070
C070
C070
C070
C070
C070
C070
C070
FFFC
FFFC
000C
000C
ENDCHAR
STARTCHAR 0447
ENCODING 1095
SWIDTH 1000 0
DWIDTH 28 0
BBX 12 14 8 1
BITMAP
C070
C070
C070
C070
C070
C070
E1F0
7FF0
3E70
0070
0070
0070
0070
0070
ENDCHAR
STARTCHAR 0448
ENCODING 1096
SWIDTH 1000 0
DWIDTH 28 0
BBX 18 14 5 1
BITMAP
E0C1C0
E0C1C0
E0C1C0
E0C1C0
E0C1C0
E0C1C0
E0C1C0
E0C1C0
E0C1C0
E0C1C0
E0C1C0
E0C1C0
FFFFC0
FFFFC0
ENDCHAR
STARTCHAR 0449
ENCODING 1097
SWIDTH 1000 0
DWIDTH 28 0
BBX 20 16 5 -1
BITMAP
E0C180
E0C180
E0C180
E0C180
E0C180
E0C180
E0C180
E0C180
E0C180
E0C180
E0C180
E0C180
FFFFF0
FFFFF0
000070
000070
ENDCHAR
STARTCHAR 044A
ENCODING 1098
SWIDTH 1000 0
DWIDTH 28 0
BBX 16 14 6 1
BITMAP
FC00
FC00
1C00
1C00
1FF8
1FFC
1C0E
1C06
1C07
1C07
1C06
1C0E
1FFC
1FF8
ENDCHAR
STARTCHAR 044B
ENCODING 1099
SWIDTH 1000 0
DWIDTH 28 0
BBX 16 14 6 1
BITMAP
C003
C003
C003
C003
FF03
FFC3
C0E3
C063
C073
C073
C063
C0E3
FFC3
FF83
ENDCHAR
STARTCHAR 044C
ENCODING 1100
SWIDTH 1000 0
DWIDTH 28 0
BBX 12 14 8 1
BITMAP
C000
C000
C000
C000
FF80
FFE0
C070
C030
C030
C030
C030
C070
FFE0
FFC0
ENDCHAR
STARTCHAR 044D
ENCODING 1101
SWIDTH 1000 0
DWIDTH 28 0
BBX 14 14 7 1
BITMAP
1FE0
3FF0
7038
6018
001C
1C0C
1FCC
038C
001C
E01C
7038
7870
3FE0
0FC0
ENDCHAR
STARTCHAR 044E
ENCODING 1102
SWIDTH 1000 0
DWIDTH 28 0
BBX 19 15 5 1
BITMAP
001C00
E0FF00
E1FF80
E3C3C0
E381C0
E300E0
FF00E0
FF00E0
E700E0
E300E0
E300C0
E381C0
E1C380
E0FF00
E03E00
ENDCHAR
STARTCHAR 044F
ENCODING 1103
SWIDTH 1000 0
DWIDTH 28 0
BBX 13 14 7 1
BITMAP
0FF8
3FF8
7038
7038
7038
3038
3FF8
0FF8
0C38
1C38
1838
3838
7038
E038
ENDCHAR
STARTCHAR 0451
ENCODING 1105
SWIDTH 1000 0
DWIDTH 28 0
BBX 14 18 7 1
BITMAP
3870
3870
0000
0000
1FE0
3FF0
7030
6018
E018
FFFC
FFFC
C000
E000
E01C
7038
3878
1FF0
0FC0
ENDCHAR
STARTCHAR 1E3E
ENCODING 7742
SWIDTH 500 0
DWIDTH 14 0
BBX 12 23 1 1
BITMAP
0300
0600
0000
E070
E070
F0F0
F0F0
F0F0
D0F0
D0B0
D0B0
D9B0
D9B0
D9B0
C9B0
C930
CB30
CF30
CF30
CF30
C630
C630
C630
ENDCHAR
STARTCHAR 1E3F
ENCODING 7743
SWIDTH 500 0
DWIDTH 14 0
BBX 12 18 1 1
BITMAP
0300
0600
0000
0000
DDE0
FFF0
E730
C630
C630
C630
C630
C630
C630
C630
C630
C630
C630
C630
ENDCHAR
STARTCHAR 1F70
ENCODING 8048
SWIDTH 500 0
DWIDTH 14 0
BBX 12 17 1 1
BITMAP
0C00
0600
0000
0000
0F60
3FE0
70E0
60E0
6060
E060
E060
E060
6060
60E0
70E0
3FF0
1F70
ENDCHAR
STARTCHAR 1F71
ENCODING 8049
SWIDTH 500 0
DWIDTH 14 0
BBX 12 17 1 1
BITMAP
0300
0600
0000
0000
0F60
3FE0
70E0
60E0
6060
E060
E060
E060
6060
60E0
70E0
3FF0
1F70
ENDCHAR
STARTCHAR 1F72
ENCODING 8050
SWIDTH 500 0
DWIDTH 14 0
BBX 10 17 2 2
BITMAP
1800
0C00
0000
0000
3E00
7F80
E1C0
C000
C000
6000
3E00
7E00
C000
C000
C1C0
FF80
3F00
ENDCHAR
STARTCHAR 1F73
ENCODING 8051
SWIDTH 500 0
DWIDTH 14 0
BBX 10 17 2 2
BITMAP
0600
0C00
0000
0000
3E00
7F80
E1C0
C000
C000
6000
3E00
7E00
C000
C000
C1C0
FF80
3F00
ENDCHAR
STARTCHAR 2010
ENCODING 8208
SWIDTH 1000 0
DWIDTH 28 0
BBX 8 2 10 10
BITMAP
FF
FF
ENDCHAR
STARTCHAR 2013
ENCODING 8211
SWIDTH 500 0
DWIDTH 14 0
BBX 6 2 4 10
BITMAP
FC
FC
ENDCHAR
STARTCHAR 2014
ENCODING 8212
SWIDTH 1000 0
DWIDTH 28 0
BBX 24 2 2 10
BITMAP
FFFFFF
FFFFFF
ENDCHAR
STARTCHAR 2015
ENCODING 8213
SWIDTH 1000 0
DWIDTH 28 0
BBX 24 2 2 10
BITMAP
FFFFFF
FFFFFF
ENDCHAR
STARTCHAR 2016
ENCODING 8214
SWIDTH 1000 0
DWIDTH 28 0
BBX 8 28 10 -3
BITMAP
C3
C3
C3
C3
C3
C3
C3
C3
C3
C3
C3
C3
C3
C3
C3
C3
C3
C3
C3
C3
C3
C3
C3
C3
C3
C3
C3
C3
ENDCHAR
STARTCHAR 2018
ENCODING 8216
SWIDTH 1000 0
DWIDTH 28 0
BBX 4 7 22 16
BITMAP
30
60
60
40
F0
F0
F0
ENDCHAR
STARTCHAR 2019
ENCODING 8217
SWIDTH 1000 0
DWIDTH 28 0
BBX 4 7 2 16
BITMAP
F0
F0
F0
20
60
60
C0
ENDCHAR
STARTCHAR 201C
ENCODING 8220
SWIDTH 1000 0
DWIDTH 28 0
BBX 9 7 17 16
BITMAP
2180
6300
C300
C200
E780
E780
E780
ENDCHAR
STARTCHAR 201D
ENCODING 8221
SWIDTH 1000 0
DWIDTH 28 0
BBX 9 7 2 16
BITMAP
F380
F380
F380
2180
6180
6300
C200
ENDCHAR
STARTCHAR 2020
ENCODING 8224
SWIDTH 1000 0
DWIDTH 28 0
BBX 12 25 8 -2
BITMAP
0600
0F00
0F00
0600
0600
F6F0
FFF0
FFF0
E670
0600
0F00
0E00
0600
0600
0600
0600
0600
0600
0600
0600
0600
0600
0600
0600
0600
ENDCHAR
STARTCHAR 2021
ENCODING 8225
SWIDTH 1000 0
DWIDTH 28 0
BBX 12 27 8 -3
BITMAP
0600
0F00
0600
0600
E670
FFF0
F6F0
0600
0F00
0600
0600
0600
0600
0600
0600
0600
0600
0600
0600
E670
FFF0
FFF0
E670
0600
0600
0F00
0600
ENDCHAR
STARTCHAR 2022
ENCODING 8226
SWIDTH 500 0
DWIDTH 14 0
BBX 6 6 4 8
BITMAP
78
FC
FC
FC
FC
78
ENDCHAR
STARTCHAR 2025
ENCODING 8229
SWIDTH 1000 0
DWIDTH 28 0
BBX 18 3 5 9
BITMAP
F003C0
F003C0
F003C0
ENDCHAR
STARTCHAR 2026
ENCODING 8230
SWIDTH 1000 0
DWIDTH 28 0
BBX 22 3 3 9
BITMAP
E0781C
E0781C
E0781C
ENDCHAR
STARTCHAR 2030
ENCODING 8240
SWIDTH 1000 0
DWIDTH 28 0
BBX 25 25 1 -2
BITMAP
00018000
3C018000
7E030000
66060000
62060000
630C0000
43180000
43180000
63300000
66300000
7E600000
3CC00000
00C00000
019E0F00
01BF1F80
03331980
0631B180
0631B080
0C21B180
1831B180
18331980
303F1F80
301E0F00
60000000
C0000000
ENDCHAR
STARTCHAR 2032
ENCODING 8242
SWIDTH 1000 0
DWIDTH 28 0
BBX 3 7 2 16
BITMAP
60
60
60
40
C0
C0
80
ENDCHAR
STARTCHAR 2033
ENCODING 8243
SWIDTH 1000 0
DWIDTH 28 0
BBX 8 7 2 16
BITMAP
63
62
66
46
C4
C4
8C
ENDCHAR
STARTCHAR 203B
ENCODING 8251
SWIDTH 1000 0
DWIDTH 28 0
BBX 22 23 3 -1
BITMAP
803004
C0780C
607818
303030
180060
0C00C0
060180
030300
018600
60CC18
F0783C
F0303C
607818
00CC00
018600
030300
060180
0C00C0
183060
307830
607818
C0300C
800004
ENDCHAR
STARTCHAR 203C
ENCODING 8252
SWIDTH 500 0
DWIDTH 14 0
BBX 8 22 3 0
BITMAP
C3
C3
C3
C3
C3
C3
C3
C3
C3
C3
C3
C3
C3
C3
C3
C3
C3
00
00
E3
E3
E3
ENDCHAR
STARTCHAR 203E
ENCODING 8254
SWIDTH 1000 0
DWIDTH 28 0
BBX 28 1 0 24
BITMAP
FFFFFFF0
ENDCHAR
STARTCHAR 203F
ENCODING 8255
SWIDTH 500 0
DWIDTH 14 0
BBX 10 3 2 -3
BITMAP
8040
C0C0
3F00
ENDCHAR
STARTCHAR 2042
ENCODING 8258
SWIDTH 500 0
DWIDTH 14 0
BBX 12 17 1 2
BITMAP
0600
1680
0D00
0600
1D00
1680
0600
0000
0000
2040
2040
AF50
79E0
70E0
E9F0
AF50
2040
ENDCHAR
STARTCHAR 2047
ENCODING 8263
SWIDTH 500 0
DWIDTH 14 0
BBX 12 22 1 0
BITMAP
70E0
F9F0
D9B0
CB30
CF30
8B30
1830
1830
1860
3060
3060
70C0
60C0
60C0
60C0
60C0
60C0
0000
0000
61C0
61C0
61C0
ENDCHAR
STARTCHAR 2048
ENCODING 8264
SWIDTH 500 0
DWIDTH 14 0
BBX 11 22 1 0
BITMAP
3860
7C60
E660
C660
C660
C660
0660
0660
0C60
0C60
1860
1860
3060
3060
3060
3060
3060
0000
0000
7060
7060
7060
ENDCHAR
STARTCHAR 2049
ENCODING 8265
SWIDTH 500 0
DWIDTH 14 0
BBX 11 22 2 0
BITMAP
C380
C7C0
CCE0
CC60
CC60
DC60
C060
C0E0
C0C0
C1C0
C180
C380
C300
C300
C300
C300
C300
0000
0000
C700
C700
C700
ENDCHAR
STARTCHAR 2051
ENCODING 8273
SWIDTH 1000 0
DWIDTH 28 0
BBX 8 22 10 0
BITMAP
18
18
9B
F7
3C
3C
F7
DB
18
18
00
00
00
18
18
DB
F6
18
F7
DB
18
18
ENDCHAR
STARTCHAR 20AC
ENCODING 8364
SWIDTH 500 0
DWIDTH 14 0
BBX 12 19 1 2
BITMAP
0780
1FC0
18E0
3860
3060
3000
3000
FF80
FF80
7000
7000
FF80
FF00
3000
3070
3060
38E0
1FC0
0F80
ENDCHAR
STARTCHAR 2103
ENCODING 8451
SWIDTH 1000 0
DWIDTH 28 0
BBX 24 22 1 1
BITMAP
380000
440000
C60FC0
C63FF0
447038
38E01C
01C00E
018006
038000
038000
030000
030000
030000
030000
038000
038007
038007
01C00E
00E01C
00F03C
003FF0
000FC0
ENDCHAR
STARTCHAR 210F
ENCODING 8463
SWIDTH 500 0
DWIDTH 14 0
BBX 12 20 1 1
BITMAP
1C00
1800
1980
7F80
7800
3800
31E0
37E0
3C70
3830
7030
7070
6070
6060
6060
E060
E060
C0E0
C0C0
C0C0
ENDCHAR
STARTCHAR 2113
ENCODING 8467
SWIDTH 500 0
DWIDTH 14 0
BBX 12 19 1 2
BITMAP
03C0
07C0
0E60
0C60
1C60
1860
1860
1860
38C0
30C0
31C0
3180
3380
3300
1E20
1C30
7870
FFE0
8780
ENDCHAR
STARTCHAR 2116
ENCODING 8470
SWIDTH 1000 0
DWIDTH 28 0
BBX 25 21 2 0
BITMAP
E0600000
F0600000
F0600000
F0600000
D8600000
D8600000
D861E000
CC63F000
CC673800
C6661800
C6661800
C66E1800
C36C1800
C36C1800
C3EC1800
C1EC1800
C1E61800
C0E61B80
C0E73380
C0E3F380
0001E000
ENDCHAR
STARTCHAR 2121
ENCODING 8481
SWIDTH 1000 0
DWIDTH 28 0
BBX 26 20 1 1
BITMAP
FFC00000
FFC00000
0C000000
0C000000
0C000000
0C3F1800
0C3F1800
0C301800
0C301800
0C301800
0C301800
0C3F1800
0C3F1800
0C301800
0C301800
0C301800
0C301800
0C301800
0C3F9FC0
0C3F9FC0
ENDCHAR
STARTCHAR 2127
ENCODING 8487
SWIDTH 500 0
DWIDTH 14 0
BBX 12 19 1 2
BITMAP
F9F0
F9F0
0900
1980
31C0
70C0
6060
6060
E070
E070
E070
E070
E070
6060
6060
7060
38C0
3FC0
0F00
ENDCHAR
STARTCHAR 212B
ENCODING 8491
SWIDTH 1000 0
DWIDTH 28 0
BBX 18 23 5 1
BITMAP
01E000
033000
021000
033000
01E000
000000
01E000
01E000
01E000
033000
033000
061800
061800
0C0C00
0C0C00
1FFE00
1FFE00
380300
300300
700380
600180
E001C0
E001C0
ENDCHAR
STARTCHAR 2135
ENCODING 8501
SWIDTH 500 0
DWIDTH 14 0
BBX 12 20 1 1
BITMAP
3040
60C0
60C0
E060
60F0
61B0
71B0
3B00
1E00
7F00
6380
61C0
60E0
6060
7070
7070
3070
7060
E060
0040
ENDCHAR
STARTCHAR 2153
ENCODING 8531
SWIDTH 500 0
DWIDTH 14 0
BBX 12 25 1 -2
BITMAP
3020
F060
B040
3040
3080
3080
3180
3100
3300
3200
3200
3400
05E0
0D20
0B30
1A30
1030
1020
20C0
2030
6010
4210
C310
8330
81E0
ENDCHAR
STARTCHAR 2154
ENCODING 8532
SWIDTH 500 0
DWIDTH 14 0
BBX 12 25 1 -2
BITMAP
7820
FC20
CC60
8C40
0CC0
0C80
1980
3100
6100
C300
C200
FE00
05E0
0D20
0B30
1A30
1830
1020
30C0
2030
6010
4210
C310
C330
81E0
ENDCHAR
STARTCHAR 2155
ENCODING 8533
SWIDTH 500 0
DWIDTH 14 0
BBX 12 25 1 -2
BITMAP
3020
F060
B040
3040
30C0
3080
3180
3100
3300
3200
3200
3600
07F0
0F00
0B00
1B00
13E0
1320
3230
2010
6010
4030
4330
C3F0
81E0
ENDCHAR
STARTCHAR 2160
ENCODING 8544
SWIDTH 1000 0
DWIDTH 28 0
BBX 2 20 13 1
BITMAP
C0
C0
C0
C0
C0
C0
C0
C0
C0
C0
C0
C0
C0
C0
C0
C0
C0
C0
C0
C0
ENDCHAR
STARTCHAR 2161
ENCODING 8545
SWIDTH 1000 0
DWIDTH 28 0
BBX 10 20 9 1
BITMAP
E1C0
E1C0
E1C0
E1C0
E1C0
E1C0
E1C0
E1C0
E1C0
E1C0
E1C0
E1C0
E1C0
E1C0
E1C0
E1C0
E1C0
E1C0
E1C0
E1C0
ENDCHAR
STARTCHAR 2162
ENCODING 8546
SWIDTH 1000 0
DWIDTH 28 0
BBX 16 20 6 1
BITMAP
C183
C183
C183
C183
C183
C183
C183
C183
C183
C183
C183
C183
C183
C183
C183
C183
C183
C183
C183
C183
ENDCHAR
STARTCHAR 2163
ENCODING 8547
SWIDTH 1000 0
DWIDTH 28 0
BBX 21 20 4 1
BITMAP
E70018
E70038
E70038
E38030
E38070
E18070
E1C060
E1C0E0
E0C0E0
E0E0C0
E0E1C0
E06180
E07380
E07380
E03300
E03F00
E03F00
E01E00
E01E00
E00E00
ENDCHAR
STARTCHAR 2164
ENCODING 8548
SWIDTH 1000 0
DWIDTH 28 0
BBX 18 20 5 1
BITMAP
E001C0
E001C0
700380
700380
300300
380700
380700
180E00
1C0E00
0C0C00
0E1C00
0E1C00
061800
073800
073800
033000
03F000
01E000
01E000
01E000
ENDCHAR
STARTCHAR 2165
ENCODING 8549
SWIDTH 1000 0
DWIDTH 28 0
BBX 21 20 3 1
BITMAP
C00738
E00738
E00738
600E38
700E38
700C38
301C38
381C38
181838
183838
1C3838
0C3038
0E7038
0E7038
066038
07E038
07E038
03C038
03C038
038038
ENDCHAR
STARTCHAR 2166
ENCODING 8550
SWIDTH 1000 0
DWIDTH 28 0
BBX 23 20 2 1
BITMAP
E01CC6
E018C6
6018C6
6038C6
7038C6
7030C6
3030C6
3070C6
3870C6
1860C6
18E0C6
1CE0C6
1CC0C6
0CC0C6
0DC0C6
0FC0C6
0F80C6
0780C6
0780C6
0700C6
ENDCHAR
STARTCHAR 2167
ENCODING 8551
SWIDTH 1000 0
DWIDTH 28 0
BBX 24 20 2 1
BITMAP
C07777
C07777
E06777
E06777
60E777
60E777
60C777
70C777
30C777
31C777
318777
398777
198777
1B8777
1B0777
1B0777
0F0777
0F0777
0E0777
0E0777
ENDCHAR
STARTCHAR 2168
ENCODING 8552
SWIDTH 1000 0
DWIDTH 28 0
BBX 21 20 4 1
BITMAP
E38070
E1C070
E0C0E0
E0E0C0
E071C0
E07380
E03B80
E01F00
E01E00
E00E00
E01E00
E01F00
E03B80
E07380
E071C0
E0E0E0
E1C0E0
E1C070
E38038
E70038
ENDCHAR
STARTCHAR 2169
ENCODING 8553
SWIDTH 1000 0
DWIDTH 28 0
BBX 18 20 5 1
BITMAP
700380
380700
3C0F00
1C0E00
0E1C00
073800
073800
03F000
01E000
00C000
01E000
03F000
073800
0F3C00
0E1C00
1C0E00
380700
780780
F00380
E001C0
ENDCHAR
STARTCHAR 216A
ENCODING 8554
SWIDTH 1000 0
DWIDTH 28 0
BBX 21 20 3 1
BITMAP
700E38
701C38
383838
183838
1C7038
0E7038
0EE038
07C038
03C038
038038
03C038
07C038
0EE038
0E7038
1C7038
383838
381C38
701C38
E00E38
E00738
ENDCHAR
STARTCHAR 216B
ENCODING 8555
SWIDTH 1000 0
DWIDTH 28 0
BBX 23 20 2 1
BITMAP
6039C6
7031C6
3071C6
3861C6
1CE1C6
1CC1C6
0FC1C6
0F81C6
0781C6
0701C6
0781C6
0F81C6
0DC1C6
1CC1C6
18E1C6
3861C6
3071C6
7039C6
6039C6
E01DC6
ENDCHAR
STARTCHAR 2170
ENCODING 8560
SWIDTH 1000 0
DWIDTH 28 0
BBX 2 20 13 1
BITMAP
C0
C0
C0
00
00
00
C0
C0
C0
C0
C0
C0
C0
C0
C0
C0
C0
C0
C0
C0
ENDCHAR
STARTCHAR 2171
ENCODING 8561
SWIDTH 1000 0
DWIDTH 28 0
BBX 10 20 9 1
BITMAP
E1C0
E1C0
E1C0
0000
0000
0000
E1C0
E1C0
E1C0
E1C0
E1C0
E1C0
E1C0
E1C0
E1C0
E1C0
E1C0
E1C0
E1C0
E1C0
ENDCHAR
STARTCHAR 2172
ENCODING 8562
SWIDTH 1000 0
DWIDTH 28 0
BBX 16 20 6 1
BITMAP
E187
E187
E187
0000
0000
0000
6186
6186
6186
6186
6186
6186
6186
6186
6186
6186
6186
6186
6186
6186
ENDCHAR
STARTCHAR 2173
ENCODING 8563
SWIDTH 1000 0
DWIDTH 28 0
BBX 18 20 6 1
BITMAP
E00000
E00000
E00000
000000
000000
000000
C601C0
C70180
C30380
C38380
C38300
C18700
C1C600
C0C600
C0CE00
C0EC00
C07C00
C07800
C03800
C03800
ENDCHAR
STARTCHAR 2174
ENCODING 8564
SWIDTH 1000 0
DWIDTH 28 0
BBX 14 14 7 1
BITMAP
C00C
E01C
6018
7038
7038
3070
3870
1860
1CE0
0CC0
0FC0
0FC0
0780
0780
ENDCHAR
STARTCHAR 2175
ENCODING 8565
SWIDTH 1000 0
DWIDTH 28 0
BBX 18 20 4 1
BITMAP
0001C0
0001C0
0001C0
000000
000000
000000
E018C0
6038C0
7030C0
7070C0
3070C0
3860C0
18E0C0
18C0C0
1CC0C0
0DC0C0
0F80C0
0780C0
0700C0
0700C0
ENDCHAR
STARTCHAR 2176
ENCODING 8566
SWIDTH 1000 0
DWIDTH 28 0
BBX 21 20 3 1
BITMAP
000718
000718
000718
000000
000000
000000
C07718
E06718
606718
60E718
70C718
30C718
31C718
398718
198718
1B0718
1F0718
0F0718
0E0718
060718
ENDCHAR
STARTCHAR 2177
ENCODING 8567
SWIDTH 1000 0
DWIDTH 28 0
BBX 23 20 2 1
BITMAP
000776
000776
000776
000000
000000
000000
E07766
606766
606766
70E766
30C766
30C766
39C766
198766
198766
1F8766
0F0766
0F0766
0F0766
060766
ENDCHAR
STARTCHAR 2178
ENCODING 8568
SWIDTH 1000 0
DWIDTH 28 0
BBX 19 20 5 1
BITMAP
E00000
E00000
E00000
000000
000000
000000
E381C0
E381C0
E1C380
E0E700
E07E00
E03C00
E03C00
E03C00
E07E00
E0E700
E1C380
E1C380
E381C0
E700E0
ENDCHAR
STARTCHAR 2179
ENCODING 8569
SWIDTH 1000 0
DWIDTH 28 0
BBX 16 14 6 1
BITMAP
700E
381C
1C38
0E70
07E0
03C0
03C0
03C0
07E0
0E70
1C38
381C
780E
F00F
ENDCHAR
STARTCHAR 217A
ENCODING 8570
SWIDTH 1000 0
DWIDTH 28 0
BBX 19 20 4 1
BITMAP
0000E0
0000E0
0000E0
000000
000000
000000
7038E0
7038E0
3870E0
1CE0E0
0FC0E0
0780E0
0780E0
0780E0
0FC0E0
1CE0E0
3870E0
3870E0
7038E0
E01CE0
ENDCHAR
STARTCHAR 217B
ENCODING 8571
SWIDTH 1000 0
DWIDTH 28 0
BBX 21 20 3 1
BITMAP
000398
000398
000398
000000
000000
000000
606318
70E318
39C318
198318
1F8318
0F0318
0E0318
0F0318
1F8318
198318
39C318
70E318
606318
E07318
ENDCHAR
STARTCHAR 2190
ENCODING 8592
SWIDTH 1000 0
DWIDTH 28 0
BBX 24 10 2 6
BITMAP
070000
0E0000
1C0000
700000
FFFFFF
FFFFFF
700000
1C0000
0E0000
070000
ENDCHAR
STARTCHAR 2191
ENCODING 8593
SWIDTH 1000 0
DWIDTH 28 0
BBX 10 24 9 0
BITMAP
0C00
1E00
1E00
3F00
6D80
EDC0
CCC0
8C40
0C00
0C00
0C00
0C00
0C00
0C00
0C00
0C00
0C00
0C00
0C00
0C00
0C00
0C00
0C00
0C00
ENDCHAR
STARTCHAR 2192
ENCODING 8594
SWIDTH 1000 0
DWIDTH 28 0
BBX 24 10 2 6
BITMAP
0000E0
000070
000038
00000E
FFFFFF
FFFFFF
00000E
000038
000070
0000E0
ENDCHAR
STARTCHAR 2193
ENCODING 8595
SWIDTH 1000 0
DWIDTH 28 0
BBX 10 24 9 -2
BITMAP
0C00
0C00
0C00
0C00
0C00
0C00
0C00
0C00
0C00
0C00
0C00
0C00
0C00
0C00
0C00
0C00
8C40
CCC0
EDC0
6D80
3F00
1E00
1E00
0C00
ENDCHAR
STARTCHAR 2194
ENCODING 8596
SWIDTH 500 0
DWIDTH 14 0
BBX 12 10 1 6
BITMAP
30C0
30C0
6060
6060
FFF0
FFF0
6060
6060
30C0
30C0
ENDCHAR
STARTCHAR 2196
ENCODING 8598
SWIDTH 500 0
DWIDTH 14 0
BBX 11 21 2 0
BITMAP
3000
3800
7E00
7F00
5980
D8C0
CC00
8C00
8E00
0600
0600
0700
0300
0300
0180
0180
0180
00C0
00C0
00E0
0040
ENDCHAR
STARTCHAR 2197
ENCODING 8599
SWIDTH 500 0
DWIDTH 14 0
BBX 10 21 2 0
BITMAP
0300
0700
1F80
3F80
6680
C6C0
0CC0
0C40
1C40
1800
1800
3800
3000
3000
6000
6000
6000
C000
C000
C000
8000
ENDCHAR
STARTCHAR 2198
ENCODING 8600
SWIDTH 500 0
DWIDTH 14 0
BBX 11 21 1 0
BITMAP
C000
6000
6000
6000
3000
3000
3800
1800
1800
0C00
0C00
0C20
0620
0660
0660
6360
3BC0
1FC0
07C0
0380
0080
ENDCHAR
STARTCHAR 2199
ENCODING 8601
SWIDTH 500 0
DWIDTH 14 0
BBX 11 21 2 0
BITMAP
0060
00C0
00C0
00C0
0180
0180
0380
0300
0300
0600
0600
8600
8C00
CC00
CC00
D8C0
7B80
7F00
7C00
3800
2000
ENDCHAR
STARTCHAR 21C4
ENCODING 8644
SWIDTH 500 0
DWIDTH 14 0
BBX 10 21 2 0
BITMAP
0600
0300
0180
0180
FFC0
FFC0
00C0
0180
0300
0600
0000
1800
3000
6000
C000
FFC0
FFC0
E000
6000
3000
1800
ENDCHAR
STARTCHAR 21D2
ENCODING 8658
SWIDTH 1000 0
DWIDTH 28 0
BBX 25 17 2 2
BITMAP
00008000
0001C000
0000E000
00007000
FFFFF800
FFFFFC00
00000E00
00000700
00000380
00000700
00000E00
FFFFFC00
FFFFF800
00007000
0000E000
0001C000
00008000
ENDCHAR
STARTCHAR 21D4
ENCODING 8660
SWIDTH 1000 0
DWIDTH 28 0
BBX 26 15 1 3
BITMAP
01806000
03003000
06001800
0FFFFC00
1FFFFE00
30000300
60000180
C00000C0
60000180
30000300
1FFFFE00
0FFFFC00
06001800
03003000
01806000
ENDCHAR
STARTCHAR 21E6
ENCODING 8678
SWIDTH 500 0
DWIDTH 14 0
BBX 12 9 1 6
BITMAP
0800
1800
3800
4FF0
8010
4FF0
3800
1800
0800
ENDCHAR
STARTCHAR 21E7
ENCODING 8679
SWIDTH 500 0
DWIDTH 14 0
BBX 10 22 2 0
BITMAP
0C00
1E00
1200
2100
2100
4080
F3C0
1200
1200
1200
1200
1200
1200
1200
1200
1200
1200
1200
1200
1200
1200
1E00
ENDCHAR
STARTCHAR 21E8
ENCODING 8680
SWIDTH 500 0
DWIDTH 14 0
BBX 12 9 1 6
BITMAP
0100
0180
01C0
FF20
8010
FF20
01C0
0180
0100
ENDCHAR
STARTCHAR 21E9
ENCODING 8681
SWIDTH 500 0
DWIDTH 14 0
BBX 10 22 2 -1
BITMAP
1E00
1200
1200
1200
1200
1200
1200
1200
1200
1200
1200
1200
1200
1200
1200
F3C0
4080
2100
2100
1200
1E00
0C00
ENDCHAR
STARTCHAR 2200
ENCODING 8704
SWIDTH 1000 0
DWIDTH 28 0
BBX 22 24 3 -2
BITMAP
C0000C
C0000C
600018
600018
300030
300030
380070
180060
1FFFE0
0FFFC0
0C00C0
060180
060180
030300
030300
018600
018600
00CC00
00CC00
007800
007800
003000
003000
002000
ENDCHAR
STARTCHAR 2202
ENCODING 8706
SWIDTH 1000 0
DWIDTH 28 0
BBX 14 22 6 0
BITMAP
03C0
0FE0
1C70
0838
0018
0018
0018
001C
000C
0F8C
1FEC
387C
7038
6038
6038
E038
E030
6030
6060
70E0
3FC0
0F00
ENDCHAR
STARTCHAR 2203
ENCODING 8707
SWIDTH 1000 0
DWIDTH 28 0
BBX 20 21 4 0
BITMAP
FFFFF0
FFFFF0
000030
000030
000030
000030
000030
000030
000030
FFFFF0
FFFFF0
000030
000030
000030
000030
000030
000030
000030
000030
FFFFF0
FFFFF0
ENDCHAR
STARTCHAR 2205
ENCODING 8709
SWIDTH 500 0
DWIDTH 14 0
BBX 12 16 1 2
BITMAP
0060
0060
0FC0
3FC0
71E0
E1E0
C330
C730
C630
CC30
CC30
7860
78E0
3FC0
7F00
6000
ENDCHAR
STARTCHAR 2207
ENCODING 8711
SWIDTH 1000 0
DWIDTH 28 0
BBX 22 21 3 -1
BITMAP
FFFFFC
7FFFF8
700018
300030
380030
180060
1C0060
0C00C0
0E00C0
060180
070180
030300
038300
018600
01C600
00CC00
00EC00
007800
007800
003000
002000
ENDCHAR
STARTCHAR 2208
ENCODING 8712
SWIDTH 1000 0
DWIDTH 28 0
BBX 22 21 3 0
BITMAP
01FFFC
07FFFC
1E0000
380000
700000
600000
C00000
C00000
C00000
FFFFFC
FFFFFC
C00000
C00000
C00000
C00000
600000
700000
380000
1E0000
07FFFC
01FFFC
ENDCHAR
STARTCHAR 2209
ENCODING 8713
SWIDTH 500 0
DWIDTH 14 0
BBX 12 20 1 1
BITMAP
00C0
0180
07F0
1FF0
3980
7100
6300
C300
C300
FFF0
FFF0
C600
C600
E600
6C00
7C00
3C00
1FF0
1FF0
1800
ENDCHAR
STARTCHAR 220B
ENCODING 8715
SWIDTH 1000 0
DWIDTH 28 0
BBX 22 21 3 0
BITMAP
FFFE00
FFFF80
0001E0
000070
000038
000018
00000C
00000C
00000C
FFFFFC
FFFFFC
00000C
00000C
00000C
00001C
000018
000038
000070
0003E0
FFFFC0
FFFE00
ENDCHAR
STARTCHAR 2212
ENCODING 8722
SWIDTH 500 0
DWIDTH 14 0
BBX 12 2 1 10
BITMAP
FFF0
FFF0
ENDCHAR
STARTCHAR 2213
ENCODING 8723
SWIDTH 500 0
DWIDTH 14 0
BBX 12 20 1 0
BITMAP
FFF0
FFF0
0000
0000
0000
0600
0600
0600
0600
0600
0600
FFF0
FFF0
0600
0600
0600
0600
0600
0600
0600
ENDCHAR
STARTCHAR 221A
ENCODING 8730
SWIDTH 1000 0
DWIDTH 28 0
BBX 27 27 1 -2
BITMAP
0001FFE0
00030000
00030000
00030000
00060000
00060000
00060000
000C0000
000C0000
000C0000
00180000
00180000
00180000
10300000
18300000
18200000
3C600000
3C600000
6C400000
66C00000
46C00000
C7800000
43800000
03800000
01000000
01000000
01000000
ENDCHAR
STARTCHAR 221D
ENCODING 8733
SWIDTH 1000 0
DWIDTH 28 0
BBX 23 11 2 5
BITMAP
1F00F8
3FC3FC
70E70E
E07E04
C03C00
C01800
C03C00
E06606
70C70E
3F81FC
1F00F8
ENDCHAR
STARTCHAR 221E
ENCODING 8734
SWIDTH 1000 0
DWIDTH 28 0
BBX 24 11 2 5
BITMAP
1F00F8
3FC3FC
70E706
E07E07
C03C03
C01803
C03C03
E07E07
70E70E
3FC3FC
1F00F8
ENDCHAR
STARTCHAR 221F
ENCODING 8735
SWIDTH 1000 0
DWIDTH 28 0
BBX 23 23 3 0
BITMAP
C00000
C00000
C00000
C00000
C00000
C00000
C00000
C00000
C00000
C00000
C00000
C00000
C00000
C00000
C00000
C00000
C00000
C00000
C00000
C00000
C00000
FFFFFE
FFFFFE
ENDCHAR
STARTCHAR 2220
ENCODING 8736
SWIDTH 1000 0
DWIDTH 28 0
BBX 23 22 2 0
BITMAP
000004
00000E
00001C
000038
000070
0000E0
0001C0
000380
000700
000E00
001C00
003800
007000
00E000
01C000
038000
070000
0E0000
1C0000
380000
7FFFFE
FFFFFE
ENDCHAR
STARTCHAR 2225
ENCODING 8741
SWIDTH 1000 0
DWIDTH 28 0
BBX 15 25 6 -2
BITMAP
0042
00C6
00C6
00C6
018C
018C
018C
0318
0318
0618
0630
0630
0C30
0C60
0C60
18C0
18C0
18C0
3180
3180
3180
6300
6300
C300
4000
ENDCHAR
STARTCHAR 2226
ENCODING 8742
SWIDTH 500 0
DWIDTH 14 0
BBX 12 24 1 -1
BITMAP
0630
0630
0620
0460
0C60
0C60
0C60
E8C0
78C0
38C0
1CC0
1E80
1780
3380
31C0
31E0
3170
2320
6300
6300
6200
4600
C600
C600
ENDCHAR
STARTCHAR 2227
ENCODING 8743
SWIDTH 1000 0
DWIDTH 28 0
BBX 22 24 3 -1
BITMAP
002000
003000
003000
007800
007800
00CC00
00CC00
018600
018600
030300
030300
060180
060180
0C00C0
0C00C0
1C0060
180060
380060
300030
300030
600018
600018
C0000C
C0000C
ENDCHAR
STARTCHAR 2228
ENCODING 8744
SWIDTH 1000 0
DWIDTH 28 0
BBX 22 24 3 -2
BITMAP
C0000C
C0000C
600018
600018
300030
300030
180070
180060
180060
0C00C0
0C00C0
060180
060180
030300
030300
018600
018600
00CC00
00CC00
007800
007800
003000
003000
002000
ENDCHAR
STARTCHAR 2229
ENCODING 8745
SWIDTH 1000 0
DWIDTH 28 0
BBX 22 22 3 0
BITMAP
01FE00
07FF80
0F03C0
1C00E0
300030
700030
600018
600018
600018
C00008
C0000C
C0000C
C0000C
C0000C
C0000C
C0000C
C0000C
C0000C
C0000C
C0000C
C0000C
C0000C
ENDCHAR
STARTCHAR 222A
ENCODING 8746
SWIDTH 1000 0
DWIDTH 28 0
BBX 22 22 3 0
BITMAP
C0000C
C0000C
C0000C
C0000C
C0000C
C0000C
C0000C
C0000C
C0000C
C0000C
C0000C
C0000C
400008
600018
600018
600018
300030
300030
180060
0F03C0
07FF80
01FE00
ENDCHAR
STARTCHAR 222B
ENCODING 8747
SWIDTH 1000 0
DWIDTH 28 0
BBX 14 25 7 -2
BITMAP
0070
00F8
0198
018C
018C
0180
0100
0300
0300
0300
0300
0300
0300
0300
0300
0300
0300
0300
0600
0600
C600
C600
E600
7C00
3800
ENDCHAR
STARTCHAR 222C
ENCODING 8748
SWIDTH 1000 0
DWIDTH 28 0
BBX 24 25 2 -2
BITMAP
00703C
00F87E
01CC66
018C63
018C43
0180C0
0180C0
0180C0
0100C0
0300C0
0300C0
0300C0
0300C0
0300C0
0300C0
0300C0
030180
030180
030180
030180
C63180
C63180
663300
7C1F00
380E00
ENDCHAR
STARTCHAR 222E
ENCODING 8750
SWIDTH 1000 0
DWIDTH 28 0
BBX 14 25 7 -2
BITMAP
0070
00F8
0198
018C
018C
0180
0100
0300
0300
0FC0
1B20
1320
1320
1320
1320
0FC0
0300
0300
0600
0600
C600
C600
E600
7C00
3800
ENDCHAR
STARTCHAR 2234
ENCODING 8756
SWIDTH 1000 0
DWIDTH 28 0
BBX 18 18 5 2
BITMAP
00C000
01E000
01E000
00C000
000000
000000
000000
000000
000000
000000
000000
000000
000000
000000
600180
F003C0
F003C0
600180
ENDCHAR
STARTCHAR 2235
ENCODING 8757
SWIDTH 1000 0
DWIDTH 28 0
BBX 18 18 5 2
BITMAP
600180
F003C0
F003C0
600180
000000
000000
000000
000000
000000
000000
000000
000000
000000
000000
00C000
01E000
01E000
00C000
ENDCHAR
STARTCHAR 223D
ENCODING 8765
SWIDTH 1000 0
DWIDTH 28 0
BBX 24 11 2 5
BITMAP
1F00F8
3F81FC
70870E
E00E07
C00C03
C01803
C03003
E07007
70E10E
3FC1FC
1F00F8
ENDCHAR
STARTCHAR 2243
ENCODING 8771
SWIDTH 500 0
DWIDTH 14 0
BBX 12 9 1 6
BITMAP
7C10
FFF0
83E0
0000
0000
0000
0000
FFF0
FFF0
ENDCHAR
STARTCHAR 2245
ENCODING 8773
SWIDTH 500 0
DWIDTH 14 0
BBX 12 14 1 4
BITMAP
3800
FE10
C7F0
01E0
0000
0000
0000
FFF0
FFF0
0000
0000
0000
FFF0
FFF0
ENDCHAR
STARTCHAR 2248
ENCODING 8776
SWIDTH 500 0
DWIDTH 14 0
BBX 12 10 1 6
BITMAP
3800
FE10
C7F0
01E0
0000
0000
0000
FC10
FFF0
83E0
ENDCHAR
STARTCHAR 2252
ENCODING 8786
SWIDTH 1000 0
DWIDTH 28 0
BBX 20 18 4 1
BITMAP
060000
0F0000
060000
000000
000000
FFFFF0
FFFFF0
000000
000000
000000
FFFFF0
FFFFF0
000000
000000
000000
000600
000F00
000600
ENDCHAR
STARTCHAR 2260
ENCODING 8800
SWIDTH 1000 0
DWIDTH 28 0
BBX 20 20 4 1
BITMAP
000600
000600
000C00
000C00
001800
001800
FFFFF0
FFFFF0
003000
006000
006000
00C000
FFFFF0
FFFFF0
018000
038000
030000
030000
060000
060000
ENDCHAR
STARTCHAR 2261
ENCODING 8801
SWIDTH 1000 0
DWIDTH 28 0
BBX 20 14 4 4
BITMAP
FFFFF0
FFFFF0
000000
000000
000000
000000
FFFFF0
FFFFF0
000000
000000
000000
000000
FFFFF0
FFFFF0
ENDCHAR
STARTCHAR 2262
ENCODING 8802
SWIDTH 500 0
DWIDTH 14 0
BBX 12 20 1 1
BITMAP
00C0
0180
0180
0180
FFF0
FFF0
0300
0300
0600
FFF0
FFF0
0600
0C00
0C00
0C00
FFF0
FFF0
1800
1800
3000
ENDCHAR
STARTCHAR 2266
ENCODING 8806
SWIDTH 1000 0
DWIDTH 28 0
BBX 20 22 4 0
BITMAP
000030
0001F0
0007C0
003E00
01F000
0F8000
7E0000
FC0000
1F0000
03E000
007C00
000F80
0001F0
000070
000000
000000
FFFFF0
FFFFF0
000000
000000
FFFFF0
FFFFF0
ENDCHAR
STARTCHAR 2267
ENCODING 8807
SWIDTH 1000 0
DWIDTH 28 0
BBX 20 22 4 0
BITMAP
C00000
F80000
3E0000
07C000
00F800
001F00
0003E0
0003F0
000F80
007C00
03E000
1F0000
F80000
E00000
000000
000000
FFFFF0
FFFFF0
000000
000000
FFFFF0
FFFFF0
ENDCHAR
STARTCHAR 226A
ENCODING 8810
SWIDTH 1000 0
DWIDTH 28 0
BBX 22 25 3 -2
BITMAP
000E1C
001C38
003870
0070C0
00E180
01C300
038600
070C00
0E1800
183000
30E000
61C000
C38000
61C000
30E000
183000
0E1800
070C00
038600
01C300
00E180
0070C0
003870
001C38
000E1C
ENDCHAR
STARTCHAR 226B
ENCODING 8811
SWIDTH 1000 0
DWIDTH 28 0
BBX 22 25 3 -2
BITMAP
E1C000
70E000
387000
0C3800
061C00
030E00
018700
00C380
0061C0
003860
001C30
000E18
00070C
000E18
001C30
003860
0061C0
00C380
018700
030E00
061C00
0C3800
387000
70E000
E1C000
ENDCHAR
STARTCHAR 2276
ENCODING 8822
SWIDTH 500 0
DWIDTH 14 0
BBX 12 21 1 0
BITMAP
0030
00F0
03C0
0F00
3C00
F000
3800
1E00
0780
81E0
E070
7810
1E00
0780
01E0
00F0
03C0
0F00
3C00
F000
C000
ENDCHAR
STARTCHAR 2277
ENCODING 8823
SWIDTH 500 0
DWIDTH 14 0
BBX 12 21 1 0
BITMAP
C000
F000
3C00
0F00
03C0
00F0
01C0
0780
1E00
7810
E070
81E0
0780
1E00
7800
F000
3C00
0F00
03C0
00F0
0030
ENDCHAR
STARTCHAR 2282
ENCODING 8834
SWIDTH 1000 0
DWIDTH 28 0
BBX 22 21 3 0
BITMAP
01FFFC
07FFFC
1E0000
380000
700000
600000
C00000
C00000
C00000
C00000
C00000
C00000
C00000
C00000
C00000
600000
700000
380000
1E0000
0FFFFC
01FFFC
ENDCHAR
STARTCHAR 2283
ENCODING 8835
SWIDTH 1000 0
DWIDTH 28 0
BBX 22 21 3 0
BITMAP
FFFE00
FFFFC0
0001E0
000070
000038
000018
00000C
00000C
00000C
00000C
00000C
00000C
00000C
00000C
00000C
000018
000038
000070
0001E0
FFFF80
FFFE00
ENDCHAR
STARTCHAR 2284
ENCODING 8836
SWIDTH 500 0
DWIDTH 14 0
BBX 12 20 1 1
BITMAP
00C0
0180
07F0
1FF0
3D80
7180
6300
C300
C300
C300
C600
C600
C600
C600
6C00
7C00
3C00
1FF0
1FF0
1800
ENDCHAR
STARTCHAR 2285
ENCODING 8837
SWIDTH 500 0
DWIDTH 14 0
BBX 12 21 1 0
BITMAP
0180
0180
FF80
FF80
03C0
03E0
0360
0630
0630
0630
0630
0C30
0C30
0C30
0C60
18E0
1BC0
FF80
FE00
1800
3000
ENDCHAR
STARTCHAR 2286
ENCODING 8838
SWIDTH 1000 0
DWIDTH 28 0
BBX 22 21 3 0
BITMAP
07FFFC
1FFFFC
780000
600000
C00000
C00000
C00000
C00000
C00000
C00000
C00000
600000
780000
1FFFFC
07FFFC
000000
000000
000000
000000
FFFFFC
FFFFFC
ENDCHAR
STARTCHAR 2287
ENCODING 8839
SWIDTH 1000 0
DWIDTH 28 0
BBX 22 21 3 0
BITMAP
FFFF80
FFFFE0
000078
000018
00000C
00000C
00000C
00000C
00000C
00000C
00000C
000018
000078
FFFFE0
FFFF80
000000
000000
000000
000000
FFFFFC
FFFFFC
ENDCHAR
STARTCHAR 228A
ENCODING 8842
SWIDTH 500 0
DWIDTH 14 0
BBX 12 20 1 0
BITMAP
0FF0
3FF0
7000
6000
C000
C000
C000
C000
C000
6000
7000
3FF0
0FF0
0000
0000
0300
FFF0
FFF0
0C00
0C00
ENDCHAR
STARTCHAR 228B
ENCODING 8843
SWIDTH 500 0
DWIDTH 14 0
BBX 12 20 1 0
BITMAP
FF00
FFC0
00E0
0060
0030
0030
0030
0030
0030
0060
00E0
FFC0
FF00
0000
0000
0300
FFF0
FFF0
0C00
0C00
ENDCHAR
STARTCHAR 2295
ENCODING 8853
SWIDTH 500 0
DWIDTH 14 0
BBX 12 12 1 5
BITMAP
0F00
30C0
4620
8610
8610
8610
BFD0
8610
8610
4620
30C0
0F80
ENDCHAR
STARTCHAR 2296
ENCODING 8854
SWIDTH 500 0
DWIDTH 14 0
BBX 12 13 1 4
BITMAP
0F00
30C0
6020
C030
8010
8010
BFD0
8010
8010
C020
4020
30C0
0F00
ENDCHAR
STARTCHAR 2297
ENCODING 8855
SWIDTH 500 0
DWIDTH 14 0
BBX 12 12 1 5
BITMAP
0F00
30C0
4020
9090
9990
8F10
8610
8F10
9990
4020
30C0
0F80
ENDCHAR
STARTCHAR 22A5
ENCODING 8869
SWIDTH 1000 0
DWIDTH 28 0
BBX 24 23 2 0
BITMAP
001800
001800
001800
001800
001800
001800
001800
001800
001800
001800
001800
001800
001800
001800
001800
001800
001800
001800
001800
001800
001800
FFFFFF
FFFFFF
ENDCHAR
STARTCHAR 22BF
ENCODING 8895
SWIDTH 1000 0
DWIDTH 28 0
BBX 23 23 2 0
BITMAP
000002
000006
00000E
00001E
00003E
000076
0000E6
0001C6
000386
000706
000E06
001C06
003806
007006
00E006
01C006
038006
070006
0E0006
1C0006
380006
7FFFFE
FFFFFE
ENDCHAR
STARTCHAR 22DA
ENCODING 8922
SWIDTH 500 0
DWIDTH 14 0
BBX 12 24 1 -2
BITMAP
0010
00F0
03C0
0F00
7800
F800
1F00
03C0
00F0
0030
0000
FFF0
FFF0
0000
C000
F000
3C00
0F80
01E0
01F0
0F00
3C00
F000
8000
ENDCHAR
STARTCHAR 22DB
ENCODING 8923
SWIDTH 500 0
DWIDTH 14 0
BBX 12 24 1 -2
BITMAP
8000
F000
3C00
0F00
01E0
01F0
0F80
3C00
F000
C000
0000
FFF0
FFF0
0000
0030
00F0
03C0
1F00
7800
F800
0F00
03C0
00F0
0010
ENDCHAR
STARTCHAR 2305
ENCODING 8965
SWIDTH 500 0
DWIDTH 14 0
BBX 12 13 1 3
BITMAP
FFF0
FFF0
0000
0600
0600
0F00
0F00
1980
1980
30C0
30C0
6060
6060
ENDCHAR
STARTCHAR 2306
ENCODING 8966
SWIDTH 500 0
DWIDTH 14 0
BBX 12 17 1 2
BITMAP
FFF0
FFF0
0000
0000
FFF0
FFF0
0000
0600
0600
0F00
0F00
1980
1980
30C0
30C0
6060
6060
ENDCHAR
STARTCHAR 2312
ENCODING 8978
SWIDTH 1000 0
DWIDTH 28 0
BBX 26 5 1 17
BITMAP
00FFC000
0FFFFC00
3F003F00
F00003C0
C00000C0
ENDCHAR
STARTCHAR 2318
ENCODING 8984
SWIDTH 1000 0
DWIDTH 28 0
BBX 24 24 2 -1
BITMAP
3C003C
C60063
820041
820041
820041
C20043
FFFFFF
3FFFFC
020040
020040
020040
020040
020040
020040
020040
020040
3FFFFC
FFFFFF
C20043
820041
820041
820041
C60063
3C003E
ENDCHAR
STARTCHAR 23BE
ENCODING 9150
SWIDTH 1000 0
DWIDTH 28 0
BBX 15 28 13 -3
BITMAP
FFFE
C000
C000
C000
C000
C000
C000
C000
C000
C000
C000
C000
C000
C000
C000
C000
C000
C000
C000
C000
C000
C000
C000
C000
C000
C000
C000
C000
ENDCHAR
STARTCHAR 23BF
ENCODING 9151
SWIDTH 1000 0
DWIDTH 28 0
BBX 15 28 13 -3
BITMAP
C000
C000
C000
C000
C000
C000
C000
C000
C000
C000
C000
C000
C000
C000
C000
C000
C000
C000
C000
C000
C000
C000
C000
C000
C000
C000
C000
FFFE
ENDCHAR
STARTCHAR 23C0
ENCODING 9152
SWIDTH 1000 0
DWIDTH 28 0
BBX 22 28 3 -3
BITMAP
003000
003000
003000
003000
03FF00
063180
183060
103020
203010
603018
403008
403008
C0300C
C0300C
80300C
C0300C
403008
403008
603018
203010
103020
183060
063180
03FF00
003800
003000
003000
003000
ENDCHAR
STARTCHAR 23C1
ENCODING 9153
SWIDTH 1000 0
DWIDTH 28 0
BBX 28 28 0 -3
BITMAP
FFFFFFF0
00060000
00060000
000F0000
007FE000
01C61000
03060C00
06060400
04060200
08060300
08060100
08060100
18060180
18060180
10060180
18060180
08060100
08060100
0C060300
04060200
02060400
03060C00
00C63000
007FE000
00060000
00060000
00060000
00060000
ENDCHAR
STARTCHAR 23C2
ENCODING 9154
SWIDTH 1000 0
DWIDTH 28 0
BBX 28 28 0 -3
BITMAP
00060000
00060000
00060000
00060000
007FE000
00C63000
03060800
02060400
04060200
0C060300
08060100
08060100
18060180
18060180
10060180
18060180
08060100
08060100
0C060300
04060200
06060600
03060C00
01861800
007FE000
000F0000
00060000
00060000
FFFFFFF0
ENDCHAR
STARTCHAR 23C3
ENCODING 9155
SWIDTH 1000 0
DWIDTH 28 0
BBX 24 28 2 -3
BITMAP
001800
001800
001800
001800
001800
001800
003C00
007E00
005A00
00DB00
009900
019980
011880
021840
061860
041820
0C1830
081810
181808
101808
201804
601806
401802
FFFFFF
001800
001800
001800
001800
ENDCHAR
STARTCHAR 23C4
ENCODING 9156
SWIDTH 1000 0
DWIDTH 28 0
BBX 28 28 0 -3
BITMAP
FFFFFFF0
00060000
00060000
00060000
00060000
00060000
000F0000
001F8000
00168000
0036C000
00264000
00662000
00462000
00861000
01861800
01060800
03060C00
02060400
06060200
04060200
08060100
18060180
10060080
3FFFFFC0
00060000
00060000
00060000
00060000
ENDCHAR
STARTCHAR 23C5
ENCODING 9157
SWIDTH 1000 0
DWIDTH 28 0
BBX 28 28 0 -3
BITMAP
00060000
00060000
00060000
00060000
00060000
00060000
000F0000
001F8000
00168000
0036C000
00264000
00666000
00462000
00861000
01861800
01060800
03060C00
02060400
06060600
04060200
08060100
18060180
10060080
3FFFFFC0
00060000
00060000
00060000
FFFFFFF0
ENDCHAR
STARTCHAR 23C6
ENCODING 9158
SWIDTH 1000 0
DWIDTH 28 0
BBX 24 28 2 -3
BITMAP
001800
001800
001800
001800
001800
001800
001800
001800
001800
001800
001800
3F1800
C0D800
803800
001C01
001F03
0018FC
001800
001800
001800
001800
001800
001800
001800
001800
001800
001800
001800
ENDCHAR
STARTCHAR 23C7
ENCODING 9159
SWIDTH 1000 0
DWIDTH 28 0
BBX 28 28 0 -3
BITMAP
FFFFFFF0
00060000
00060000
00060000
00060000
00060000
00060000
00060000
00060000
00060000
00060000
0FC60000
303E0000
000E0000
00070040
0006C0C0
00063F00
00060000
00060000
00060000
00060000
00060000
00060000
00060000
00060000
00060000
00060000
00060000
ENDCHAR
STARTCHAR 23C8
ENCODING 9160
SWIDTH 1000 0
DWIDTH 28 0
BBX 28 28 0 -3
BITMAP
00060000
00060000
00060000
00060000
00060000
00060000
00060000
00060000
00060000
00060000
00060000
0FC60000
30360000
200E0000
00070000
0007C0C0
00063F00
00060000
00060000
00060000
00060000
00060000
00060000
00060000
00060000
00060000
00060000
FFFFFFF0
ENDCHAR
STARTCHAR 23C9
ENCODING 9161
SWIDTH 1000 0
DWIDTH 28 0
BBX 28 28 0 -3
BITMAP
FFFFFFF0
00060000
00060000
00060000
00060000
00060000
00060000
00060000
00060000
00060000
00060000
00060000
00060000
00060000
00060000
00060000
00060000
00060000
00060000
00060000
00060000
00060000
00060000
00060000
00060000
00060000
00060000
00060000
ENDCHAR
STARTCHAR 23CA
ENCODING 9162
SWIDTH 1000 0
DWIDTH 28 0
BBX 28 28 0 -3
BITMAP
00060000
00060000
00060000
00060000
00060000
00060000
00060000
00060000
00060000
00060000
00060000
00060000
00060000
00060000
00060000
00060000
00060000
00060000
00060000
00060000
00060000
00060000
00060000
00060000
00060000
00060000
00060000
FFFFFFF0
ENDCHAR
STARTCHAR 23CB
ENCODING 9163
SWIDTH 1000 0
DWIDTH 28 0
BBX 15 28 0 -3
BITMAP
FFFE
0006
0006
0006
0006
0006
0006
0006
0006
0006
0006
0006
0006
0006
0006
0006
0006
0006
0006
0006
0006
0006
0006
0006
0006
0006
0006
0006
ENDCHAR
STARTCHAR 23CC
ENCODING 9164
SWIDTH 1000 0
DWIDTH 28 0
BBX 15 28 0 -3
BITMAP
0006
0006
0006
0006
0006
0006
0006
0006
0006
0006
0006
0006
0006
0006
0006
0006
0006
0006
0006
0006
0006
0006
0006
0006
0006
0006
0006
FFFE
ENDCHAR
STARTCHAR 23CE
ENCODING 9166
SWIDTH 1000 0
DWIDTH 28 0
BBX 23 23 2 -2
BITMAP
0001FE
000102
000102
000102
000102
000102
000102
008102
018102
038102
068102
1CFF02
300002
600002
C00006
C00006
60000C
30001C
0CFFF0
068000
038000
018000
008000
ENDCHAR
STARTCHAR 2423
ENCODING 9251
SWIDTH 1000 0
DWIDTH 28 0
BBX 22 6 3 -1
BITMAP
C0000C
C0000C
C0000C
C0000C
FFFFFC
FFFFFC
ENDCHAR
STARTCHAR 2460
ENCODING 9312
SWIDTH 1000 0
DWIDTH 28 0
BBX 26 26 1 -2
BITMAP
007F8000
01C0E000
06001800
0C000C00
180E0600
303E0300
607E0100
406E0080
C00E0080
C00E00C0
800E0040
800E0040
800E0040
800E0040
800E0040
800E0040
C00E00C0
400E0080
400E0080
200E0100
300E0300
180E0600
0C000C00
06001800
01C0E000
007F0000
ENDCHAR
STARTCHAR 2461
ENCODING 9313
SWIDTH 1000 0
DWIDTH 28 0
BBX 26 27 1 -3
BITMAP
007F0000
01C0E000
06001800
0C000C00
181F0600
307F8300
20F1C100
60C0E180
41C06080
C1C060C0
8000E040
8000C040
8001C040
80078040
800E0040
801C0040
80300040
C06000C0
40E00080
60C00180
21FFE100
31FFE300
18000600
0C000C00
06001800
01C0E000
007F0000
ENDCHAR
STARTCHAR 2462
ENCODING 9314
SWIDTH 1000 0
DWIDTH 28 0
BBX 26 26 1 -2
BITMAP
003F8000
01C0E000
02001800
0C000C00
181F0600
307F8300
20E1C100
41C0C080
41C0E080
C000E0C0
8000C040
8001C040
803F0040
803F8040
8001E040
80006040
C00060C0
41807080
41C06080
21E1E100
30FFC300
183F0600
0C000C00
06001800
01C0E000
007F0000
ENDCHAR
STARTCHAR 2463
ENCODING 9315
SWIDTH 1000 0
DWIDTH 28 0
BBX 26 26 1 -2
BITMAP
007F8000
01C0E000
06001800
0C000C00
18070600
30070300
600F0100
401F0080
C01B0080
C03B00C0
80730040
80630040
80C30040
81C30040
81830040
83030040
C3FFF0C0
43FFF080
40030080
20030100
30030300
18030600
0C000C00
06001800
01C0E000
007F0000
ENDCHAR
STARTCHAR 2464
ENCODING 9316
SWIDTH 1000 0
DWIDTH 28 0
BBX 26 26 1 -2
BITMAP
003F8000
01C0E000
02001800
04000C00
18000600
10FFC300
20FFC100
40C00080
40C00080
C0C000C0
80CF0040
80FF8040
80E1C040
80C0E040
80406040
80006040
C00060C0
C0006080
41C0E080
60E1C100
307F8300
181F0600
0C000C00
06001800
01C0E000
007F0000
ENDCHAR
STARTCHAR 2465
ENCODING 9317
SWIDTH 1000 0
DWIDTH 28 0
BBX 26 26 1 -3
BITMAP
007F8000
03C0E000
06001800
0C000C00
181F0600
303F8300
6071C100
40C0E080
C0C00080
C1C000C0
819F0040
81BF8040
81E1C040
81C0E040
81C06040
81806040
C18060C0
41C06080
40C0E080
20E1C100
307F8300
181F0600
0C000C00
06001800
01C0E000
007F0000
ENDCHAR
STARTCHAR 2466
ENCODING 9318
SWIDTH 1000 0
DWIDTH 28 0
BBX 26 27 1 -3
BITMAP
007F0000
01C0E000
06001800
0C000C00
18000600
31FFE300
21FFE100
6000E180
4000C080
C001C0C0
80018040
80018040
80030040
80030040
80070040
80060040
80060040
C00E00C0
400C0080
601C0180
201C0100
30180300
18380600
0C000C00
06001800
01C0E000
007F0000
ENDCHAR
STARTCHAR 2467
ENCODING 9319
SWIDTH 1000 0
DWIDTH 28 0
BBX 26 27 1 -3
BITMAP
007F0000
01C0E000
06001800
0C000C00
183F0600
307F8300
20E1C100
61C0E180
41806080
C18060C0
81C0E040
80E1C040
807F8040
807F8040
80E1C040
81C0E040
81806040
C38070C0
43806080
61C06180
21E1E100
30FFC300
183F0600
0C000C00
06001800
01C0E000
007F0000
ENDCHAR
STARTCHAR 2468
ENCODING 9320
SWIDTH 1000 0
DWIDTH 28 0
BBX 26 26 1 -3
BITMAP
007F8000
03C0E000
06001800
0C000C00
181F0600
307F8300
60E1C100
40C0E080
C1C06080
C1C060C0
81C06040
80C0E040
80E1E040
807FE040
803E6040
80006040
C00060C0
40C0E080
40C0C080
20E1C100
307F8300
181F0600
0C000C00
06001800
01C0E000
007F0000
ENDCHAR
STARTCHAR 2469
ENCODING 9321
SWIDTH 1000 0
DWIDTH 28 0
BBX 26 27 1 -3
BITMAP
003F0000
01C0E000
02001800
04000C00
08000600
1183C300
2787F100
678E3180
438C1880
C38C18C0
839C1840
839C1840
83981C40
83981C40
83981C40
839C1C40
839C1840
C38C18C0
438C1880
638E3180
2387F100
3383C300
18000600
0C000C00
06001800
01C0E000
007F0000
ENDCHAR
STARTCHAR 246A
ENCODING 9322
SWIDTH 1000 0
DWIDTH 28 0
BBX 26 27 1 -3
BITMAP
003F0000
01C0E000
02001800
04000C00
08000600
11C06300
23C0E100
67C1E180
45C16080
C1C060C0
81C06040
81C06040
81C06040
81C06040
81C06040
81C06040
81C06040
C1C060C0
41C06080
61C06180
21C06100
31C06300
18000600
0C000C00
06001800
01C0E000
007F0000
ENDCHAR
STARTCHAR 246B
ENCODING 9323
SWIDTH 1000 0
DWIDTH 28 0
BBX 26 27 1 -3
BITMAP
003F0000
01C0E000
02001800
04000C00
08000600
1183C300
2787F100
678E3180
438C3880
C39C18C0
83803840
83803040
83807040
8380E040
8381C040
83838040
83870040
C38600C0
438C0080
638C0180
239FF900
339FFB00
18000600
0C000C00
06001800
01C0E000
007F0000
ENDCHAR
STARTCHAR 246C
ENCODING 9324
SWIDTH 1000 0
DWIDTH 28 0
BBX 26 27 1 -3
BITMAP
003F0000
01C0E000
02001800
04000C00
08000600
1183E300
278FF100
678C3180
439C3080
C38038C0
83803040
83807040
8383E040
8383E040
83803040
83801840
83801840
C39818C0
43981880
638C3980
238FF100
3383C300
18000600
0C000C00
06001800
01C0E000
007F0000
ENDCHAR
STARTCHAR 246D
ENCODING 9325
SWIDTH 1000 0
DWIDTH 28 0
BBX 26 27 1 -3
BITMAP
003F0000
01C0E000
02001800
04000C00
08000600
11806300
2780E100
6780E180
4381E080
C383E0C0
83836040
83866040
838E6040
838C6040
839C6040
83986040
83BFFC40
C3BFFCC0
43806080
63806180
23806100
33806300
18000600
0C000C00
06001800
01C0E000
007F0000
ENDCHAR
STARTCHAR 246E
ENCODING 9326
SWIDTH 1000 0
DWIDTH 28 0
BBX 26 27 1 -3
BITMAP
003F0000
01C0E000
02001800
04000C00
08000600
118FF300
278FF100
678C0180
4B8C0080
C38C00C0
838C0040
838FE040
838FF040
838C3840
83803840
83801840
83801840
C38018C0
43981880
638C3180
238FF100
3383C300
18000600
0C000C00
06001800
01C0E000
007F0000
ENDCHAR
STARTCHAR 246F
ENCODING 9327
SWIDTH 1000 0
DWIDTH 28 0
BBX 26 27 1 -3
BITMAP
003F0000
01C0E000
02001800
04000C00
08000600
1183E300
2787F100
678E3980
438C1880
C38C00C0
83980040
8399E040
839BF040
839E3040
839C3840
83981840
83981840
C39C18C0
438C3880
638E3180
2387F100
3383C300
18000600
0C000C00
06001800
01C0E000
007F0000
ENDCHAR
STARTCHAR 2470
ENCODING 9328
SWIDTH 1000 0
DWIDTH 28 0
BBX 26 27 1 -3
BITMAP
003F0000
01C0E000
02001800
04000C00
08000600
119FFB00
279FF900
67803180
41803080
C18060C0
81806040
81806040
8180C040
8180C040
8181C040
81818040
81818040
C18380C0
41838080
61830180
21830100
31870300
18000600
0C000C00
06001800
01C0E000
007F0000
ENDCHAR
STARTCHAR 2471
ENCODING 9329
SWIDTH 1000 0
DWIDTH 28 0
BBX 26 27 1 -3
BITMAP
003F0000
01C0E000
02001800
04000C00
08000600
1183C300
278FF100
678C3180
43983880
C39818C0
83983040
838C7040
8387E040
838FF040
839C3840
83981840
83981840
C39818C0
43981880
639C3980
238FF100
3387C300
18000600
0C000C00
06001800
01C0E000
007F0000
ENDCHAR
STARTCHAR 2472
ENCODING 9330
SWIDTH 1000 0
DWIDTH 28 0
BBX 26 27 1 -3
BITMAP
003F0000
01C0E000
02001800
04000C00
08000600
1183C300
2787F100
678C3180
438C1880
C39818C0
83981840
83981840
839C3840
838E7840
838FF840
8383D840
83801840
C38038C0
439C3080
638C7180
238FE100
3383C300
18000600
0C000C00
06001800
01C0E000
007F0000
ENDCHAR
STARTCHAR 2473
ENCODING 9331
SWIDTH 1000 0
DWIDTH 28 0
BBX 26 27 1 -3
BITMAP
007F0000
01C0E000
06001800
0C000C00
19E0F600
33F1FB00
23399900
661B1D80
461B0C80
C61B0CC0
803B0C40
80330C40
80730C40
80E30C40
80C30C40
81830C40
83830C40
C3030CC0
43031C80
66019980
27F9F900
37F8F300
18000600
0C000C00
06001800
01C0E000
007F0000
ENDCHAR
STARTCHAR 24D0
ENCODING 9424
SWIDTH 1000 0
DWIDTH 28 0
BBX 26 26 1 -2
BITMAP
007F8000
01C0E000
06001800
0C000C00
18000600
30000300
60000100
403E0080
C07F8080
C0E180C0
80C1C040
8000C040
803FC040
8078C040
80C0C040
80C1C040
C0C3C0C0
40FFE080
407CE080
20000100
30000300
18000600
0C000C00
06001800
01C0E000
007F0000
ENDCHAR
STARTCHAR 24D1
ENCODING 9425
SWIDTH 1000 0
DWIDTH 28 0
BBX 26 26 1 -3
BITMAP
007F8000
01C0E000
06001800
0C000C00
18C00600
30C00300
60C00100
40C00080
C0C00080
C0CF80C0
80D8C040
80E06040
80E06040
80C06040
80C07040
80C06040
C0E060C0
40E0E080
40F1C080
20CF8100
30000300
18000600
0C000C00
06001800
01C0E000
007F0000
ENDCHAR
STARTCHAR 24D2
ENCODING 9426
SWIDTH 1000 0
DWIDTH 28 0
BBX 26 26 1 -3
BITMAP
007F8000
03C0E000
06001800
0C000C00
18000600
30000300
60000100
401E0080
C07F8080
C0E1C0C0
80C0C040
81C00040
81C00040
81C00040
80C0C040
80E1C040
C07F80C0
401E0080
40000080
20000100
30000300
18000600
0C000C00
06001800
01C0E000
007F0000
ENDCHAR
STARTCHAR 24D3
ENCODING 9427
SWIDTH 1000 0
DWIDTH 28 0
BBX 26 26 1 -3
BITMAP
007F8000
01C0E000
06001800
0C000C00
1800C600
3000C300
6000C100
4000C080
C000C080
C07CC0C0
80C6C040
8181C040
8181C040
8180C040
8380C040
8180C040
C181C0C0
4181C080
40C2C080
207CC100
30000300
18000600
0C000C00
06001800
01C0E000
007F0000
ENDCHAR
STARTCHAR 24D4
ENCODING 9428
SWIDTH 1000 0
DWIDTH 28 0
BBX 26 26 1 -2
BITMAP
007F8000
01C0E000
06001800
0C000C00
18000600
30000300
60000100
401E0080
C07F8080
C0E180C0
80C0C040
80C0C040
81FFC040
81FFE040
80C00040
80C0C040
C0E1C0C0
407F8080
401F0080
20000100
30000300
18000600
0C000C00
06001800
01C0E000
007F0000
ENDCHAR
STARTCHAR 24D5
ENCODING 9429
SWIDTH 1000 0
DWIDTH 28 0
BBX 26 27 1 -3
BITMAP
007F0000
01C0E000
06001800
0C000C00
18000600
300F8300
601F8100
60180180
40180080
C01800C0
80180040
80FF8040
80FF8040
80180040
80180040
80180040
80180040
C01800C0
40180080
60180180
20180100
30180300
18000600
0C000C00
06001800
01C0E000
007F0000
ENDCHAR
STARTCHAR 24D6
ENCODING 9430
SWIDTH 1000 0
DWIDTH 28 0
BBX 26 27 1 -3
BITMAP
007F0000
01C0E000
06001800
0C000C00
18000600
30000300
601EC100
6063C180
40C1C080
C0C0C0C0
80C0C040
80C0C040
80C0C040
80C1C040
8063C040
803EC040
8000C040
C0C0C0C0
40408080
60618180
203F0100
30000300
18000600
0C000C00
06001800
01C0E000
007F0000
ENDCHAR
STARTCHAR 24D7
ENCODING 9431
SWIDTH 1000 0
DWIDTH 28 0
BBX 26 26 1 -2
BITMAP
003F8000
01C0E000
02001800
0C000C00
18000600
30600300
20600100
40600080
40600080
C06000C0
806F8040
807FC040
8070C040
8060E040
80606040
80606040
C06060C0
40606080
40606080
60606100
30606300
18000600
0C000C00
06001800
01C0E000
007F0000
ENDCHAR
STARTCHAR 24D8
ENCODING 9432
SWIDTH 1000 0
DWIDTH 28 0
BBX 26 27 1 -3
BITMAP
007F0000
01C0E000
06001800
0C000C00
18000600
300C0300
200C0100
600C0180
40000080
C00000C0
800C0040
800C0040
800C0040
800C0040
800C0040
800C0040
800C0040
C00C00C0
400C0080
600C0180
200C0100
300C0300
18000600
0C000C00
06001800
01C0E000
007F0000
ENDCHAR
STARTCHAR 24D9
ENCODING 9433
SWIDTH 1000 0
DWIDTH 28 0
BBX 26 26 1 -2
BITMAP
007F8000
01C0E000
06001800
0C060C00
18060600
30000300
60000100
40000080
C0060080
C00600C0
80060040
80060040
80060040
80060040
80060040
80060040
C00600C0
40060080
40060080
20060100
307E0300
187C0600
0C000C00
06001800
01C0E000
007F0000
ENDCHAR
STARTCHAR 24DA
ENCODING 9434
SWIDTH 1000 0
DWIDTH 28 0
BBX 26 26 1 -2
BITMAP
003F8000
01C0E000
02001800
0C000C00
18000600
30600300
20600100
40600080
40600080
C06000C0
8061C040
80638040
80670040
806E0040
807C0040
80760040
C06300C0
40638080
4061C080
6060C100
30606300
18000600
0C000C00
06001800
01C0E000
007F0000
ENDCHAR
STARTCHAR 24DB
ENCODING 9435
SWIDTH 1000 0
DWIDTH 28 0
BBX 26 27 1 -3
BITMAP
007F0000
01C0E000
06001800
0C000C00
18000600
300C0300
200C0100
600C0180
400C0080
C00C00C0
800C0040
800C0040
800C0040
800C0040
800C0040
800C0040
800C0040
C00C00C0
400C0080
600C0180
200C0100
300C0300
18000600
0C000C00
06001800
01C0E000
007F0000
ENDCHAR
STARTCHAR 24DC
ENCODING 9436
SWIDTH 1000 0
DWIDTH 28 0
BBX 26 27 1 -3
BITMAP
003F0000
01C0E000
02001800
04000C00
18000600
10000300
20000100
60000180
4379E080
C3FFF0C0
838E3040
830C3040
830C3040
830C3040
830C3040
830C3040
830C3040
C30C30C0
430C3080
60000180
20000100
30000300
18000600
0C000C00
06001800
01C0E000
007F0000
ENDCHAR
STARTCHAR 24DD
ENCODING 9437
SWIDTH 1000 0
DWIDTH 28 0
BBX 26 27 1 -3
BITMAP
003F0000
01C0E000
02001800
04000C00
18000600
10000300
20000100
60000180
40CF0080
C0FF80C0
80F1C040
80E0C040
80C0C040
80C0C040
80C0C040
80C0C040
80C0C040
C0C0C0C0
40C0C080
60000180
20000100
30000300
18000600
0C000C00
06001800
01C0E000
007F0000
ENDCHAR
STARTCHAR 24DE
ENCODING 9438
SWIDTH 1000 0
DWIDTH 28 0
BBX 26 27 1 -3
BITMAP
007F0000
01C0E000
06001800
0C000C00
18000600
30000300
20000100
601E0180
407F8080
C0E1C0C0
80C0C040
80C0C040
81C0E040
81C0E040
80C0C040
80C0C040
80E1C040
C07F80C0
401E0080
60000180
20000100
30000300
18000600
0C000C00
06001800
01C0E000
007F0000
ENDCHAR
STARTCHAR 24DF
ENCODING 9439
SWIDTH 1000 0
DWIDTH 28 0
BBX 26 27 1 -3
BITMAP
003F0000
01C0E000
02001800
0C000C00
18000600
30000300
20000100
60CF8180
40F0C080
C0E060C0
80E06040
80C03040
80C03040
80C03040
80E06040
80E06040
80D0C040
C0CF80C0
40C00080
60C00180
20C00100
30000300
18000600
0C000C00
06001800
01C0E000
007F0000
ENDCHAR
STARTCHAR 24E0
ENCODING 9440
SWIDTH 1000 0
DWIDTH 28 0
BBX 26 27 1 -3
BITMAP
003F0000
01C0E000
02001800
0C000C00
18000600
30000300
20000100
607CC180
40C2C080
C181C0C0
8181C040
8300C040
8300C040
8300C040
8181C040
8181C040
80C2C040
C07CC0C0
4000C080
6000C180
2000C100
30000300
18000600
0C000C00
06001800
01C0E000
007F0000
ENDCHAR
STARTCHAR 24E1
ENCODING 9441
SWIDTH 1000 0
DWIDTH 28 0
BBX 26 27 1 -3
BITMAP
007F0000
01C0E000
06001800
0C000C00
18000600
30000300
20000100
60000180
4018C080
C01BC0C0
801F0040
801C0040
80180040
80180040
80180040
80180040
80180040
C01800C0
40180080
60180180
20000100
30000300
18000600
0C000C00
06001800
01C0E000
007F0000
ENDCHAR
STARTCHAR 24E2
ENCODING 9442
SWIDTH 1000 0
DWIDTH 28 0
BBX 26 26 1 -2
BITMAP
003F8000
01C0E000
02001800
0C000C00
18000600
30000300
20000100
40000080
403E0080
C06380C0
80618040
80600040
807C0040
801F0040
80078040
80C1C040
C0C0C0C0
40618080
403F0080
60000100
30000300
18000600
0C000C00
06001800
01C0E000
007F0000
ENDCHAR
STARTCHAR 24E3
ENCODING 9443
SWIDTH 1000 0
DWIDTH 28 0
BBX 26 27 1 -3
BITMAP
007F0000
01C0E000
06001800
0C000C00
18000600
30000300
60180100
60180180
40180080
C0FF00C0
80FF0040
80180040
80180040
80180040
80180040
80180040
80180040
C01800C0
40180080
601F8180
200F8100
30000300
18000600
0C000C00
06001800
01C0E000
007F0000
ENDCHAR
STARTCHAR 24E4
ENCODING 9444
SWIDTH 1000 0
DWIDTH 28 0
BBX 26 27 1 -3
BITMAP
003F0000
01C0E000
02001800
04000C00
18000600
10000300
20000100
60000180
40C0C080
C0C0C0C0
80C0C040
80C0C040
80C0C040
80C0C040
80C0C040
80C1C040
80E3C040
C07FC0C0
403CC080
60000180
20000100
30000300
18000600
0C000C00
06001800
01C0E000
007F0000
ENDCHAR
STARTCHAR 24E5
ENCODING 9445
SWIDTH 1000 0
DWIDTH 28 0
BBX 26 26 1 -3
BITMAP
007F8000
03C0E000
06001800
0C000C00
18000600
30000300
60000100
40000080
C1806080
C1C0E0C0
80C0C040
80E1C040
80618040
80638040
80330040
80330040
C01E00C0
401E0080
400C0080
20000100
30000300
18000600
0C000C00
06001800
01C0E000
007F0000
ENDCHAR
STARTCHAR 24E6
ENCODING 9446
SWIDTH 1000 0
DWIDTH 28 0
BBX 26 26 1 -3
BITMAP
007F8000
03C0E000
06001800
0C000C00
18000600
30000300
60000100
40000080
CE0C1C80
C61E18C0
861E1840
831E3040
83123040
83333040
81B36040
81A16040
C1E1E0C0
40E1C080
40E1C080
20000100
30000300
18000600
0C000C00
06001800
01C0E000
007F0000
ENDCHAR
STARTCHAR 24E7
ENCODING 9447
SWIDTH 1000 0
DWIDTH 28 0
BBX 26 27 1 -3
BITMAP
003F0000
01C0E000
02001800
04000C00
18000600
10000300
20000100
60000180
41C0E080
C0E1C0C0
80738040
80330040
801E0040
801C0040
801E0040
80330040
80618040
C0C0C0C0
41C0E080
60000180
20000100
30000300
18000600
0C000C00
06001800
01C0E000
007F0000
ENDCHAR
STARTCHAR 24E8
ENCODING 9448
SWIDTH 1000 0
DWIDTH 28 0
BBX 26 26 1 -2
BITMAP
003F8000
01C0E000
02001800
04000C00
18000600
10000300
20000100
40C07080
40C06080
C060E0C0
8060C040
8031C040
80318040
801B8040
801B0040
800F0040
C00E00C0
400E0080
400C0080
60F80100
30F00300
18000600
0C000C00
06001800
01C0E000
007F0000
ENDCHAR
STARTCHAR 24E9
ENCODING 9449
SWIDTH 1000 0
DWIDTH 28 0
BBX 26 27 1 -3
BITMAP
003F0000
01C0E000
02001800
04000C00
18000600
10000300
20000100
60000180
40FFC080
C0FFC0C0
80018040
80070040
800E0040
801C0040
80380040
80700040
80E00040
C0FFC0C0
40FFC080
60000180
20000100
30000300
18000600
0C000C00
06001800
01C0E000
007F0000
ENDCHAR
STARTCHAR 24EB
ENCODING 9451
SWIDTH 1000 0
DWIDTH 28 0
BBX 26 27 1 -3
BITMAP
003F0000
01FFE000
03FFF800
07FFFC00
0FFFFE00
1E7FCF00
387F0F00
787F0F80
7E7FCF80
FE7FCFC0
FE7FCFC0
FE7FCFC0
FE7FCFC0
FE7FCFC0
FE7FCFC0
FE7FCFC0
FE7FCFC0
FE7FCFC0
7E7FCF80
7E7FCF80
3E7FCF00
3E7FCF00
1FFFFE00
0FFFFC00
07FFF800
01FFE000
007F0000
ENDCHAR
STARTCHAR 24EC
ENCODING 9452
SWIDTH 1000 0
DWIDTH 28 0
BBX 26 27 1 -3
BITMAP
003F0000
01FFE000
03FFF800
07FFFC00
0FFFFE00
1CFC1F00
38F9CF00
70F3E780
7CF3E780
FCF3E7C0
FCFFE7C0
FCFFC7C0
FCFF8FC0
FCFF0FC0
FCFE1FC0
FCFC7FC0
FCF8FFC0
FCF9FFC0
7CF1FF80
7CF3FF80
3CF00700
3CE00700
1FFFFE00
0FFFFC00
07FFF800
01FFE000
007F0000
ENDCHAR
STARTCHAR 24ED
ENCODING 9453
SWIDTH 1000 0
DWIDTH 28 0
BBX 26 27 1 -3
BITMAP
003F0000
01FFE000
03FFF800
07FFFC00
0FFFFE00
1CFC3F00
38F80F00
70F3CF80
74F3E780
FCFFE7C0
FCFFC7C0
FCFFCFC0
FCFC1FC0
FCFC0FC0
FCFFC7C0
FCFFE7C0
FCFFE7C0
FCE3E7C0
7CF3E780
7CF1C780
3CF80F00
3CFC1F00
1FFFFE00
0FFFFC00
07FFF800
01FFE000
007F0000
ENDCHAR
STARTCHAR 24EE
ENCODING 9454
SWIDTH 1000 0
DWIDTH 28 0
BBX 26 27 1 -3
BITMAP
003F0000
01FFE000
03FFF800
07FFFC00
0FFFFE00
1CFF8F00
38FF0F00
70FF0F80
74FE0F80
FCFE4FC0
FCFCCFC0
FCF8CFC0
FCF9CFC0
FCF3CFC0
FCF3CFC0
FCE7CFC0
FCE003C0
FCE003C0
7CFFCF80
7CFFCF80
3CFFCF00
3CFFCF00
1FFFFE00
0FFFFC00
07FFF800
01FFE000
007F0000
ENDCHAR
STARTCHAR 24EF
ENCODING 9455
SWIDTH 1000 0
DWIDTH 28 0
BBX 26 27 1 -3
BITMAP
003F0000
01FFE000
03FFF800
07FFFC00
0FFFFE00
1CF00F00
38F00F00
70F3FF80
74F3FF80
FCF3FFC0
FCF3FFC0
FCF21FC0
FCF00FC0
FCF3C7C0
FCFFE7C0
FCFFE7C0
FCFFE7C0
FCFFE7C0
7CE3E780
7CF3C780
3CF80F00
3CFC3F00
1FFFFE00
0FFFFC00
07FFF800
01FFE000
007F0000
ENDCHAR
STARTCHAR 24F0
ENCODING 9456
SWIDTH 1000 0
DWIDTH 28 0
BBX 26 27 1 -3
BITMAP
003F0000
01FFE000
03FFF800
07FFFC00
0FFFFE00
1CFE1F00
38F80F00
70F9C780
74F3E780
FCF3FFC0
FCF3FFC0
FCF21FC0
FCE40FC0
FCE1C7C0
FCE3E7C0
FCE3E7C0
FCE3E7C0
FCF3E7C0
7CF3E780
7CF1C780
3CF80F00
3CFC1F00
1FFFFE00
0FFFFC00
07FFF800
01FFE000
007F0000
ENDCHAR
STARTCHAR 24F1
ENCODING 9457
SWIDTH 1000 0
DWIDTH 28 0
BBX 26 27 1 -3
BITMAP
003F0000
01FFE000
03FFF800
07FFFC00
0FFFFE00
1E600700
38600700
707FC780
747FCF80
FC7FCFC0
FC7F9FC0
FC7F9FC0
FC7F1FC0
FC7F3FC0
FC7F3FC0
FC7E3FC0
FC7E7FC0
FC7E7FC0
7C7C7F80
7C7C7F80
3C7CFF00
3C7CFF00
1FFFFE00
0FFFFC00
07FFF800
01FFE000
007F0000
ENDCHAR
STARTCHAR 24F2
ENCODING 9458
SWIDTH 1000 0
DWIDTH 28 0
BBX 26 27 1 -3
BITMAP
003F0000
01FFE000
03FFF800
07FFFC00
0FFFFE00
1CFC3F00
38F80F00
70F1C780
74F3E780
FCE3E7C0
FCF3E7C0
FCF1CFC0
FCF81FC0
FCF80FC0
FCF3C7C0
FCE7E7C0
FCE7E3C0
FCE7E3C0
7CE7E780
7CE3C780
3CF00F00
3CFC1F00
1FFFFE00
0FFFFC00
07FFF800
01FFE000
007F0000
ENDCHAR
STARTCHAR 24F3
ENCODING 9459
SWIDTH 1000 0
DWIDTH 28 0
BBX 26 27 1 -3
BITMAP
003F0000
01FFE000
03FFF800
07FFFC00
0FFFFE00
1CFC1F00
38F80F00
70F1CF80
74F3E780
FCF3E7C0
FCE3E7C0
FCE3E7C0
FCF3E7C0
FCF1C7C0
FCF807C0
FCFC27C0
FCFFE7C0
FCFFE7C0
7CF3C780
7CF1CF80
3CF81F00
3CFC3F00
1FFFFE00
0FFFFC00
07FFF800
01FFE000
007F0000
ENDCHAR
STARTCHAR 24F4
ENCODING 9460
SWIDTH 1000 0
DWIDTH 28 0
BBX 26 27 1 -3
BITMAP
007F0000
01FFE000
07FFF800
0FFFFC00
1E3F8E00
3C0F0700
39CE6700
79CE7380
73CEF380
F3CCF3C0
FFCCF3C0
FF8CF3C0
FF9CF3C0
FF3CF3C0
FE3CF3C0
FE7CF3C0
FCFCF3C0
FDFCF3C0
79FE7380
79FE7380
380F6700
300F8F00
1FFFFE00
0FFFFC00
07FFF800
01FFE000
007F0000
ENDCHAR
STARTCHAR 24F5
ENCODING 9461
SWIDTH 1000 0
DWIDTH 28 0
BBX 26 26 1 -3
BITMAP
007F8000
01C0E000
063F1800
0DC0CC00
13003200
240C0900
283C0580
587C0680
504C02C0
900C0240
A00C0140
A00C0140
A00C0140
A00C0140
A00C0140
900C0240
D00C02C0
580C0680
680C0580
640C0900
33003200
19C0E400
0C3F0800
06001000
01C0E000
007F0000
ENDCHAR
STARTCHAR 24F6
ENCODING 9462
SWIDTH 1000 0
DWIDTH 28 0
BBX 26 26 1 -3
BITMAP
007F8000
01C0E000
063F1800
0DC0C400
13003200
241F0900
287F8580
5861C680
50C0C2C0
90C0C240
A000C140
A0018140
A0070140
A00C0140
A0380140
90600240
D06002C0
58FFE680
68FFE580
64000900
33003200
19C0E400
0C3F0800
07003000
01C0E000
007F0000
ENDCHAR
STARTCHAR 24F7
ENCODING 9463
SWIDTH 1000 0
DWIDTH 28 0
BBX 26 27 1 -3
BITMAP
003F0000
01C0E000
06001000
0C3F0800
19C0C400
33003200
241F0900
487F8480
58E1C680
90C0C240
9000C240
A0018140
A01F0140
A01F8140
A001C140
A000E140
90006240
D1C0E2C0
58E1C680
487FC480
243F0900
33003200
19C0E600
0C3F0C00
06001000
01C0E000
007F0000
ENDCHAR
STARTCHAR 24F8
ENCODING 9464
SWIDTH 1000 0
DWIDTH 28 0
BBX 26 26 1 -3
BITMAP
007F8000
01C0E000
063F1800
0DC0CC00
13003200
24070B00
28070580
580F0680
501B02C0
903B0240
A0330140
A0630140
A0C30140
A1830140
A3830140
93FFE240
93FFE240
58030680
48030480
64030900
33003200
19C0E400
0C3F0800
06001000
01C0E000
007F0000
ENDCHAR
STARTCHAR 24F9
ENCODING 9465
SWIDTH 1000 0
DWIDTH 28 0
BBX 26 27 1 -3
BITMAP
003F8000
01C0E000
063F1800
0CC0CC00
1B003600
36001B00
2C7FCD00
487FC480
50600280
90600240
B0600340
A05F0140
A07F8140
A0E1C140
A000C140
B000C340
9000C240
D0C0C2C0
4861C480
6C7F8D80
261F1900
33003200
18C0E400
0C3F0800
07003000
01C0E000
007F0000
ENDCHAR
STARTCHAR 24FA
ENCODING 9466
SWIDTH 1000 0
DWIDTH 28 0
BBX 26 27 1 -3
BITMAP
003F8000
01C0E000
063F1800
0CC0CC00
1B003600
361F1B00
2C3F8D00
4871C480
5060C280
90C00240
B0C00340
A0DF0140
A0FF8140
A0E1C140
A0C0C140
B0C0C340
90C0C240
D0C0C2C0
4861C480
6C3F8D80
261F1900
33003200
18C0E400
0C3F0C00
06001000
01C0E000
007F0000
ENDCHAR
STARTCHAR 24FB
ENCODING 9467
SWIDTH 1000 0
DWIDTH 28 0
BBX 26 27 1 -3
BITMAP
003F0000
01C0E000
06001000
0C3F0800
19C0C400
33003200
24000900
48FFC480
58FFC680
9000C240
90018240
A0018140
A0030140
A0030140
A0060140
A0060140
900E0240
D00C02C0
581C0680
68180580
24180900
33003200
19C0E400
0C3F0800
07003000
01C0E000
007F0000
ENDCHAR
STARTCHAR 24FC
ENCODING 9468
SWIDTH 1000 0
DWIDTH 28 0
BBX 26 27 1 -3
BITMAP
003F8000
01C0E000
063F1800
0CC0CC00
1B003600
36001B00
2C3F0D00
487F8480
50E0C280
90C0C240
B0C0C340
A0E1C140
A07F8140
A07F0140
A0E1C140
B1C0E340
91806240
D1C0E2C0
48E1C480
6CFF8D80
263F1900
33003200
18C0E600
0C3F0C00
06001000
01C0E000
007F0000
ENDCHAR
STARTCHAR 24FD
ENCODING 9469
SWIDTH 1000 0
DWIDTH 28 0
BBX 26 27 1 -3
BITMAP
003F0000
01C0E000
06001000
0C3F0C00
19C0C600
33003300
241E0900
483F8480
5871C680
90E0C240
90C0C240
A0C0E140
A0C0E140
A061E140
A07F6140
A01EC140
9000C240
D0E0C2C0
58618680
687F8580
241E0900
33003200
19C0E600
0C3F0C00
06001000
01C0E000
007F0000
ENDCHAR
STARTCHAR 24FE
ENCODING 9470
SWIDTH 1000 0
DWIDTH 28 0
BBX 26 27 1 -3
BITMAP
003F8000
01C0E000
063F1800
0CC0CC00
1B003600
36001B00
2CC3CD00
4BC7E480
53CE6280
90CC3240
B0CC3340
A0CC3140
A0CC3140
A0CC3140
A0CC3140
B0CC3340
90CC3240
D0CE6280
48C7E480
6CC3CD80
26001900
33003200
18C0E400
0C3F0800
07003000
01C0E000
007F0000
ENDCHAR
STARTCHAR 2500
ENCODING 9472
SWIDTH 1000 0
DWIDTH 28 0
BBX 28 1 0 10
BITMAP
FFFFFFF0
ENDCHAR
STARTCHAR 2501
ENCODING 9473
SWIDTH 1000 0
DWIDTH 28 0
BBX 28 3 0 9
BITMAP
FFFFFFF0
FFFFFFF0
FFFFFFF0
ENDCHAR
STARTCHAR 2502
ENCODING 9474
SWIDTH 1000 0
DWIDTH 28 0
BBX 2 28 13 -3
BITMAP
C0
C0
C0
C0
C0
C0
C0
C0
C0
C0
C0
C0
C0
C0
C0
C0
C0
C0
C0
C0
C0
C0
C0
C0
C0
C0
C0
C0
ENDCHAR
STARTCHAR 2503
ENCODING 9475
SWIDTH 1000 0
DWIDTH 28 0
BBX 4 28 12 -3
BITMAP
F0
F0
F0
F0
F0
F0
F0
F0
F0
F0
F0
F0
F0
F0
F0
F0
F0
F0
F0
F0
F0
F0
F0
F0
F0
F0
F0
F0
ENDCHAR
STARTCHAR 250C
ENCODING 9484
SWIDTH 1000 0
DWIDTH 28 0
BBX 15 14 13 -3
BITMAP
FFFE
C000
C000
C000
C000
C000
C000
C000
C000
C000
C000
C000
C000
C000
ENDCHAR
STARTCHAR 250F
ENCODING 9487
SWIDTH 1000 0
DWIDTH 28 0
BBX 16 15 12 -3
BITMAP
FFFF
FFFF
FFFF
F000
F000
F000
F000
F000
F000
F000
F000
F000
F000
F000
F000
ENDCHAR
STARTCHAR 2510
ENCODING 9488
SWIDTH 1000 0
DWIDTH 28 0
BBX 15 14 0 -3
BITMAP
FFFE
0006
0006
0006
0006
0006
0006
0006
0006
0006
0006
0006
0006
0006
ENDCHAR
STARTCHAR 2513
ENCODING 9491
SWIDTH 1000 0
DWIDTH 28 0
BBX 16 15 0 -3
BITMAP
FFFF
FFFF
FFFF
000F
000F
000F
000F
000F
000F
000F
000F
000F
000F
000F
000F
ENDCHAR
STARTCHAR 2514
ENCODING 9492
SWIDTH 1000 0
DWIDTH 28 0
BBX 15 15 13 10
BITMAP
C000
C000
C000
C000
C000
C000
C000
C000
C000
C000
C000
C000
C000
C000
FFFE
ENDCHAR
STARTCHAR 2517
ENCODING 9495
SWIDTH 1000 0
DWIDTH 28 0
BBX 16 16 12 9
BITMAP
F000
F000
F000
F000
F000
F000
F000
F000
F000
F000
F000
F000
F000
FFFF
FFFF
FFFF
ENDCHAR
STARTCHAR 2518
ENCODING 9496
SWIDTH 1000 0
DWIDTH 28 0
BBX 15 15 0 10
BITMAP
0006
0006
0006
0006
0006
0006
0006
0006
0006
0006
0006
0006
0006
0006
FFFE
ENDCHAR
STARTCHAR 251B
ENCODING 9499
SWIDTH 1000 0
DWIDTH 28 0
BBX 16 16 0 9
BITMAP
000F
000F
000F
000F
000F
000F
000F
000F
000F
000F
000F
000F
000F
FFFF
FFFF
FFFF
ENDCHAR
STARTCHAR 251C
ENCODING 9500
SWIDTH 1000 0
DWIDTH 28 0
BBX 15 28 13 -3
BITMAP
C000
C000
C000
C000
C000
C000
C000
C000
C000
C000
C000
C000
C000
C000
FFFE
C000
C000
C000
C000
C000
C000
C000
C000
C000
C000
C000
C000
C000
ENDCHAR
STARTCHAR 251D
ENCODING 9501
SWIDTH 1000 0
DWIDTH 28 0
BBX 15 28 13 -3
BITMAP
C000
C000
C000
C000
C000
C000
C000
C000
C000
C000
C000
C000
C000
FFFE
FFFE
FFFE
C000
C000
C000
C000
C000
C000
C000
C000
C000
C000
C000
C000
ENDCHAR
STARTCHAR 2520
ENCODING 9504
SWIDTH 1000 0
DWIDTH 28 0
BBX 16 28 12 -3
BITMAP
F000
F000
F000
F000
F000
F000
F000
F000
F000
F000
F000
F000
F000
F000
FFFF
F000
F000
F000
F000
F000
F000
F000
F000
F000
F000
F000
F000
F000
ENDCHAR
STARTCHAR 2523
ENCODING 9507
SWIDTH 1000 0
DWIDTH 28 0
BBX 16 28 12 -3
BITMAP
F000
F000
F000
F000
F000
F000
F000
F000
F000
F000
F000
F000
F000
FFFF
FFFF
FFFF
F000
F000
F000
F000
F000
F000
F000
F000
F000
F000
F000
F000
ENDCHAR
STARTCHAR 2524
ENCODING 9508
SWIDTH 1000 0
DWIDTH 28 0
BBX 15 28 0 -3
BITMAP
0006
0006
0006
0006
0006
0006
0006
0006
0006
0006
0006
0006
0006
0006
FFFE
0006
0006
0006
0006
0006
0006
0006
0006
0006
0006
0006
0006
0006
ENDCHAR
STARTCHAR 2525
ENCODING 9509
SWIDTH 1000 0
DWIDTH 28 0
BBX 15 28 0 -3
BITMAP
0006
0006
0006
0006
0006
0006
0006
0006
0006
0006
0006
0006
0006
FFFE
FFFE
FFFE
0006
0006
0006
0006
0006
0006
0006
0006
0006
0006
0006
0006
ENDCHAR
STARTCHAR 2528
ENCODING 9512
SWIDTH 1000 0
DWIDTH 28 0
BBX 16 28 0 -3
BITMAP
000F
000F
000F
000F
000F
000F
000F
000F
000F
000F
000F
000F
000F
000F
FFFF
000F
000F
000F
000F
000F
000F
000F
000F
000F
000F
000F
000F
000F
ENDCHAR
STARTCHAR 252B
ENCODING 9515
SWIDTH 1000 0
DWIDTH 28 0
BBX 16 28 0 -3
BITMAP
000F
000F
000F
000F
000F
000F
000F
000F
000F
000F
000F
000F
000F
FFFF
FFFF
FFFF
000F
000F
000F
000F
000F
000F
000F
000F
000F
000F
000F
000F
ENDCHAR
STARTCHAR 252C
ENCODING 9516
SWIDTH 1000 0
DWIDTH 28 0
BBX 28 14 0 -3
BITMAP
FFFFFFF0
00060000
00060000
00060000
00060000
00060000
00060000
00060000
00060000
00060000
00060000
00060000
00060000
00060000
ENDCHAR
STARTCHAR 252F
ENCODING 9519
SWIDTH 1000 0
DWIDTH 28 0
BBX 28 15 0 -3
BITMAP
FFFFFFF0
FFFFFFF0
FFFFFFF0
00060000
00060000
00060000
00060000
00060000
00060000
00060000
00060000
00060000
00060000
00060000
00060000
ENDCHAR
STARTCHAR 2530
ENCODING 9520
SWIDTH 1000 0
DWIDTH 28 0
BBX 28 14 0 -3
BITMAP
FFFFFFF0
000F0000
000F0000
000F0000
000F0000
000F0000
000F0000
000F0000
000F0000
000F0000
000F0000
000F0000
000F0000
000F0000
ENDCHAR
STARTCHAR 2533
ENCODING 9523
SWIDTH 1000 0
DWIDTH 28 0
BBX 28 15 0 -3
BITMAP
FFFFFFF0
FFFFFFF0
FFFFFFF0
000F0000
000F0000
000F0000
000F0000
000F0000
000F0000
000F0000
000F0000
000F0000
000F0000
000F0000
000F0000
ENDCHAR
STARTCHAR 2534
ENCODING 9524
SWIDTH 1000 0
DWIDTH 28 0
BBX 28 15 0 10
BITMAP
00060000
00060000
00060000
00060000
00060000
00060000
00060000
00060000
00060000
00060000
00060000
00060000
00060000
00060000
FFFFFFF0
ENDCHAR
STARTCHAR 2537
ENCODING 9527
SWIDTH 1000 0
DWIDTH 28 0
BBX 28 16 0 9
BITMAP
00060000
00060000
00060000
00060000
00060000
00060000
00060000
00060000
00060000
00060000
00060000
00060000
00060000
FFFFFFF0
FFFFFFF0
FFFFFFF0
ENDCHAR
STARTCHAR 2538
ENCODING 9528
SWIDTH 1000 0
DWIDTH 28 0
BBX 28 15 0 10
BITMAP
000F0000
000F0000
000F0000
000F0000
000F0000
000F0000
000F0000
000F0000
000F0000
000F0000
000F0000
000F0000
000F0000
000F0000
FFFFFFF0
ENDCHAR
STARTCHAR 253B
ENCODING 9531
SWIDTH 1000 0
DWIDTH 28 0
BBX 28 16 0 9
BITMAP
000F0000
000F0000
000F0000
000F0000
000F0000
000F0000
000F0000
000F0000
000F0000
000F0000
000F0000
000F0000
000F0000
FFFFFFF0
FFFFFFF0
FFFFFFF0
ENDCHAR
STARTCHAR 253C
ENCODING 9532
SWIDTH 1000 0
DWIDTH 28 0
BBX 28 28 0 -3
BITMAP
00060000
00060000
00060000
00060000
00060000
00060000
00060000
00060000
00060000
00060000
00060000
00060000
00060000
00060000
FFFFFFF0
00060000
00060000
00060000
00060000
00060000
00060000
00060000
00060000
00060000
00060000
00060000
00060000
00060000
ENDCHAR
STARTCHAR 253F
ENCODING 9535
SWIDTH 1000 0
DWIDTH 28 0
BBX 28 28 0 -3
BITMAP
00060000
00060000
00060000
00060000
00060000
00060000
00060000
00060000
00060000
00060000
00060000
00060000
00060000
FFFFFFF0
FFFFFFF0
FFFFFFF0
00060000
00060000
00060000
00060000
00060000
00060000
00060000
00060000
00060000
00060000
00060000
00060000
ENDCHAR
STARTCHAR 2542
ENCODING 9538
SWIDTH 1000 0
DWIDTH 28 0
BBX 28 28 0 -3
BITMAP
000F0000
000F0000
000F0000
000F0000
000F0000
000F0000
000F0000
000F0000
000F0000
000F0000
000F0000
000F0000
000F0000
000F0000
FFFFFFF0
000F0000
000F0000
000F0000
000F0000
000F0000
000F0000
000F0000
000F0000
000F0000
000F0000
000F0000
000F0000
000F0000
ENDCHAR
STARTCHAR 254B
ENCODING 9547
SWIDTH 1000 0
DWIDTH 28 0
BBX 28 28 0 -3
BITMAP
000F0000
000F0000
000F0000
000F0000
000F0000
000F0000
000F0000
000F0000
000F0000
000F0000
000F0000
000F0000
000F0000
FFFFFFF0
FFFFFFF0
FFFFFFF0
000F0000
000F0000
000F0000
000F0000
000F0000
000F0000
000F0000
000F0000
000F0000
000F0000
000F0000
000F0000
ENDCHAR
STARTCHAR 25A0
ENCODING 9632
SWIDTH 1000 0
DWIDTH 28 0
BBX 20 21 4 0
BITMAP
FFFFF0
FFFFF0
FFFFF0
FFFFF0
FFFFF0
FFFFF0
FFFFF0
FFFFF0
FFFFF0
FFFFF0
FFFFF0
FFFFF0
FFFFF0
FFFFF0
FFFFF0
FFFFF0
FFFFF0
FFFFF0
FFFFF0
FFFFF0
FFFFF0
ENDCHAR
STARTCHAR 25A1
ENCODING 9633
SWIDTH 1000 0
DWIDTH 28 0
BBX 20 21 4 0
BITMAP
FFFFF0
FFFFF0
800010
800010
800010
800010
800010
800010
800010
800010
800010
800010
800010
800010
800010
800010
800010
800010
800010
FFFFF0
FFFFF0
ENDCHAR
STARTCHAR 25B1
ENCODING 9649
SWIDTH 500 0
DWIDTH 14 0
BBX 12 6 1 8
BITMAP
1FF0
3020
2060
6040
40C0
FF80
ENDCHAR
STARTCHAR 25B2
ENCODING 9650
SWIDTH 1000 0
DWIDTH 28 0
BBX 22 21 3 1
BITMAP
003000
003000
007800
007800
00FC00
00FC00
01FE00
01FE00
03FF00
03FF00
07FF80
07FF80
0FFFC0
0FFFC0
1FFFE0
1FFFE0
3FFFF0
3FFFF0
7FFFF8
7FFFF8
FFFFFC
ENDCHAR
STARTCHAR 25B3
ENCODING 9651
SWIDTH 1000 0
DWIDTH 28 0
BBX 22 21 3 1
BITMAP
003000
003000
007800
007800
00CC00
00CC00
018600
018600
030300
030300
060180
060180
0C00C0
0C00C0
180060
180060
300030
300030
600018
7FFFF8
FFFFFC
ENDCHAR
STARTCHAR 25B6
ENCODING 9654
SWIDTH 500 0
DWIDTH 14 0
BBX 11 15 2 4
BITMAP
8000
E000
F000
FC00
FE00
FF80
FFC0
FFE0
FFC0
FF00
FE00
F800
F000
C000
8000
ENDCHAR
STARTCHAR 25B7
ENCODING 9655
SWIDTH 500 0
DWIDTH 14 0
BBX 11 15 2 4
BITMAP
8000
E000
B000
9C00
8600
8380
80C0
8060
81C0
8300
8E00
9800
B000
C000
8000
ENDCHAR
STARTCHAR 25BC
ENCODING 9660
SWIDTH 1000 0
DWIDTH 28 0
BBX 22 21 3 -1
BITMAP
FFFFFC
7FFFF8
7FFFF8
3FFFF0
3FFFF0
1FFFE0
1FFFE0
0FFFC0
0FFFC0
07FF80
07FF80
03FF00
03FF00
01FE00
01FE00
00FC00
00FC00
007800
007800
003000
003000
ENDCHAR
STARTCHAR 25BD
ENCODING 9661
SWIDTH 1000 0
DWIDTH 28 0
BBX 22 21 3 -1
BITMAP
FFFFFC
7FFFF8
600018
300030
300030
180060
180060
0C00C0
0C00C0
060180
060180
030300
030300
018600
018600
00CC00
00CC00
007800
007800
003000
003000
ENDCHAR
STARTCHAR 25C0
ENCODING 9664
SWIDTH 500 0
DWIDTH 14 0
BBX 11 15 1 4
BITMAP
0020
00E0
01E0
07E0
0FE0
3FE0
7FE0
FFE0
7FE0
1FE0
0FE0
03E0
01E0
0060
0020
ENDCHAR
STARTCHAR 25C1
ENCODING 9665
SWIDTH 500 0
DWIDTH 14 0
BBX 11 15 1 4
BITMAP
0020
00E0
01A0
0720
0C20
3820
6020
C020
7020
1820
0E20
0320
01A0
0060
0020
ENDCHAR
STARTCHAR 25C6
ENCODING 9670
SWIDTH 1000 0
DWIDTH 28 0
BBX 24 24 2 -2
BITMAP
001800
003C00
007E00
00FF00
01FF80
03FFC0
07FFE0
0FFFF0
1FFFF8
3FFFFC
7FFFFE
FFFFFF
FFFFFF
7FFFFE
3FFFFC
1FFFF8
0FFFF0
07FFE0
03FFC0
01FF80
00FF00
007E00
003C00
001800
ENDCHAR
STARTCHAR 25C7
ENCODING 9671
SWIDTH 1000 0
DWIDTH 28 0
BBX 24 24 2 -2
BITMAP
001800
003C00
007E00
00E700
01C380
0381C0
0700E0
0E0070
1C0038
38001C
70000E
E00007
C00003
600006
30000C
180018
0C0030
060060
0300C0
018180
00C300
006600
003C00
001800
ENDCHAR
STARTCHAR 25C9
ENCODING 9673
SWIDTH 500 0
DWIDTH 14 0
BBX 12 13 1 4
BITMAP
0F00
30C0
6020
CF30
9F90
9F90
9F90
9F90
9F90
CF20
4020
30C0
0F00
ENDCHAR
STARTCHAR 25CB
ENCODING 9675
SWIDTH 1000 0
DWIDTH 28 0
BBX 24 23 2 -1
BITMAP
007E00
03FFC0
0781E0
0E0030
1C0018
38000C
70000E
600006
600006
C00002
C00003
C00003
C00003
400003
600006
600006
70000C
30000C
180018
0E0070
0781E0
03FFC0
007F00
ENDCHAR
STARTCHAR 25CE
ENCODING 9678
SWIDTH 1000 0
DWIDTH 28 0
BBX 24 23 2 -1
BITMAP
007E00
03FFC0
0781E0
0E0070
187E18
30FF0C
71C38C
6300C6
660066
C60063
C60063
C60063
C60063
C60063
6300C6
618386
70FF0E
307E0C
180018
0E0070
0781E0
03FFC0
007E00
ENDCHAR
STARTCHAR 25CF
ENCODING 9679
SWIDTH 1000 0
DWIDTH 28 0
BBX 24 23 2 -1
BITMAP
007E00
03FFC0
07FFE0
0FFFF0
1FFFF8
3FFFFC
7FFFFE
7FFFFE
7FFFFE
FFFFFE
FFFFFF
FFFFFF
FFFFFF
7FFFFF
7FFFFE
7FFFFE
7FFFFC
3FFFFC
1FFFF8
0FFFF0
07FFE0
03FFC0
007F00
ENDCHAR
STARTCHAR 25D0
ENCODING 9680
SWIDTH 500 0
DWIDTH 14 0
BBX 12 13 1 4
BITMAP
0F00
3DC0
7C60
FC30
FC10
FC10
FC10
FC10
FC10
FC30
7C60
3FC0
0F00
ENDCHAR
STARTCHAR 25D1
ENCODING 9681
SWIDTH 500 0
DWIDTH 14 0
BBX 12 13 1 4
BITMAP
0F00
3BC0
63E0
C3F0
83F0
83F0
83F0
83F0
83F0
C3F0
63E0
3FC0
0F00
ENDCHAR
STARTCHAR 25D2
ENCODING 9682
SWIDTH 500 0
DWIDTH 14 0
BBX 12 12 1 5
BITMAP
1F00
30C0
4060
C030
8010
8010
FFF0
FFF0
FFF0
7FE0
3FC0
1F80
ENDCHAR
STARTCHAR 25D3
ENCODING 9683
SWIDTH 500 0
DWIDTH 14 0
BBX 12 12 1 5
BITMAP
0F80
3FC0
7FE0
FFF0
FFF0
FFF0
8010
8010
C030
4020
30C0
0F80
ENDCHAR
STARTCHAR 25E6
ENCODING 9702
SWIDTH 500 0
DWIDTH 14 0
BBX 7 8 4 7
BITMAP
70
C8
84
84
86
84
CC
78
ENDCHAR
STARTCHAR 25EF
ENCODING 9711
SWIDTH 1000 0
DWIDTH 28 0
BBX 26 27 1 -3
BITMAP
007F0000
01C0E000
06001800
0C000C00
18000600
30000300
20000100
60000180
40000080
C00000C0
80000040
80000040
80000040
80000040
80000040
80000040
80000040
C00000C0
40000080
60000180
20000100
30000300
18000600
0C000C00
06001800
01C0E000
007F0000
ENDCHAR
STARTCHAR 2600
ENCODING 9728
SWIDTH 1000 0
DWIDTH 28 0
BBX 26 26 1 -2
BITMAP
000C0000
000C0000
000C0000
000C0000
080C0400
04000800
023E1000
027F9000
00FFC000
01FFE000
03FFE000
03FFF000
03FFF000
FBFFF7C0
03FFF000
03FFF000
01FFE000
00FFC000
007F8000
023F1000
04000800
080C0400
000C0000
000C0000
000C0000
000C0000
ENDCHAR
STARTCHAR 2601
ENCODING 9729
SWIDTH 1000 0
DWIDTH 28 0
BBX 24 19 2 -1
BITMAP
00F800
03FE00
03FF00
07FF00
07FF80
07FF9E
07FFFF
07FFFF
1FFFFF
7FFFFF
7FFFFE
FFFFFC
FFFFFE
FFFFFF
FFEFFF
FFCFFF
7F87FF
1E03FE
0000F8
ENDCHAR
STARTCHAR 2602
ENCODING 9730
SWIDTH 1000 0
DWIDTH 28 0
BBX 26 25 1 -2
BITMAP
00080000
00080000
007F8000
03FFF000
07FFF800
1FFFFE00
1FFFFE00
3FFFFF00
7FFFFF80
479E7880
830C30C0
82081040
82081040
00080000
00080000
00080000
00080000
00080000
00080000
00080000
00080000
00080000
00480000
00480000
00780000
ENDCHAR
STARTCHAR 2603
ENCODING 9731
SWIDTH 1000 0
DWIDTH 28 0
BBX 26 26 1 -2
BITMAP
C0180000
C018C180
030120C0
05021000
02040800
00080400
70380400
30CC0B80
03031280
0400F100
04000800
04330800
64330800
62001000
011E21C0
02001140
CC000C80
D0000400
100C0200
200C0200
20000200
20000200
100C0200
100C0200
0C000C00
03FFF000
ENDCHAR
STARTCHAR 2605
ENCODING 9733
SWIDTH 1000 0
DWIDTH 28 0
BBX 24 24 2 0
BITMAP
001000
001800
001800
001800
003C00
003C00
003C00
007E00
007E00
FFFFFF
3FFFFC
1FFFF8
0FFFF0
03FFC0
01FF80
01FF80
03FFC0
03FFC0
03FFC0
07C3E0
0781E0
0700E0
0C0030
080010
ENDCHAR
STARTCHAR 2606
ENCODING 9734
SWIDTH 1000 0
DWIDTH 28 0
BBX 24 24 2 0
BITMAP
001000
001800
001800
001800
003C00
003C00
002400
006600
004200
FFC3FF
38001C
1C0038
060060
0381C0
010080
010080
0318C0
023C40
026640
07C3E0
0700E0
060060
0C0030
100010
ENDCHAR
STARTCHAR 260E
ENCODING 9742
SWIDTH 1000 0
DWIDTH 28 0
BBX 26 21 1 0
BITMAP
0FFFF800
3FFFFE00
3FFFFF00
7EE1DF80
78E1C780
F8E1C7C0
F8FFC7C0
01FFE000
03E1F000
03C0F000
07807800
07003800
07003800
0F003C00
1F003E00
3F807F00
3F80FF00
7FE1FF00
7FFFFF80
7FFFFF80
7FFFFF80
ENDCHAR
STARTCHAR 2616
ENCODING 9750
SWIDTH 1000 0
DWIDTH 28 0
BBX 22 22 3 1
BITMAP
007800
01FE00
038700
0F03C0
3C00F0
300030
300030
600010
600018
600018
600018
600018
600018
600018
600018
400008
C00008
C0000C
C0000C
C0000C
FFFFFC
FFFFFC
ENDCHAR
STARTCHAR 2617
ENCODING 9751
SWIDTH 1000 0
DWIDTH 28 0
BBX 22 22 3 0
BITMAP
007800
00FC00
03FF00
0FFFC0
1FFFE0
3FFFF0
3FFFF0
3FFFF0
7FFFF8
7FFFF8
7FFFF8
7FFFF8
7FFFF8
7FFFF8
7FFFF8
7FFFF8
FFFFF8
FFFFFC
FFFFFC
FFFFFC
FFFFFC
FFFFFC
ENDCHAR
STARTCHAR 261E
ENCODING 9758
SWIDTH 1000 0
DWIDTH 28 0
BBX 24 11 2 5
BITMAP
F8FFFE
8F0201
880302
883FFC
8FC120
900E90
880A60
8C1520
9318C0
8CC480
783F00
ENDCHAR
STARTCHAR 2640
ENCODING 9792
SWIDTH 1000 0
DWIDTH 28 0
BBX 16 26 6 -2
BITMAP
03C0
0FF0
1C38
381C
300C
300C
300C
300C
300C
381C
1C38
0FF0
07E0
0180
0180
0180
FFFF
FFFF
0180
0180
0180
0180
0180
0180
0180
0180
ENDCHAR
STARTCHAR 2642
ENCODING 9794
SWIDTH 1000 0
DWIDTH 28 0
BBX 22 22 3 0
BITMAP
000FFC
000FFC
00003C
00007C
0000EC
0001CC
00038C
00070C
000E0C
001C0C
0F3800
3FF000
70E000
E07000
C03000
C03000
C03000
C03000
E03000
70E000
3FC000
0F8000
ENDCHAR
STARTCHAR 2660
ENCODING 9824
SWIDTH 500 0
DWIDTH 14 0
BBX 12 16 1 3
BITMAP
0600
0E00
0F00
1F80
3FC0
3FC0
7FE0
FFE0
FFF0
FFF0
FFF0
FFF0
76E0
0F00
0F00
0F00
ENDCHAR
STARTCHAR 2661
ENCODING 9825
SWIDTH 500 0
DWIDTH 14 0
BBX 12 15 1 3
BITMAP
79E0
CF20
8610
8610
8010
8010
C030
4020
4020
6060
2040
1080
1980
0F00
0600
ENDCHAR
STARTCHAR 2662
ENCODING 9826
SWIDTH 500 0
DWIDTH 14 0
BBX 12 17 1 3
BITMAP
0600
0600
0900
1980
1080
3040
6060
4020
C030
4020
2040
30C0
1080
1980
0F00
0600
0600
ENDCHAR
STARTCHAR 2663
ENCODING 9827
SWIDTH 500 0
DWIDTH 14 0
BBX 14 16 0 3
BITMAP
0780
0FC0
0FC0
0FC0
0FC0
0FC0
3FF0
7FF8
7FF8
FFFC
7FF8
7FF8
3FF0
0780
0780
0780
ENDCHAR
STARTCHAR 2664
ENCODING 9828
SWIDTH 500 0
DWIDTH 14 0
BBX 12 15 1 4
BITMAP
0600
0F00
1980
1080
2040
4020
4020
8010
8010
8010
C930
79E0
0900
0900
1F00
ENDCHAR
STARTCHAR 2665
ENCODING 9829
SWIDTH 500 0
DWIDTH 14 0
BBX 12 15 1 3
BITMAP
79E0
FFF0
FFF0
FFF0
FFF0
FFF0
FFF0
7FE0
7FE0
3FC0
3FC0
1F80
0F00
0F00
0600
ENDCHAR
STARTCHAR 2666
ENCODING 9830
SWIDTH 500 0
DWIDTH 14 0
BBX 12 17 1 3
BITMAP
0600
0600
0F00
1F80
1F80
3FC0
7FE0
7FE0
FFF0
7FE0
3FC0
3FC0
1F80
1F80
0F00
0600
0600
ENDCHAR
STARTCHAR 2667
ENCODING 9831
SWIDTH 500 0
DWIDTH 14 0
BBX 14 15 0 3
BITMAP
0780
0CC0
0840
0840
0840
34B0
4CC8
4008
C00C
4008
4488
3CF0
0480
0480
0780
ENDCHAR
STARTCHAR 2668
ENCODING 9832
SWIDTH 1000 0
DWIDTH 28 0
BBX 24 22 2 0
BITMAP
001000
003000
063080
046180
0C6180
0C7180
0C3180
0631C0
0638C0
0718C0
031C60
030C60
030C60
630C66
C30C63
C21843
C21843
C03003
F0000E
7E007C
1FFFF8
01FFC0
ENDCHAR
STARTCHAR 2669
ENCODING 9833
SWIDTH 500 0
DWIDTH 14 0
BBX 5 16 3 2
BITMAP
08
08
08
08
08
08
08
08
08
08
08
08
78
F8
F8
70
ENDCHAR
STARTCHAR 266A
ENCODING 9834
SWIDTH 1000 0
DWIDTH 28 0
BBX 19 24 5 -2
BITMAP
008000
00C000
00E000
00F000
00B800
009E00
008700
008380
0081C0
0080E0
0080E0
008060
008060
0080C0
0080C0
008180
008300
008200
3E8000
7F8000
FF8000
FF8000
7F0000
3C0000
ENDCHAR
STARTCHAR 266B
ENCODING 9835
SWIDTH 500 0
DWIDTH 14 0
BBX 12 17 1 2
BITMAP
0010
01F0
1FF0
1F90
1810
1010
1010
1010
1010
1010
1010
1010
10F0
F1E0
F0E0
F000
E000
ENDCHAR
STARTCHAR 266C
ENCODING 9836
SWIDTH 500 0
DWIDTH 14 0
BBX 12 17 1 2
BITMAP
0010
01F0
1FF0
1E10
10F0
1FF0
1F10
1010
1010
1010
1010
1010
10F0
F1E0
F0E0
F000
E000
ENDCHAR
STARTCHAR 266D
ENCODING 9837
SWIDTH 1000 0
DWIDTH 28 0
BBX 11 23 10 -2
BITMAP
C000
C000
C000
C000
C000
C000
C000
C000
C780
DFC0
F8E0
E0E0
C060
C0E0
C0E0
C0C0
C1C0
C180
C300
CE00
DC00
F000
E000
ENDCHAR
STARTCHAR 266E
ENCODING 9838
SWIDTH 500 0
DWIDTH 14 0
BBX 6 15 4 3
BITMAP
80
80
80
9C
FC
C4
84
84
84
BC
FC
C4
04
04
04
ENDCHAR
STARTCHAR 266F
ENCODING 9839
SWIDTH 1000 0
DWIDTH 28 0
BBX 18 24 5 -1
BITMAP
000C00
0C0C00
0C0C00
0C0C00
0C0C00
0C0C00
0C0FC0
0FFFC0
FFFC00
FC0C00
0C0C00
0C0C00
0C0C00
0C0C00
0C0C00
0C1FC0
0FFFC0
FFEC00
FC0C00
0C0C00
0C0C00
0C0C00
0C0C00
0C0C00
ENDCHAR
STARTCHAR 2713
ENCODING 10003
SWIDTH 1000 0
DWIDTH 28 0
BBX 18 18 6 2
BITMAP
000040
000040
000080
000100
000200
000600
000C00
000800
001000
003000
406000
E0C000
618000
730000
360000
3E0000
1C0000
180000
ENDCHAR
STARTCHAR 2756
ENCODING 10070
SWIDTH 1000 0
DWIDTH 28 0
BBX 26 25 1 -2
BITMAP
000C0000
001E0000
003F0000
007F8000
00FFC000
01FFE000
00FFC000
067F9800
0F3F3C00
1F9E7E00
3FC8FF00
7FE1FF80
FFF3FFC0
7FE1FF80
3FCCFF00
1F9E7E00
0F3F3C00
047F9000
00FFC000
01FFE000
00FFC000
007F8000
003F0000
001E0000
00080000
ENDCHAR
STARTCHAR 2776
ENCODING 10102
SWIDTH 1000 0
DWIDTH 28 0
BBX 26 26 1 -2
BITMAP
007F8000
01FFE000
07FFF800
0FFFFC00
1FF1FE00
3FC1FF00
7F81FF00
7F91FF80
FFF1FF80
FFF1FFC0
FFF1FFC0
FFF1FFC0
FFF1FFC0
FFF1FFC0
FFF1FFC0
FFF1FFC0
FFF1FFC0
7FF1FF80
7FF1FF80
3FF1FF00
3FF1FF00
1FF1FE00
0FFFFC00
07FFF800
01FFE000
007F0000
ENDCHAR
STARTCHAR 2777
ENCODING 10103
SWIDTH 1000 0
DWIDTH 28 0
BBX 26 27 1 -3
BITMAP
007F0000
01FFE000
07FFF800
0FFFFC00
1FE0FE00
3F807F00
3F0E3F00
7F3F1F80
7E3F9F80
FE3F9FC0
FFFF1FC0
FFFF3FC0
FFFE3FC0
FFF87FC0
FFF0FFC0
FFC3FFC0
FFCFFFC0
FF9FFFC0
7F1FFF80
7F3FFF80
3E001F00
3E001F00
1FFFFE00
0FFFFC00
07FFF800
01FFE000
007F0000
ENDCHAR
STARTCHAR 2778
ENCODING 10104
SWIDTH 1000 0
DWIDTH 28 0
BBX 26 26 1 -2
BITMAP
003F8000
01FFE000
03FFF800
0FFFFC00
1FC0FE00
3F807F00
3F1E3F00
7E3F3F80
7E3F1F80
FFFF1FC0
FFFF3FC0
FFFE3FC0
FFE0FFC0
FFE07FC0
FFFE1FC0
FFFF9FC0
FFFF9FC0
7E7F8F80
7E3F9F80
3E1E1F00
3F003F00
1FC0FE00
0FFFFC00
07FFF800
01FFE000
007F0000
ENDCHAR
STARTCHAR 2779
ENCODING 10105
SWIDTH 1000 0
DWIDTH 28 0
BBX 26 26 1 -2
BITMAP
007F8000
01FFE000
07FFF800
0FFFFC00
1FF8FE00
3FF8FF00
7FF0FF00
7FE0FF80
FFE4FF80
FFC4FFC0
FF8CFFC0
FF9CFFC0
FF3CFFC0
FE3CFFC0
FE7CFFC0
FCFCFFC0
FC000FC0
7C000F80
7FFCFF80
3FFCFF00
3FFCFF00
1FFCFE00
0FFFFC00
07FFF800
01FFE000
007F0000
ENDCHAR
STARTCHAR 277A
ENCODING 10106
SWIDTH 1000 0
DWIDTH 28 0
BBX 26 26 1 -2
BITMAP
003F8000
01FFE000
03FFF800
07FFFC00
1FFFFE00
1F003F00
3F003F00
7F3FFF80
7F3FFF80
FF3FFFC0
FF30FFC0
FF003FC0
FF1E3FC0
FF3F1FC0
FFBF9FC0
FFFF9FC0
FFFF9FC0
FFFF9F80
7E3F1F80
7F1E3F00
3F807F00
1FE0FE00
0FFFFC00
07FFF800
01FFE000
007F8000
ENDCHAR
STARTCHAR 277B
ENCODING 10107
SWIDTH 1000 0
DWIDTH 28 0
BBX 26 26 1 -3
BITMAP
007F8000
03FFE000
07FFF800
0FFFFC00
1FE0FE00
3FC07F00
7F8E3F00
7F1F1F80
FF3FFF80
FE3FFFC0
FE60FFC0
FE407FC0
FE1E3FC0
FE3F1FC0
FE3F9FC0
FE7F9FC0
FE7F9FC0
7E3F9F80
7F3F1F80
3F1E3F00
3F807F00
1FE0FE00
0FFFFC00
07FFF800
01FFE000
007F0000
ENDCHAR
STARTCHAR 277C
ENCODING 10108
SWIDTH 1000 0
DWIDTH 28 0
BBX 26 27 1 -3
BITMAP
007F0000
01FFE000
07FFF800
0FFFFC00
1FFFFE00
3E001F00
3E001F00
7FFF1F80
7FFF3F80
FFFE3FC0
FFFE7FC0
FFFE7FC0
FFFCFFC0
FFFCFFC0
FFF8FFC0
FFF9FFC0
FFF9FFC0
FFF1FFC0
7FF3FF80
7FE3FF80
3FE3FF00
3FE7FF00
1FC7FE00
0FFFFC00
07FFF800
01FFE000
007F0000
ENDCHAR
STARTCHAR 277D
ENCODING 10109
SWIDTH 1000 0
DWIDTH 28 0
BBX 26 27 1 -3
BITMAP
007F0000
01FFE000
07FFF800
0FFFFC00
1FC0FE00
3F807F00
3F1E3F00
7E3F1F80
7E7F9F80
FE7F9FC0
FE3F1FC0
FF1E3FC0
FF807FC0
FF807FC0
FF1E3FC0
FE3F1FC0
FE7F9FC0
FC7F8FC0
7E7F9F80
7E7F9F80
3E1E1F00
3F003F00
1FC0FE00
0FFFFC00
07FFF800
01FFE000
007F0000
ENDCHAR
STARTCHAR 277E
ENCODING 10110
SWIDTH 1000 0
DWIDTH 28 0
BBX 26 26 1 -3
BITMAP
007F8000
03FFE000
07FFF800
0FFFFC00
1FC0FE00
3F807F00
7F1E3F00
7F3F3F80
FE3F9F80
FE3F9FC0
FE3F9FC0
FF3F1FC0
FF1E1FC0
FF801FC0
FFC19FC0
FFFF9FC0
FFFF9FC0
7F3F1F80
7F3F3F80
3F1E3F00
3F807F00
1FE0FE00
0FFFFC00
07FFF800
01FFE000
007F8000
ENDCHAR
STARTCHAR 277F
ENCODING 10111
SWIDTH 1000 0
DWIDTH 28 0
BBX 26 27 1 -3
BITMAP
003F0000
01FFE000
03FFF800
07FFFC00
0FFFFE00
1CFE1F00
38F80F00
70F9C780
74F3E780
FCF3E7C0
FCF3E3C0
FCF3F3C0
FCE3F3C0
FCE3F3C0
FCE3F3C0
FCF3F3C0
FCF3E3C0
FCF3E7C0
7CF3E780
7CF9C780
3CF80F00
3CFE1F00
1FFFFE00
0FFFFC00
07FFF800
01FFE000
007F0000
ENDCHAR
STARTCHAR 2934
ENCODING 10548
SWIDTH 500 0
DWIDTH 14 0
BBX 11 21 1 2
BITMAP
0300
0780
0FC0
1B60
1320
1320
0300
0300
0300
0300
0300
0300
0300
0300
0300
0300
0300
0300
0600
FE00
F800
ENDCHAR
STARTCHAR 2935
ENCODING 10549
SWIDTH 500 0
DWIDTH 14 0
BBX 11 21 1 -1
BITMAP
F800
FC00
0600
0300
0300
0300
0300
0300
0300
0300
0300
0300
0300
0300
0300
2320
1320
1B60
0FC0
0780
0300
ENDCHAR
STARTCHAR 29BF
ENCODING 10687
SWIDTH 1000 0
DWIDTH 28 0
BBX 24 23 2 -1
BITMAP
007E00
03FFC0
0781E0
0E0070
180018
30000C
70000E
603C06
607E06
C0FF03
C0FF03
C0FF03
C0FF03
C07E03
603C06
600006
70000E
30000C
180018
0E0070
0781E0
03FFC0
007E00
ENDCHAR
STARTCHAR 29FA
ENCODING 10746
SWIDTH 500 0
DWIDTH 14 0
BBX 12 17 1 2
BITMAP
1980
1980
1980
1980
1980
1980
1980
FFF0
FFF0
1980
1980
1980
1980
1980
1980
1980
1980
ENDCHAR
STARTCHAR 29FB
ENCODING 10747
SWIDTH 500 0
DWIDTH 14 0
BBX 12 17 1 2
BITMAP
36C0
36C0
36C0
36C0
36C0
36C0
36C0
FFF0
FFF0
36C0
36C0
36C0
36C0
36C0
36C0
36C0
36C0
ENDCHAR
STARTCHAR 3000
ENCODING 12288
SWIDTH 1000 0
DWIDTH 28 0
BBX 0 0 0 0
BITMAP
ENDCHAR
STARTCHAR 3001
ENCODING 12289
SWIDTH 1000 0
DWIDTH 28 0
BBX 6 6 1 -2
BITMAP
60
F0
78
3C
1C
0C
ENDCHAR
STARTCHAR 3002
ENCODING 12290
SWIDTH 1000 0
DWIDTH 28 0
BBX 8 7 1 -2
BITMAP
3C
66
C3
C3
C3
66
3C
ENDCHAR
STARTCHAR 3003
ENCODING 12291
SWIDTH 1000 0
DWIDTH 28 0
BBX 13 13 7 4
BITMAP
0E38
0E30
0C30
1C70
1C60
1860
18E0
30C0
30C0
7180
6180
6380
C300
ENDCHAR
STARTCHAR 3005
ENCODING 12293
SWIDTH 1000 0
DWIDTH 28 0
BBX 18 18 4 1
BITMAP
01C000
018000
018000
030000
03FFC0
07FFC0
0601C0
0C0180
1C0380
380300
700600
E18C00
40FC00
007800
003800
001C00
000E00
000400
ENDCHAR
STARTCHAR 3006
ENCODING 12294
SWIDTH 1000 0
DWIDTH 28 0
BBX 20 21 4 0
BITMAP
000020
000070
0000E0
0001C0
000380
070300
0FC700
1CEE00
187C00
183800
307C00
30EE00
71C700
638200
630000
670000
CE0000
DC0000
F80000
F00000
600000
ENDCHAR
STARTCHAR 3007
ENCODING 12295
SWIDTH 1000 0
DWIDTH 28 0
BBX 24 23 2 -1
BITMAP
007E00
03FFC0
0781E0
0E0070
180018
30001C
70000C
600006
600006
600006
C00003
C00003
C00003
600006
600006
600006
30000C
38000C
180018
0E0070
0781E0
03FFC0
007E00
ENDCHAR
STARTCHAR 3008
ENCODING 12296
SWIDTH 1000 0
DWIDTH 28 0
BBX 11 25 15 -2
BITMAP
0060
00C0
01C0
0180
0300
0600
0E00
0C00
1800
3800
7000
6000
C000
6000
7000
3800
1800
0C00
0E00
0600
0300
0180
01C0
00C0
0060
ENDCHAR
STARTCHAR 3009
ENCODING 12297
SWIDTH 1000 0
DWIDTH 28 0
BBX 11 25 2 -2
BITMAP
C000
6000
7000
3000
1800
0C00
0E00
0600
0300
0180
01C0
00C0
0060
00C0
01C0
0380
0300
0600
0E00
0C00
1800
3000
7000
6000
C000
ENDCHAR
STARTCHAR 300A
ENCODING 12298
SWIDTH 1000 0
DWIDTH 28 0
BBX 12 25 15 -2
BITMAP
0330
0360
0660
04C0
0CC0
1980
1980
3300
3200
6600
4400
CC00
9800
CC00
4400
6600
3200
3300
1980
1980
0CC0
04C0
0660
0260
0330
ENDCHAR
STARTCHAR 300B
ENCODING 12299
SWIDTH 1000 0
DWIDTH 28 0
BBX 12 25 1 -2
BITMAP
CC00
6400
6600
3200
3300
1980
1980
0CC0
04C0
0660
0260
0330
0190
0330
0260
0660
04C0
0CC0
1980
1980
3300
3200
6600
6C00
CC00
ENDCHAR
STARTCHAR 300C
ENCODING 12300
SWIDTH 1000 0
DWIDTH 28 0
BBX 8 20 18 3
BITMAP
FF
FF
C0
C0
C0
C0
C0
C0
C0
C0
C0
C0
C0
C0
C0
C0
C0
C0
C0
C0
ENDCHAR
STARTCHAR 300D
ENCODING 12301
SWIDTH 1000 0
DWIDTH 28 0
BBX 8 20 2 -2
BITMAP
03
03
03
03
03
03
03
03
03
03
03
03
03
03
03
03
03
03
FF
FF
ENDCHAR
STARTCHAR 300E
ENCODING 12302
SWIDTH 1000 0
DWIDTH 28 0
BBX 11 20 16 3
BITMAP
FFE0
FFE0
C060
CFE0
CFE0
C800
C800
C800
C800
C800
C800
C800
C800
C800
C800
C800
C800
C800
F800
F800
ENDCHAR
STARTCHAR 300F
ENCODING 12303
SWIDTH 1000 0
DWIDTH 28 0
BBX 11 20 1 -2
BITMAP
03E0
03E0
0260
0260
0260
0260
0260
0260
0260
0260
0260
0260
0260
0260
FE60
FE60
C060
C060
FFE0
FFE0
ENDCHAR
STARTCHAR 3010
ENCODING 12304
SWIDTH 1000 0
DWIDTH 28 0
BBX 6 25 20 -2
BITMAP
FC
F8
F0
E0
E0
C0
C0
C0
C0
80
80
80
80
80
80
80
C0
C0
C0
C0
E0
E0
F0
F8
FC
ENDCHAR
STARTCHAR 3011
ENCODING 12305
SWIDTH 1000 0
DWIDTH 28 0
BBX 6 25 2 -2
BITMAP
FC
7C
3C
3C
1C
1C
0C
0C
0C
04
04
04
04
04
04
04
0C
0C
0C
1C
1C
3C
3C
7C
FC
ENDCHAR
STARTCHAR 3012
ENCODING 12306
SWIDTH 1000 0
DWIDTH 28 0
BBX 20 23 4 -2
BITMAP
FFFFF0
FFFFF0
FFFFF0
000000
000000
000000
000000
FFFFF0
FFFFF0
FFFFF0
006000
006000
006000
006000
006000
006000
006000
006000
006000
006000
006000
006000
006000
ENDCHAR
STARTCHAR 3013
ENCODING 12307
SWIDTH 1000 0
DWIDTH 28 0
BBX 20 13 4 4
BITMAP
FFFFF0
FFFFF0
FFFFF0
FFFFF0
000000
000000
000000
000000
000000
FFFFF0
FFFFF0
FFFFF0
FFFFF0
ENDCHAR
STARTCHAR 3014
ENCODING 12308
SWIDTH 1000 0
DWIDTH 28 0
BBX 7 25 19 -2
BITMAP
06
1E
F8
E0
C0
C0
C0
C0
C0
C0
C0
C0
C0
C0
C0
C0
C0
C0
C0
C0
C0
F0
7C
1E
02
ENDCHAR
STARTCHAR 3015
ENCODING 12309
SWIDTH 1000 0
DWIDTH 28 0
BBX 7 25 2 -2
BITMAP
C0
F0
3E
0E
06
06
06
06
06
06
06
06
06
06
06
06
06
06
06
06
06
1E
7C
F0
80
ENDCHAR
STARTCHAR 3016
ENCODING 12310
SWIDTH 1000 0
DWIDTH 28 0
BBX 9 25 17 -2
BITMAP
FF80
FF00
8200
8600
8400
8C00
8800
8800
9800
9800
9800
9800
9000
9000
9800
9800
9800
8800
8800
8C00
8400
8600
8200
FF00
FF80
ENDCHAR
STARTCHAR 3017
ENCODING 12311
SWIDTH 1000 0
DWIDTH 28 0
BBX 9 25 2 -2
BITMAP
FF80
7F80
2080
3080
1080
1880
0880
0880
0C80
0C80
0C80
0C80
0480
0C80
0C80
0C80
0C80
0880
0880
1880
1080
3080
2080
7F80
FF80
ENDCHAR
STARTCHAR 3018
ENCODING 12312
SWIDTH 1000 0
DWIDTH 28 0
BBX 10 26 17 -2
BITMAP
0040
01C0
0FC0
3CC0
E0C0
80C0
8780
8C00
8800
8800
8800
8800
8800
8800
8800
8800
8800
8800
8800
8E00
83C0
80C0
F0C0
1CC0
07C0
00C0
ENDCHAR
STARTCHAR 3019
ENCODING 12313
SWIDTH 1000 0
DWIDTH 28 0
BBX 10 26 1 -2
BITMAP
8000
E000
FC00
CF00
C1C0
C040
7840
0C40
0440
0440
0440
0440
0440
0440
0440
0440
0440
0440
0440
1C40
F040
C040
C3C0
CF00
F800
C000
ENDCHAR
STARTCHAR 301C
ENCODING 12316
SWIDTH 1000 0
DWIDTH 28 0
BBX 22 6 3 8
BITMAP
1F0000
7FC000
F0F004
C03C1C
801FF8
0003E0
ENDCHAR
STARTCHAR 301D
ENCODING 12317
SWIDTH 1000 0
DWIDTH 28 0
BBX 7 11 19 13
BITMAP
C0
F0
78
1C
06
42
E0
70
3C
0E
02
ENDCHAR
STARTCHAR 301F
ENCODING 12319
SWIDTH 1000 0
DWIDTH 28 0
BBX 7 11 2 -2
BITMAP
C0
60
38
1E
0E
84
E0
78
1C
0E
04
ENDCHAR
STARTCHAR 3020
ENCODING 12320
SWIDTH 1000 0
DWIDTH 28 0
BBX 26 18 1 1
BITMAP
1FFFFE00
1FFFFE00
00000000
00000000
1FFFFE00
1FFFFE00
000C0000
670C5980
8F8C7C40
848C4840
870C3840
400C0080
210C2300
10804200
08618400
043F0800
03807000
007F8000
ENDCHAR
STARTCHAR 3033
ENCODING 12339
SWIDTH 1000 0
DWIDTH 28 0
BBX 13 25 6 -3
BITMAP
0020
0038
0070
0070
0070
00E0
00E0
00C0
01C0
01C0
0380
0380
0300
0700
0600
0E00
0C00
1C00
1800
3800
3000
7000
6000
E000
E000
ENDCHAR
STARTCHAR 3034
ENCODING 12340
SWIDTH 1000 0
DWIDTH 28 0
BBX 18 25 6 -3
BITMAP
002000
003800
007000
007000
007000
00E000
00E000
00C000
01C000
01C000
038300
038300
031980
0719C0
060C00
0E0E00
0C0000
1C0000
180000
380000
300000
700000
600000
E00000
E00000
ENDCHAR
STARTCHAR 3035
ENCODING 12341
SWIDTH 1000 0
DWIDTH 28 0
BBX 14 26 6 -1
BITMAP
E000
E000
6000
7000
3800
3800
1C00
1C00
0E00
0E00
0700
0700
0380
0380
01C0
01C0
00E0
00E0
0070
0070
0070
0038
0038
001C
001C
0010
ENDCHAR
STARTCHAR 303B
ENCODING 12347
SWIDTH 1000 0
DWIDTH 28 0
BBX 10 18 9 2
BITMAP
6000
7000
1C00
0E00
0780
1F00
3000
6000
6000
3000
3800
1C00
0F00
0380
1FC0
78C0
E000
4000
ENDCHAR
STARTCHAR 303C
ENCODING 12348
SWIDTH 1000 0
DWIDTH 28 0
BBX 24 23 2 -1
BITMAP
FFFFFF
FFFFFF
C0000F
C0001F
C0003B
C00073
C000E3
C00183
C00303
C00603
C00C03
C01803
C03003
C06003
C0C003
C38003
C70003
CE0003
DC0003
F80003
F00003
FFFFFF
FFFFFF
ENDCHAR
STARTCHAR 303D
ENCODING 12349
SWIDTH 1000 0
DWIDTH 28 0
BBX 23 25 3 -2
BITMAP
380000
7C0000
CC7000
06F800
06CC00
038C00
038E00
000600
000600
000700
000300
000300
000300
000180
000180
0001C0
0000C0
0000C0
0000E0
000060
000070
000030
000038
00001C
00000E
ENDCHAR
STARTCHAR 3041
ENCODING 12353
SWIDTH 1000 0
DWIDTH 28 0
BBX 18 19 5 -1
BITMAP
030000
030000
060800
07F800
7FF000
060000
063000
06FC00
07FF00
0E6380
3E6180
76C0C0
67C0C0
C780C0
C70180
CE0380
FA0F00
703E00
003000
ENDCHAR
STARTCHAR 3042
ENCODING 12354
SWIDTH 1000 0
DWIDTH 28 0
BBX 22 23 3 -1
BITMAP
018000
018000
018080
019F80
7FFE00
7F8000
038000
030600
031F00
03FFE0
038C70
0F1C38
1F1818
33380C
73300C
63600C
C3C00C
C1801C
C38038
CF8070
FD81E0
700FC0
000600
ENDCHAR
STARTCHAR 3043
ENCODING 12355
SWIDTH 1000 0
DWIDTH 28 0
BBX 18 15 5 0
BITMAP
E00000
E01C00
E00E00
600600
600700
600300
600180
600180
6001C0
718080
318000
3B8000
1F0000
1F0000
0E0000
ENDCHAR
STARTCHAR 3044
ENCODING 12356
SWIDTH 1000 0
DWIDTH 28 0
BBX 22 19 3 0
BITMAP
E00000
E00000
E00380
6001C0
6000E0
6000E0
600070
600030
600038
600018
60001C
70401C
70600C
306000
38E000
19C000
1FC000
0F8000
070000
ENDCHAR
STARTCHAR 3045
ENCODING 12357
SWIDTH 1000 0
DWIDTH 28 0
BBX 13 19 7 -2
BITMAP
0E00
1F80
03E0
0040
0000
07E0
3FF0
F838
C018
0018
0018
0018
0038
0030
0070
00E0
01C0
0780
0F00
ENDCHAR
STARTCHAR 3046
ENCODING 12358
SWIDTH 1000 0
DWIDTH 28 0
BBX 15 25 6 -2
BITMAP
0800
0F00
0FC0
01F0
0070
0000
0000
03F0
1FFC
FE1C
E00E
8006
0006
0006
0006
0006
000E
000C
001C
0038
0070
01E0
0FC0
0700
0400
ENDCHAR
STARTCHAR 3047
ENCODING 12359
SWIDTH 1000 0
DWIDTH 28 0
BBX 16 18 6 -1
BITMAP
0400
0F80
03E0
00C0
0000
0060
3FF0
3E60
00C0
0180
0300
06C0
0FE0
1C60
3860
7060
E07F
C03F
ENDCHAR
STARTCHAR 3048
ENCODING 12360
SWIDTH 1000 0
DWIDTH 28 0
BBX 21 22 3 -1
BITMAP
038000
03F000
007C00
001C00
000000
000000
001E00
1FFF00
1FEE00
001C00
001800
003000
006000
00C000
01F800
03FC00
078C00
0F0C00
1C0C00
380C00
700FF8
E003F8
ENDCHAR
STARTCHAR 3049
ENCODING 12361
SWIDTH 1000 0
DWIDTH 28 0
BBX 18 17 5 0
BITMAP
060000
060000
060E00
06E700
7FE3C0
7E00C0
060000
060000
07FC00
0FFF00
3E0380
760180
660180
C60180
E60380
7E1F00
1E7C00
ENDCHAR
STARTCHAR 304A
ENCODING 12362
SWIDTH 1000 0
DWIDTH 28 0
BBX 22 21 3 0
BITMAP
030000
030000
030080
0301E0
03F870
7FF838
7F001C
030008
030000
030000
03FF80
03FFE0
0F0070
3B0038
730018
630018
E30038
E30030
7300F0
3F3FE0
1F1F80
ENDCHAR
STARTCHAR 304B
ENCODING 12363
SWIDTH 1000 0
DWIDTH 28 0
BBX 23 22 3 0
BITMAP
018000
01C000
018000
018000
0180C0
0380E0
07F870
FFFC30
F30C38
060E1C
06060C
06060E
0C0606
0C0606
1C0E00
180E00
380C00
300C00
700C00
631800
E3F800
41F000
ENDCHAR
STARTCHAR 304C
ENCODING 12364
SWIDTH 1000 0
DWIDTH 28 0
BBX 24 23 3 1
BITMAP
00000C
018006
01C077
01803A
018018
018188
0381C0
07F8E0
FFFC70
F30C30
060E38
06061C
06060C
0C060E
0C0600
1C0E00
180E00
380C00
300C00
700C00
631800
E3F800
41F000
ENDCHAR
STARTCHAR 304D
ENCODING 12365
SWIDTH 1000 0
DWIDTH 28 0
BBX 18 23 5 -1
BITMAP
030000
030200
038E00
01FE00
FFF000
FEC000
00E1C0
006FC0
01FE00
FFF000
FC1800
001C00
000C00
000600
007F00
601F00
600200
200000
300000
380000
1E0000
0FFC00
01FC00
ENDCHAR
STARTCHAR 304E
ENCODING 12366
SWIDTH 1000 0
DWIDTH 28 0
BBX 22 24 5 0
BITMAP
000030
030098
0302CC
038E60
01FE70
FFF020
FEC000
00E1C0
006FC0
01FE00
FFF000
FC1800
001C00
000C00
000600
007F00
601F00
600200
200000
300000
380000
1E0000
0FFC00
01FC00
ENDCHAR
STARTCHAR 304F
ENCODING 12367
SWIDTH 1000 0
DWIDTH 28 0
BBX 12 23 7 -1
BITMAP
0060
00E0
00E0
01C0
0380
0700
0E00
1C00
3800
7000
E000
E000
7000
3800
1C00
0E00
0700
0380
01C0
01E0
00F0
0070
0020
ENDCHAR
STARTCHAR 3050
ENCODING 12368
SWIDTH 1000 0
DWIDTH 28 0
BBX 18 23 7 -1
BITMAP
006000
00E000
00E380
01C1C0
038CC0
070E40
0E0700
1C0200
380000
700000
E00000
E00000
700000
380000
1C0000
0E0000
070000
038000
01C000
01E000
00F000
007000
002000
ENDCHAR
STARTCHAR 3051
ENCODING 12369
SWIDTH 1000 0
DWIDTH 28 0
BBX 21 22 4 -1
BITMAP
200180
700180
600180
600180
600180
6001B8
E1FFF8
C1FFC0
C00180
C00180
C00180
C00180
C80180
C80180
D80180
D00380
F00300
700700
600E00
601C00
407800
003000
ENDCHAR
STARTCHAR 3052
ENCODING 12370
SWIDTH 1000 0
DWIDTH 28 0
BBX 23 24 4 -1
BITMAP
00000C
000066
2003B6
7003B6
600198
600180
600180
600198
E1FFF8
C1FFC0
C00180
C00180
C00180
C00180
C80180
C80180
D80380
D00300
F00300
700700
600E00
601C00
407800
007000
ENDCHAR
STARTCHAR 3053
ENCODING 12371
SWIDTH 1000 0
DWIDTH 28 0
BBX 18 19 5 1
BITMAP
3FFF00
3FFE00
007800
00E000
00C000
000000
000000
000000
000000
200000
700000
600000
C00000
C00000
C00000
E00000
7801C0
1FFFC0
07FF80
ENDCHAR
STARTCHAR 3054
ENCODING 12372
SWIDTH 1000 0
DWIDTH 28 0
BBX 22 22 5 0
BITMAP
000030
000098
0000DC
3FFE6C
3FFE60
007800
00E000
00C000
000000
000000
000000
000000
200000
700000
600000
C00000
C00000
C00000
E00000
7801C0
1FFFC0
07FF80
ENDCHAR
STARTCHAR 3055
ENCODING 12373
SWIDTH 1000 0
DWIDTH 28 0
BBX 18 22 4 0
BITMAP
018000
00C000
00C040
0061C0
006FC0
00FF00
FFF000
FE1800
001C00
000C00
000600
000700
003B00
003F80
2007C0
300180
300000
380000
180000
0E0000
07FE00
01FE00
ENDCHAR
STARTCHAR 3056
ENCODING 12374
SWIDTH 1000 0
DWIDTH 28 0
BBX 23 24 4 0
BITMAP
000008
00000C
018066
00C036
00C018
0061D0
006FC0
00FF00
FFF000
FE1800
001C00
000C00
000600
000700
003B00
003F80
2007C0
300180
300000
380000
180000
0E0000
07FE00
01FE00
ENDCHAR
STARTCHAR 3057
ENCODING 12375
SWIDTH 1000 0
DWIDTH 28 0
BBX 16 22 8 -1
BITMAP
C000
C000
C000
C000
C000
C000
C000
C000
C000
C000
C000
C000
C000
C000
C002
C007
C006
C00E
E01C
F078
7FE0
1F80
ENDCHAR
STARTCHAR 3058
ENCODING 12376
SWIDTH 1000 0
DWIDTH 28 0
BBX 16 22 8 -1
BITMAP
C00C
C00E
C067
C073
C038
C018
C000
C000
C000
C000
C000
C000
C000
C000
C002
C007
C006
C00E
E01C
F078
7FE0
1F80
ENDCHAR
STARTCHAR 3059
ENCODING 12377
SWIDTH 1000 0
DWIDTH 28 0
BBX 22 24 3 -2
BITMAP
000C00
000C00
000C00
000C00
FFFFFC
FFFFFC
000C00
000C00
00EC00
01FC00
031C00
070C00
060C00
060C00
071C00
03FC00
01FC00
000C00
001800
003800
007000
01E000
03C000
010000
ENDCHAR
STARTCHAR 305A
ENCODING 12378
SWIDTH 1000 0
DWIDTH 28 0
BBX 23 25 3 -2
BITMAP
00001C
000CCC
000C66
000C76
000C20
FFFFFC
FFFFFC
000C00
000C00
00EC00
01FC00
031C00
070C00
060C00
060C00
071C00
03FC00
01FC00
000C00
001800
003800
007000
01E000
03C000
010000
ENDCHAR
STARTCHAR 305B
ENCODING 12379
SWIDTH 1000 0
DWIDTH 28 0
BBX 24 22 2 0
BITMAP
0000C0
0000C0
0700C0
0700C0
0700C0
0700C0
0700C0
07FFFF
FFFFFE
C700C0
0700C0
0700C0
0700C0
0701C0
070FC0
070F80
070000
070000
070000
038000
03FFF8
00FFF8
ENDCHAR
STARTCHAR 305C
ENCODING 12380
SWIDTH 1000 0
DWIDTH 28 0
BBX 25 23 2 0
BITMAP
00000200
0000C300
0000DB00
0700DD80
0700CD80
0700CC00
0700C000
0700C000
07FFFF00
FFFFFE00
C700C000
0700C000
0700C000
0700C000
0701C000
070FC000
070F8000
07000000
07000000
07000000
03800000
03FFF800
00FFF800
ENDCHAR
STARTCHAR 305D
ENCODING 12381
SWIDTH 1000 0
DWIDTH 28 0
BBX 21 22 3 -1
BITMAP
001F80
0FFF80
0FC700
000E00
001C00
003800
006000
01C3F8
03FFF8
FFFF00
F83800
003000
006000
00C000
00C000
00C000
00C000
00E000
007000
007C00
001FC0
0007C0
ENDCHAR
STARTCHAR 305E
ENCODING 12382
SWIDTH 1000 0
DWIDTH 28 0
BBX 24 22 3 -1
BITMAP
001F8C
0FFF8E
0FC777
000E3A
001C18
003800
006000
01C3F8
03FFF8
FFFF00
F83800
003000
006000
00C000
00C000
00C000
00C000
00E000
007000
007C00
001FC0
0007C0
ENDCHAR
STARTCHAR 305F
ENCODING 12383
SWIDTH 1000 0
DWIDTH 28 0
BBX 22 22 3 -1
BITMAP
018000
018000
018000
038000
03F800
FFF800
FF0000
070000
060078
061FF8
0E1FC0
0C1000
0C0000
1C0000
180000
180000
386000
306000
703000
603800
E01FFC
C007FC
ENDCHAR
STARTCHAR 3060
ENCODING 12384
SWIDTH 1000 0
DWIDTH 28 0
BBX 22 22 3 -1
BITMAP
018018
01801C
0180CC
0380E4
03F870
FFF820
FF0000
070000
060078
061FF8
0E1FC0
0C1000
0C0000
1C0000
180000
180000
386000
306000
703000
603800
E01FFC
C007FC
ENDCHAR
STARTCHAR 3061
ENCODING 12385
SWIDTH 1000 0
DWIDTH 28 0
BBX 21 23 3 -1
BITMAP
018000
018000
018000
038180
FFFF80
FFFE00
030000
030000
060000
060000
061F80
0CFFE0
0DE070
1F8030
1E0038
0C0018
000038
000038
000070
0001E0
007FC0
01FF00
00E000
ENDCHAR
STARTCHAR 3062
ENCODING 12386
SWIDTH 1000 0
DWIDTH 28 0
BBX 24 23 3 0
BITMAP
01800C
018026
018073
0381BA
FFFF98
FFFE00
030000
030000
060000
060000
061F80
0CFFE0
0DE070
1F8030
1E0038
0C0018
000038
000038
000070
0001E0
007FC0
01FF00
00E000
ENDCHAR
STARTCHAR 3063
ENCODING 12387
SWIDTH 1000 0
DWIDTH 28 0
BBX 17 13 5 1
BITMAP
03FC00
7FFF00
FC0780
400180
000180
000180
000180
000180
000380
000700
003E00
07F800
07C000
ENDCHAR
STARTCHAR 3064
ENCODING 12388
SWIDTH 1000 0
DWIDTH 28 0
BBX 21 17 3 1
BITMAP
007F80
0FFFE0
FF80F0
F00030
800038
000018
000018
000018
000018
000038
000038
000070
0001E0
0007C0
01FF00
03FC00
018000
ENDCHAR
STARTCHAR 3065
ENCODING 12389
SWIDTH 1000 0
DWIDTH 28 0
BBX 24 23 3 1
BITMAP
000008
00001C
00004E
000067
000030
000018
007F80
0FFFE0
FF80F0
F00030
800038
000018
000018
000018
000018
000038
000038
000070
0001E0
0007C0
01FF00
03FC00
018000
ENDCHAR
STARTCHAR 3066
ENCODING 12390
SWIDTH 1000 0
DWIDTH 28 0
BBX 21 20 3 0
BITMAP
0000F8
03FFF8
FFFFC0
FC0E00
003800
007000
006000
00C000
00C000
01C000
018000
018000
018000
018000
01C000
00C000
00F000
007C00
003FC0
0007C0
ENDCHAR
STARTCHAR 3067
ENCODING 12391
SWIDTH 1000 0
DWIDTH 28 0
BBX 22 20 3 0
BITMAP
0000F8
03FFF8
FFFFC0
FC0E00
003810
007018
0060CC
00C0CC
00C060
01C030
018000
018000
018000
018000
01C000
00C000
00F000
007C00
003FC0
0007C0
ENDCHAR
STARTCHAR 3068
ENCODING 12392
SWIDTH 1000 0
DWIDTH 28 0
BBX 18 22 5 0
BITMAP
0C0000
0C0000
0E0000
0E0000
060000
060000
070000
030F80
037F80
01F800
07C000
0E0000
3C0000
700000
600000
E00000
C00000
C00000
E00000
780000
3FFFC0
0FFFC0
ENDCHAR
STARTCHAR 3069
ENCODING 12393
SWIDTH 1000 0
DWIDTH 28 0
BBX 21 22 5 1
BITMAP
0C0060
0C0130
0E0398
0E01D0
0600C0
060000
070000
030F80
037F80
01F800
07C000
0E0000
3C0000
700000
600000
E00000
C00000
C00000
E00000
780000
3FFFC0
0FFFC0
ENDCHAR
STARTCHAR 306A
ENCODING 12394
SWIDTH 1000 0
DWIDTH 28 0
BBX 23 24 3 -1
BITMAP
010000
018000
018000
038000
030000
03F8E0
7FF8F0
7E0038
06001C
0E030C
0C0300
1C0300
180300
380300
300300
700300
607F00
E0FF80
41C3F0
0183FC
01831E
01C304
00FF00
007E00
ENDCHAR
STARTCHAR 306B
ENCODING 12395
SWIDTH 1000 0
DWIDTH 28 0
BBX 21 21 4 0
BITMAP
300000
700000
6007E0
60FFE0
607C00
600000
E00000
C00000
C00000
C00000
C00000
C00000
C00000
C8C000
D8C000
F0C000
F0E000
F07000
E07FF8
601FF8
600000
ENDCHAR
STARTCHAR 306C
ENCODING 12396
SWIDTH 1000 0
DWIDTH 28 0
BBX 24 22 2 0
BITMAP
000C00
000C00
000C00
300C00
301F00
30FFE0
1BD870
1F1838
0E181C
1C300C
3C300E
363006
666006
636006
C3C006
C1C7CE
C1CFFC
C3CC3C
67481F
7E0C3B
380FF1
0003C0
ENDCHAR
STARTCHAR 306D
ENCODING 12397
SWIDTH 1000 0
DWIDTH 28 0
BBX 25 23 2 -1
BITMAP
03000000
03000000
03000000
03000000
0303E000
1F0FF000
FF9C3800
63701C00
03E00C00
03C00C00
03800E00
07000E00
0F000E00
1F000E00
1B000C00
3307CC00
730FFC00
E31C3C00
43181F00
031C3F80
030FF100
0307C000
03000000
ENDCHAR
STARTCHAR 306E
ENCODING 12398
SWIDTH 1000 0
DWIDTH 28 0
BBX 22 20 3 0
BITMAP
00FF00
03FFC0
0F30E0
1C3070
383038
70301C
60300C
E0700C
C0600C
C0600C
C0600C
C0E00C
C0C00C
C1C01C
C18038
638078
7300F0
3E07E0
1C1F80
000C00
ENDCHAR
STARTCHAR 306F
ENCODING 12399
SWIDTH 1000 0
DWIDTH 28 0
BBX 23 21 3 0
BITMAP
380180
300180
300180
300180
700198
60FFFC
60FFE0
600180
600180
600180
600180
E00180
E00180
EC0180
683F80
78FFE0
70C1F8
7181BE
70C18C
70FF80
703F00
ENDCHAR
STARTCHAR 3070
ENCODING 12400
SWIDTH 1000 0
DWIDTH 28 0
BBX 24 23 3 0
BITMAP
000006
000036
3801BB
300198
300188
300180
700198
60FFFC
60FFE0
600180
600180
600180
600180
E00180
E00180
EC0180
683F80
78FFE0
71C1F8
7181BC
71C38C
70FF04
703E00
ENDCHAR
STARTCHAR 3071
ENCODING 12401
SWIDTH 1000 0
DWIDTH 28 0
BBX 24 24 3 0
BITMAP
00001E
000033
000021
3801A1
3001B3
30019E
300180
700198
60FFFC
60FFE0
600180
600180
600180
600180
E00180
E00180
EC0180
683F80
78FFE0
71C1F8
7181BC
71C38C
70FF04
703E00
ENDCHAR
STARTCHAR 3072
ENCODING 12402
SWIDTH 1000 0
DWIDTH 28 0
BBX 24 20 2 0
BITMAP
01E1C0
0FE0C0
7EC0E0
F980F0
4300F0
0700D8
0600DC
0C00CE
0C00C6
1C00C7
1800C2
1800C0
1800C0
1800C0
1801C0
1C0180
0C0380
0F0F00
07FE00
01F800
ENDCHAR
STARTCHAR 3073
ENCODING 12403
SWIDTH 1000 0
DWIDTH 28 0
BBX 25 23 2 -1
BITMAP
00000600
00001B00
00001980
01E1CD80
0FE0CC00
7EC0E000
F980F000
4300F000
0700D800
0600DC00
0C00CE00
0C00C600
1C00C700
1800C200
1800C000
1800C000
1800C000
1801C000
1C018000
0C038000
0F0F0000
07FE0000
01F80000
ENDCHAR
STARTCHAR 3074
ENCODING 12404
SWIDTH 1000 0
DWIDTH 28 0
BBX 25 23 2 -1
BITMAP
00000700
00000980
00001080
01E1D080
0FE0C980
7EC0E700
F980F000
4300F000
0700D800
0600DC00
0C00CE00
0C00C600
1C00C700
1800C200
1800C000
1800C000
1800C000
1801C000
1C018000
0C038000
0F0F0000
07FE0000
01F80000
ENDCHAR
STARTCHAR 3075
ENCODING 12405
SWIDTH 1000 0
DWIDTH 28 0
BBX 24 22 2 0
BITMAP
008000
00F000
007C00
001E00
000600
000200
000000
006000
007000
003000
003020
083870
1C1C38
180C1C
38060C
30070E
700306
E00307
C30302
C38700
01FE00
007C00
ENDCHAR
STARTCHAR 3076
ENCODING 12406
SWIDTH 1000 0
DWIDTH 28 0
BBX 24 23 2 0
BITMAP
000004
00800E
00F026
007C33
001E1A
000618
000200
000000
006000
007000
003000
003020
083870
1C1C38
180C1C
38060C
30070E
700306
E00307
C30302
C38700
01FE00
007C00
ENDCHAR
STARTCHAR 3077
ENCODING 12407
SWIDTH 1000 0
DWIDTH 28 0
BBX 24 22 2 0
BITMAP
00803C
00F066
007C42
001E42
000666
00021C
000000
006000
007000
003000
003020
083870
1C1C38
180C1C
38060C
30070E
700306
E00307
C30302
C38700
01FE00
007C00
ENDCHAR
STARTCHAR 3078
ENCODING 12408
SWIDTH 1000 0
DWIDTH 28 0
BBX 24 13 2 4
BITMAP
00C000
01F000
03F800
073C00
0E1E00
1E0F00
380780
7001E0
E000F0
40007C
00001F
00000F
000002
ENDCHAR
STARTCHAR 3079
ENCODING 12409
SWIDTH 1000 0
DWIDTH 28 0
BBX 24 16 2 4
BITMAP
000030
000018
0001DC
00C0EC
01F060
03F820
073C00
0E1E00
1E0F00
380780
7001E0
E000F0
40007C
00001F
00000F
000002
ENDCHAR
STARTCHAR 307A
ENCODING 12410
SWIDTH 1000 0
DWIDTH 28 0
BBX 24 16 2 4
BITMAP
000078
0000CC
000084
00C084
01F0CC
03F838
073C00
0E1E00
1E0F00
380780
7001E0
E000F0
40007C
00001F
00000F
000002
ENDCHAR
STARTCHAR 307B
ENCODING 12411
SWIDTH 1000 0
DWIDTH 28 0
BBX 23 21 3 1
BITMAP
300018
30FFF8
70FFC0
600180
600180
600180
60019C
61FFFC
61FFC0
E00180
E00180
C00180
C80180
CC0180
D87F80
D8FFE0
71C1F8
7181BE
71C18C
70FF80
607F00
ENDCHAR
STARTCHAR 307C
ENCODING 12412
SWIDTH 1000 0
DWIDTH 28 0
BBX 24 23 3 1
BITMAP
000006
00001B
30001B
30FFEC
70FFCC
600180
600180
600180
600198
61FFFC
61FFC0
E00180
E00180
C00180
C80180
CC0180
D87F80
D8FFC0
71C1F8
7181BC
71C18C
70FF80
607F00
ENDCHAR
STARTCHAR 307D
ENCODING 12413
SWIDTH 1000 0
DWIDTH 28 0
BBX 25 24 3 0
BITMAP
00000E00
00001100
00003180
30003180
30FFD100
70FFCE00
60018000
60018000
60018000
60019800
61FFFC00
61FFC000
E0018000
E0018000
C0018000
C8018000
CC018000
D87F8000
D8FFC000
71C1F800
7181BC00
71C18C00
70FF8000
607F0000
ENDCHAR
STARTCHAR 307E
ENCODING 12414
SWIDTH 1000 0
DWIDTH 28 0
BBX 18 22 5 0
BITMAP
006000
006000
006000
0060C0
FFFFC0
FFFE00
006000
006000
006000
7FFF80
7FFF80
006000
006000
006000
006000
1FE000
7FF800
E07E00
C06F80
E063C0
7FE0C0
1FC000
ENDCHAR
STARTCHAR 307F
ENCODING 12415
SWIDTH 1000 0
DWIDTH 28 0
BBX 24 21 2 -1
BITMAP
03FC00
0FFC00
0C1C00
001800
001800
001838
003038
003030
01F830
0FFFB0
1C63F0
30C0F8
60C07E
61806F
E38063
6300C0
6601C0
7C0380
380700
001E00
000400
ENDCHAR
STARTCHAR 3080
ENCODING 12416
SWIDTH 1000 0
DWIDTH 28 0
BBX 23 22 3 0
BITMAP
060000
060000
060000
061000
FFF0E0
FFE070
060038
06001C
06000E
3E0006
660004
C60000
C60000
C600E0
C60060
CE0060
FC0060
7C0060
0C0060
0C01E0
0FFFC0
03FF00
ENDCHAR
STARTCHAR 3081
ENCODING 12417
SWIDTH 1000 0
DWIDTH 28 0
BBX 23 22 2 -1
BITMAP
000600
000600
000600
180600
1C0600
0C7FE0
0DECF0
0F8C38
0E1C1C
1E180E
3E1806
333006
633006
61E006
61E006
C0C00E
C1E00E
C3E01C
676038
7E00F0
3C0FE0
000F80
ENDCHAR
STARTCHAR 3082
ENCODING 12418
SWIDTH 1000 0
DWIDTH 28 0
BBX 19 23 4 -1
BITMAP
018000
018000
038000
030000
030000
FFFE00
FFFE00
030000
030000
030000
070000
7E7C00
FFFC00
0600E0
060060
060060
060060
060060
060060
0700E0
0381C0
01FF80
00FE00
ENDCHAR
STARTCHAR 3083
ENCODING 12419
SWIDTH 1000 0
DWIDTH 28 0
BBX 19 19 4 -1
BITMAP
004000
00E000
187800
181800
0C0F80
0C7FC0
07F0E0
1F0060
FF0060
6300E0
0303C0
019F80
019C00
018000
00C000
00C000
00C000
006000
006000
ENDCHAR
STARTCHAR 3084
ENCODING 12420
SWIDTH 1000 0
DWIDTH 28 0
BBX 23 23 2 -1
BITMAP
003000
003C00
1C0E00
0C0700
0E0200
0603F0
071FFC
03FC0E
07E006
3F8006
F98006
41C00E
00C01C
00C7F8
00E3F0
006000
006000
007000
003000
003000
003800
001800
001800
ENDCHAR
STARTCHAR 3085
ENCODING 12421
SWIDTH 1000 0
DWIDTH 28 0
BBX 18 19 5 -2
BITMAP
003000
403000
603000
60FC00
63FF00
C73380
CC3180
D831C0
F030C0
F030C0
E231C0
E73180
E3F780
60FF00
607C00
00E000
00C000
038000
010000
ENDCHAR
STARTCHAR 3086
ENCODING 12422
SWIDTH 1000 0
DWIDTH 28 0
BBX 22 23 3 -1
BITMAP
000C00
000C00
700C00
600C00
603FC0
60FFE0
61CE70
638E18
E6061C
EC060C
FC060C
F8060C
F0061C
718E1C
61CE38
60FC70
607FE0
601F80
601C00
001800
003800
007000
00E000
ENDCHAR
STARTCHAR 3087
ENCODING 12423
SWIDTH 1000 0
DWIDTH 28 0
BBX 15 17 6 0
BITMAP
0180
0180
0180
0180
01FC
01FC
0180
0180
0180
0180
0180
3F80
FFF0
C1FC
E18E
7F84
3F00
ENDCHAR
STARTCHAR 3088
ENCODING 12424
SWIDTH 1000 0
DWIDTH 28 0
BBX 19 23 4 -1
BITMAP
006000
006000
006000
006000
006000
0061C0
007FC0
007E00
006000
006000
006000
006000
006000
006000
1FE000
7FF000
F07E00
C06F80
C063E0
C060E0
70E000
3FC000
020000
ENDCHAR
STARTCHAR 3089
ENCODING 12425
SWIDTH 1000 0
DWIDTH 28 0
BBX 18 24 6 -1
BITMAP
080000
0E0000
0F8000
03E000
00E000
000000
700000
600000
600000
600000
600000
60FC00
E3FF00
CF0380
DC0180
F801C0
E001C0
C001C0
000180
000380
000F00
007E00
07F800
07C000
ENDCHAR
STARTCHAR 308A
ENCODING 12426
SWIDTH 1000 0
DWIDTH 28 0
BBX 15 23 6 -1
BITMAP
000E
600E
600E
E00E
E006
C006
C006
C006
C006
C606
CE06
EC06
7C0E
780E
700C
000C
001C
0018
0038
00F0
03E0
0780
0200
ENDCHAR
STARTCHAR 308B
ENCODING 12427
SWIDTH 1000 0
DWIDTH 28 0
BBX 20 22 4 -1
BITMAP
001C00
1FFE00
1FDC00
001C00
003800
007000
00E000
01C000
038000
07FF00
0FFFC0
1F81E0
3C00E0
700060
E00070
43C070
07F060
0C38E0
0C19C0
0E0F80
07FF00
01F800
ENDCHAR
STARTCHAR 308C
ENCODING 12428
SWIDTH 1000 0
DWIDTH 28 0
BBX 25 23 2 -1
BITMAP
03000000
03000000
03000000
03000000
0303C000
3F8FE000
7F9C6000
63306000
03606000
03C06000
03806000
07006000
07006000
0F00E000
1F00C000
3B00C000
7300C100
E300C380
6300E700
03007E00
03007C00
03003800
03000000
ENDCHAR
STARTCHAR 308D
ENCODING 12429
SWIDTH 1000 0
DWIDTH 28 0
BBX 19 22 5 -1
BITMAP
001800
7FFC00
3FDC00
003800
007000
00E000
01C000
018000
030000
067E00
0FFF80
1F81C0
3E00E0
F800E0
E00060
400060
0000E0
0000C0
000380
001F00
07FC00
07C000
ENDCHAR
STARTCHAR 308E
ENCODING 12430
SWIDTH 1000 0
DWIDTH 28 0
BBX 18 18 5 -1
BITMAP
0C0000
0C0000
0C0000
0C0000
FE0000
EE7E00
0DC380
0F0180
0E00C0
1C00C0
3C00C0
6C00C0
CC01C0
CC0380
0C0780
0C7E00
0C3C00
0C0000
ENDCHAR
STARTCHAR 308F
ENCODING 12431
SWIDTH 1000 0
DWIDTH 28 0
BBX 23 23 2 -1
BITMAP
038000
030000
030000
030000
030000
0F8000
7FC7E0
739FF8
033C1C
03E00E
03C006
038006
070006
0F0006
1F0006
3B0006
73000E
E3001C
430038
0301F0
030FE0
030780
030000
ENDCHAR
STARTCHAR 3090
ENCODING 12432
SWIDTH 1000 0
DWIDTH 28 0
BBX 22 22 3 -1
BITMAP
001C00
0FFC00
0FCC00
001C00
001800
001800
003F00
01FFE0
07B0F0
0E6038
186018
30E01C
70C00C
61C00C
C1800C
C30F0C
C31F8C
C631DC
EC30F8
7C3870
301FE0
000FC0
ENDCHAR
STARTCHAR 3091
ENCODING 12433
SWIDTH 1000 0
DWIDTH 28 0
BBX 24 22 2 -2
BITMAP
001F00
07FF80
07CE00
001C00
003000
00EFC0
01FFE0
07E070
0F0038
3CF838
398C30
030C30
0318E0
01F3C0
00FF00
038000
0701E0
0FC3F8
3FE61C
7C7C0E
F03C07
E03803
ENDCHAR
STARTCHAR 3092
ENCODING 12434
SWIDTH 1000 0
DWIDTH 28 0
BBX 20 23 4 0
BITMAP
01C000
018000
018000
7FFE00
7FFE00
070000
060000
0C0000
0DE000
1FF030
1E31F0
381FE0
701F00
E07800
C1F800
439800
071800
061800
0C0000
0E0000
078000
03FFE0
00FFE0
ENDCHAR
STARTCHAR 3093
ENCODING 12435
SWIDTH 1000 0
DWIDTH 28 0
BBX 23 23 3 -1
BITMAP
002000
003800
007000
006000
00E000
00C000
01C000
018000
038000
030000
070000
06F000
0FF800
0F1C00
1E0C00
1C0C04
380C0E
380C0C
700C1C
700C38
E00E70
E007E0
4003C0
ENDCHAR
STARTCHAR 3094
ENCODING 12436
SWIDTH 1000 0
DWIDTH 28 0
BBX 21 25 6 -2
BITMAP
080000
0F0060
0FC130
01F3B8
007190
0000C0
000080
03F000
1FFC00
FE1C00
E00E00
800600
000600
000600
000600
000600
000E00
000C00
001C00
003800
007000
01E000
0FC000
070000
040000
ENDCHAR
STARTCHAR 3095
ENCODING 12437
SWIDTH 1000 0
DWIDTH 28 0
BBX 18 18 5 0
BITMAP
060000
060000
060000
060400
060E00
7FC700
FFE300
0C6180
1861C0
1860C0
1860C0
306000
306000
706000
606000
E4E000
CFC000
838000
ENDCHAR
STARTCHAR 3096
ENCODING 12438
SWIDTH 1000 0
DWIDTH 28 0
BBX 17 19 6 -1
BITMAP
601800
601800
601800
600800
C00880
C01F80
C3FF00
C30C00
C00C00
C00C00
C00C00
D80C00
D01800
F01800
E01800
E03000
607000
40E000
01C000
ENDCHAR
STARTCHAR 3099
ENCODING 12441
SWIDTH 1000 0
DWIDTH 28 0
BBX 7 6 19 17
BITMAP
18
1C
CE
E6
70
30
ENDCHAR
STARTCHAR 309A
ENCODING 12442
SWIDTH 1000 0
DWIDTH 28 0
BBX 7 6 19 17
BITMAP
38
44
C6
C6
44
38
ENDCHAR
STARTCHAR 309B
ENCODING 12443
SWIDTH 1000 0
DWIDTH 28 0
BBX 7 6 1 17
BITMAP
18
1C
CE
E6
70
30
ENDCHAR
STARTCHAR 309C
ENCODING 12444
SWIDTH 1000 0
DWIDTH 28 0
BBX 6 6 1 17
BITMAP
38
44
84
C4
4C
38
ENDCHAR
STARTCHAR 309D
ENCODING 12445
SWIDTH 1000 0
DWIDTH 28 0
BBX 11 14 8 4
BITMAP
E000
F000
3C00
0E00
0700
0380
01E0
00E0
0060
0060
01E0
07C0
3F00
1C00
ENDCHAR
STARTCHAR 309E
ENCODING 12446
SWIDTH 1000 0
DWIDTH 28 0
BBX 14 17 8 4
BITMAP
0038
001C
01CC
E0E0
F070
3C20
0E00
0700
0380
01E0
00E0
0060
0060
01E0
07C0
3F00
1C00
ENDCHAR
STARTCHAR 309F
ENCODING 12447
SWIDTH 1000 0
DWIDTH 28 0
BBX 15 25 7 -2
BITMAP
0300
0600
0600
0600
07FE
0FFE
0C00
1C00
1800
1800
33C0
3FF0
7C38
7018
E018
C018
0018
0018
0018
6018
6030
6070
30E0
3FC0
0F00
ENDCHAR
STARTCHAR 30A0
ENCODING 12448
SWIDTH 1000 0
DWIDTH 28 0
BBX 12 7 8 7
BITMAP
FFF0
FFF0
0000
0000
0000
FFF0
FFF0
ENDCHAR
STARTCHAR 30A1
ENCODING 12449
SWIDTH 1000 0
DWIDTH 28 0
BBX 17 16 6 0
BITMAP
FFFF00
FFFF80
000300
000600
030E00
031C00
033800
037000
032000
030000
070000
060000
0E0000
1C0000
780000
700000
ENDCHAR
STARTCHAR 30A2
ENCODING 12450
SWIDTH 1000 0
DWIDTH 28 0
BBX 21 20 4 -1
BITMAP
FFFFF0
FFFFF8
000038
000070
00C0E0
00C0C0
00C1C0
00C780
00CF00
00C600
00C000
00C000
01C000
01C000
038000
038000
070000
1E0000
3C0000
380000
ENDCHAR
STARTCHAR 30A3
ENCODING 12451
SWIDTH 1000 0
DWIDTH 28 0
BBX 13 18 6 -1
BITMAP
0008
0018
0038
0070
00E0
03C0
0780
1F80
3D80
F180
C180
0180
0180
0180
0180
0180
0180
0180
ENDCHAR
STARTCHAR 30A4
ENCODING 12452
SWIDTH 1000 0
DWIDTH 28 0
BBX 17 22 4 0
BITMAP
000180
000380
000700
000E00
001C00
003800
00F000
01F000
03F000
0F7000
3E7000
F87000
E07000
807000
007000
007000
007000
007000
007000
007000
007000
007000
ENDCHAR
STARTCHAR 30A5
ENCODING 12453
SWIDTH 1000 0
DWIDTH 28 0
BBX 15 19 6 -1
BITMAP
0180
0180
0180
0180
FFFE
FFFE
E006
E006
E006
E00E
E00C
000C
001C
0038
0070
00E0
03C0
0780
0600
ENDCHAR
STARTCHAR 30A6
ENCODING 12454
SWIDTH 1000 0
DWIDTH 28 0
BBX 18 23 5 -1
BITMAP
00C000
00C000
00C000
00C000
00C000
FFFF80
FFFFC0
C000C0
C001C0
C001C0
C00180
C00180
C00380
000380
000700
000700
000E00
001C00
003800
00F000
03E000
078000
020000
ENDCHAR
STARTCHAR 30A7
ENCODING 12455
SWIDTH 1000 0
DWIDTH 28 0
BBX 18 12 5 2
BITMAP
3FFF00
3FFF00
00C000
00C000
00C000
00C000
00C000
00C000
00C000
00C000
FFFFC0
FFFFC0
ENDCHAR
STARTCHAR 30A8
ENCODING 12456
SWIDTH 1000 0
DWIDTH 28 0
BBX 22 16 3 2
BITMAP
3FFFF0
3FFFF0
003000
003000
003000
003000
003000
003000
003000
003000
003000
003000
003000
003000
FFFFFC
FFFFFC
ENDCHAR
STARTCHAR 30A9
ENCODING 12457
SWIDTH 1000 0
DWIDTH 28 0
BBX 17 17 5 0
BITMAP
003000
003000
003000
003000
7FFF80
7FFF80
007000
00F000
01F000
03B000
073000
0E3000
1C3000
783000
E03000
41F000
01F000
ENDCHAR
STARTCHAR 30AA
ENCODING 12458
SWIDTH 1000 0
DWIDTH 28 0
BBX 22 22 2 0
BITMAP
000700
000700
000700
000700
000700
000700
7FFFFC
7FFFFC
000F00
001B00
003B00
003300
006300
00E300
01C300
078300
0F0300
3C0300
F80300
600300
007F00
007E00
ENDCHAR
STARTCHAR 30AB
ENCODING 12459
SWIDTH 1000 0
DWIDTH 28 0
BBX 19 22 4 -1
BITMAP
00C000
00C000
00C000
00C000
00C000
00C000
FFFFE0
FFFFE0
00C060
00C060
01C060
01C060
018060
0380E0
0380E0
0700E0
0700E0
0E00C0
1C00C0
3831C0
F03FC0
E01F80
ENDCHAR
STARTCHAR 30AC
ENCODING 12460
SWIDTH 1000 0
DWIDTH 28 0
BBX 23 23 4 -1
BITMAP
000018
00C05C
00C0CC
00C066
00C030
00C030
00C000
FFFFE0
FFFFE0
00C060
00C060
01C060
01C060
018060
0380E0
0380E0
0700E0
0700E0
0E00C0
1C00C0
3831C0
F03FC0
E01F80
ENDCHAR
STARTCHAR 30AD
ENCODING 12461
SWIDTH 1000 0
DWIDTH 28 0
BBX 22 23 3 -1
BITMAP
00C000
00C000
00C000
00E000
00E1E0
007FE0
1FFE00
7FE000
607000
007000
003004
0031FC
007FF8
1FFE00
FFB800
601800
001800
001800
001C00
001C00
000C00
000C00
000C00
ENDCHAR
STARTCHAR 30AE
ENCODING 12462
SWIDTH 1000 0
DWIDTH 28 0
BBX 24 25 3 -1
BITMAP
000008
00000C
00C06E
00C077
00C030
00E018
00E1C0
007FE0
1FFE00
7FE000
607000
007000
003004
0031FC
007FF8
1FFE00
FFB800
601800
001800
001800
001C00
001C00
000C00
000C00
000C00
ENDCHAR
STARTCHAR 30AF
ENCODING 12463
SWIDTH 1000 0
DWIDTH 28 0
BBX 19 23 4 -1
BITMAP
008000
00C000
01C000
018000
03FFC0
03FFE0
0700C0
0600C0
0E01C0
1C0180
380180
700380
E00300
400700
000E00
000C00
001C00
003800
00F000
01E000
07C000
1F0000
0C0000
ENDCHAR
STARTCHAR 30B0
ENCODING 12464
SWIDTH 1000 0
DWIDTH 28 0
BBX 23 24 4 -1
BITMAP
000008
00800C
00C066
01C036
018038
03FFD0
03FFE0
0700C0
0600C0
0E01C0
1C0180
380180
700380
E00300
400700
000E00
000C00
001C00
003800
00F000
01E000
07C000
1F0000
0C0000
ENDCHAR
STARTCHAR 30B1
ENCODING 12465
SWIDTH 1000 0
DWIDTH 28 0
BBX 22 22 3 -1
BITMAP
038000
038000
030000
030000
070000
07FFFC
0FFFFC
0C0700
1C0700
380600
700600
F00600
E00600
000E00
000C00
001C00
001800
003800
007000
01E000
03C000
030000
ENDCHAR
STARTCHAR 30B2
ENCODING 12466
SWIDTH 1000 0
DWIDTH 28 0
BBX 24 24 3 -1
BITMAP
000008
00001C
03806E
038077
030038
030010
070000
07FFFC
0FFFFC
0C0700
1C0700
380600
700600
F00600
E00600
000E00
000C00
001C00
001800
003800
007000
01E000
03C000
030000
ENDCHAR
STARTCHAR 30B3
ENCODING 12467
SWIDTH 1000 0
DWIDTH 28 0
BBX 18 17 4 1
BITMAP
7FFFC0
7FFFC0
0000C0
0000C0
0000C0
0000C0
0000C0
0000C0
0000C0
0000C0
0000C0
0000C0
0000C0
0000C0
FFFFC0
FFFFC0
0000C0
ENDCHAR
STARTCHAR 30B4
ENCODING 12468
SWIDTH 1000 0
DWIDTH 28 0
BBX 23 22 4 1
BITMAP
00001C
00006C
000066
000034
000018
7FFFC0
7FFFC0
0000C0
0000C0
0000C0
0000C0
0000C0
0000C0
0000C0
0000C0
0000C0
0000C0
0000C0
0000C0
FFFFC0
FFFFC0
0000C0
ENDCHAR
STARTCHAR 30B5
ENCODING 12469
SWIDTH 1000 0
DWIDTH 28 0
BBX 24 23 2 -1
BITMAP
0001C0
0301C0
0301C0
0301C0
0301C0
0301C0
0301C0
FFFFFF
FFFFFF
0301C0
0301C0
0301C0
030180
030180
030180
000180
000380
000300
000700
000E00
003C00
00F800
006000
ENDCHAR
STARTCHAR 30B6
ENCODING 12470
SWIDTH 1000 0
DWIDTH 28 0
BBX 25 24 2 -1
BITMAP
00000600
0001C300
0301D980
0301DD80
0301CC00
0301CE00
0301C000
0301C000
FFFFFF00
FFFFFF00
0301C000
0301C000
0301C000
03018000
03018000
03018000
00018000
00038000
00030000
00070000
000E0000
003C0000
00F80000
00600000
ENDCHAR
STARTCHAR 30B7
ENCODING 12471
SWIDTH 1000 0
DWIDTH 28 0
BBX 21 21 3 0
BITMAP
040000
0F0000
078000
03C000
00C000
000000
600018
F80018
3C0038
0E0070
040070
0000E0
0001C0
000780
000F00
001E00
007800
03F000
1FC000
3F0000
180000
ENDCHAR
STARTCHAR 30B8
ENCODING 12472
SWIDTH 1000 0
DWIDTH 28 0
BBX 23 23 3 0
BITMAP
000018
00005C
0400CE
0F0066
078034
03C030
00C000
000000
600018
F80018
3C0038
0E0070
040070
0000E0
0001C0
000780
000F00
001E00
007800
03F000
1FC000
3F0000
180000
ENDCHAR
STARTCHAR 30B9
ENCODING 12473
SWIDTH 1000 0
DWIDTH 28 0
BBX 21 20 3 0
BITMAP
0FFF00
3FFF80
3FFF80
000380
000380
000300
000700
000E00
000C00
001C00
003800
007C00
006E00
01E780
03C3C0
0780E0
1E0070
7C0038
F80018
600010
ENDCHAR
STARTCHAR 30BA
ENCODING 12474
SWIDTH 1000 0
DWIDTH 28 0
BBX 24 23 3 0
BITMAP
00000C
00006E
000077
0FFF33
3FFF98
3FFF90
000380
000380
000300
000700
000E00
000C00
001C00
003800
007C00
006E00
01E780
03C3C0
0780E0
1E0070
7C0038
F80018
600010
ENDCHAR
STARTCHAR 30BB
ENCODING 12475
SWIDTH 1000 0
DWIDTH 28 0
BBX 21 21 3 0
BITMAP
030000
030000
030000
030000
030000
0301F8
03FFF8
FFFE38
FF0070
0300E0
0301C0
030380
030700
030600
030000
030000
030000
030000
038038
01FFF8
00FFE0
ENDCHAR
STARTCHAR 30BC
ENCODING 12476
SWIDTH 1000 0
DWIDTH 28 0
BBX 23 23 3 0
BITMAP
00000C
00000C
030066
030076
030030
030020
030000
0301F8
03FFF8
FFFE38
FF0070
0300E0
0301C0
030380
030700
030600
030000
030000
030000
030000
038038
01FFF8
00FFE0
ENDCHAR
STARTCHAR 30BD
ENCODING 12477
SWIDTH 1000 0
DWIDTH 28 0
BBX 18 21 5 -1
BITMAP
000080
C000C0
E000C0
7001C0
7001C0
380180
380380
180380
100700
000700
000E00
000E00
001C00
003800
007000
00E000
01C000
078000
1F0000
1C0000
080000
ENDCHAR
STARTCHAR 30BE
ENCODING 12478
SWIDTH 1000 0
DWIDTH 28 0
BBX 22 25 5 -1
BITMAP
000010
0000D8
0000CC
00006C
000060
C00080
E000C0
7001C0
7001C0
380180
380380
180380
100700
000700
000E00
000E00
001C00
003800
007000
00E000
01C000
078000
1F0000
1C0000
080000
ENDCHAR
STARTCHAR 30BF
ENCODING 12479
SWIDTH 1000 0
DWIDTH 28 0
BBX 19 23 4 -1
BITMAP
01C000
018000
018000
03FFC0
03FFE0
0700C0
0600C0
0E01C0
1F0180
3B8180
71C380
E0E300
C07700
003E00
001C00
001C00
003800
007000
01E000
03C000
0F0000
1E0000
080000
ENDCHAR
STARTCHAR 30C0
ENCODING 12480
SWIDTH 1000 0
DWIDTH 28 0
BBX 23 25 4 -1
BITMAP
000008
00004C
01C066
018036
018030
03FFC0
03FFE0
0700C0
0600C0
0E01C0
1F0180
3B8180
71C380
E0E300
C07700
003E00
001C00
001C00
003800
007000
01E000
03C000
0F0000
1E0000
080000
ENDCHAR
STARTCHAR 30C1
ENCODING 12481
SWIDTH 1000 0
DWIDTH 28 0
BBX 22 23 3 -1
BITMAP
0003C0
007FC0
1FFE00
1FF800
003800
003800
003800
003800
003FFC
FFFFFC
FFF800
003800
003800
003000
003000
003000
006000
00E000
01C000
038000
0F0000
1E0000
080000
ENDCHAR
STARTCHAR 30C2
ENCODING 12482
SWIDTH 1000 0
DWIDTH 28 0
BBX 24 24 3 -2
BITMAP
000006
0003B6
007FF3
1FFC1B
1FB818
003800
003800
003800
003800
003FFC
FFFFFC
FFF800
003800
003800
003000
003000
003000
006000
00E000
01C000
038000
0F0000
1E0000
080000
ENDCHAR
STARTCHAR 30C3
ENCODING 12483
SWIDTH 1000 0
DWIDTH 28 0
BBX 16 16 6 0
BITMAP
0200
4707
C306
E386
6186
710E
600C
001C
0018
0038
0070
00E0
01C0
0780
1E00
1C00
ENDCHAR
STARTCHAR 30C4
ENCODING 12484
SWIDTH 1000 0
DWIDTH 28 0
BBX 20 20 4 0
BITMAP
038040
418070
C1C060
E1C060
60E0E0
70E0E0
7040C0
3001C0
0001C0
000180
000380
000700
000700
000E00
001C00
003800
00F000
01E000
07C000
070000
ENDCHAR
STARTCHAR 30C5
ENCODING 12485
SWIDTH 1000 0
DWIDTH 28 0
BBX 23 24 4 -1
BITMAP
000008
00006C
000066
000036
038020
418060
C1C060
E1C060
60E0E0
70E0E0
7040C0
3001C0
0001C0
000180
000380
000700
000700
000E00
001C00
003800
00F000
01E000
07C000
070000
ENDCHAR
STARTCHAR 30C6
ENCODING 12486
SWIDTH 1000 0
DWIDTH 28 0
BBX 23 21 2 -2
BITMAP
0FFFF0
0FFFF0
000000
000000
000000
000000
000000
FFFFFE
FFFFFE
001C00
001C00
001800
001800
001800
003800
003000
007000
00E000
03C000
0F8000
0E0000
ENDCHAR
STARTCHAR 30C7
ENCODING 12487
SWIDTH 1000 0
DWIDTH 28 0
BBX 25 24 2 -1
BITMAP
00000300
00001B00
00001980
0FFFEC80
0FFFEE00
00000000
00000000
00000000
00000000
00000000
FFFFFE00
FFFFFE00
001C0000
001C0000
00180000
00180000
00180000
00380000
00300000
00700000
00E00000
03C00000
0F800000
0E000000
ENDCHAR
STARTCHAR 30C8
ENCODING 12488
SWIDTH 1000 0
DWIDTH 28 0
BBX 12 23 10 -1
BITMAP
C000
C000
C000
C000
C000
C000
C000
C000
E000
F800
DE00
C780
C3E0
C0F0
C070
C010
C000
C000
C000
C000
C000
C000
C000
ENDCHAR
STARTCHAR 30C9
ENCODING 12489
SWIDTH 1000 0
DWIDTH 28 0
BBX 15 23 10 -1
BITMAP
C000
C018
C04C
C0CE
C066
C030
C020
C000
E000
F800
DE00
C780
C3E0
C0F0
C070
C010
C000
C000
C000
C000
C000
C000
C000
ENDCHAR
STARTCHAR 30CA
ENCODING 12490
SWIDTH 1000 0
DWIDTH 28 0
BBX 22 23 3 -1
BITMAP
001800
001800
001800
001800
001800
001800
001800
FFFFFC
FFFFFC
001800
003800
003800
003800
003000
003000
007000
007000
00E000
01C000
03C000
078000
0F0000
040000
ENDCHAR
STARTCHAR 30CB
ENCODING 12491
SWIDTH 1000 0
DWIDTH 28 0
BBX 22 14 3 3
BITMAP
1FFFE0
1FFFE0
000000
000000
000000
000000
000000
000000
000000
000000
000000
000000
FFFFFC
FFFFFC
ENDCHAR
STARTCHAR 30CC
ENCODING 12492
SWIDTH 1000 0
DWIDTH 28 0
BBX 17 21 5 -1
BITMAP
7FFF00
7FFF80
000380
000300
000700
000700
040600
0E0E00
0F0C00
03DC00
01F800
007000
007800
00FC00
03CE00
078700
0F0380
3C0180
F80000
E00000
400000
ENDCHAR
STARTCHAR 30CD
ENCODING 12493
SWIDTH 1000 0
DWIDTH 28 0
BBX 21 23 4 0
BITMAP
038000
03E000
00F000
003800
001000
3FFF80
3FFFC0
000380
000700
000E00
003C00
007000
01E700
07E3C0
1E61E0
F86078
E06038
006000
006000
006000
006000
006000
006000
ENDCHAR
STARTCHAR 30CE
ENCODING 12494
SWIDTH 1000 0
DWIDTH 28 0
BBX 15 19 6 0
BITMAP
0006
000E
000E
000C
001C
001C
0018
0038
0030
0070
00E0
00E0
01C0
0380
0700
1E00
3C00
F800
E000
ENDCHAR
STARTCHAR 30CF
ENCODING 12495
SWIDTH 1000 0
DWIDTH 28 0
BBX 24 14 2 2
BITMAP
030380
038180
0301C0
0700E0
070060
0E0070
0E0038
1C0038
1C001C
38001C
38000E
70000E
E00007
E00004
ENDCHAR
STARTCHAR 30D0
ENCODING 12496
SWIDTH 1000 0
DWIDTH 28 0
BBX 24 20 2 2
BITMAP
000004
00000E
000027
000033
000039
000018
030380
038180
0301C0
0700E0
070060
0E0070
0E0038
1C0038
1C001C
38001C
38000E
70000E
E00007
E00004
ENDCHAR
STARTCHAR 30D1
ENCODING 12497
SWIDTH 1000 0
DWIDTH 28 0
BBX 24 20 2 2
BITMAP
00001C
000032
000021
000021
000033
00001E
030380
038180
0301C0
0700E0
070060
0E0070
0E0038
1C0038
1C001C
38001C
38000E
70000E
E00007
E00004
ENDCHAR
STARTCHAR 30D2
ENCODING 12498
SWIDTH 1000 0
DWIDTH 28 0
BBX 18 21 6 0
BITMAP
C00000
C00000
C00000
C00000
C00200
C00F00
C03E00
C1F800
DFC000
FE0000
F00000
C00000
C00000
C00000
C00000
C00000
C00000
C00000
E003C0
7FFFC0
3FFE00
ENDCHAR
STARTCHAR 30D3
ENCODING 12499
SWIDTH 1000 0
DWIDTH 28 0
BBX 21 22 6 1
BITMAP
000060
C00330
C00198
C000D0
C000C0
C00200
C00F00
C03E00
C1F800
DFC000
FE0000
F00000
C00000
C00000
C00000
C00000
C00000
C00000
C00000
E003C0
7FFFC0
3FFE00
ENDCHAR
STARTCHAR 30D4
ENCODING 12500
SWIDTH 1000 0
DWIDTH 28 0
BBX 21 23 6 0
BITMAP
0000F0
000198
C00108
C00108
C00198
C000F0
C00200
C00F00
C03E00
C1F800
DFC000
FE0000
F00000
C00000
C00000
C00000
C00000
C00000
C00000
C00000
E003C0
7FFFC0
3FFE00
ENDCHAR
STARTCHAR 30D5
ENCODING 12501
SWIDTH 1000 0
DWIDTH 28 0
BBX 18 19 5 0
BITMAP
FFFF80
FFFFC0
E001C0
0001C0
000180
000180
000380
000300
000700
000700
000E00
001C00
001C00
003800
00F000
01E000
078000
3F0000
1C0000
ENDCHAR
STARTCHAR 30D6
ENCODING 12502
SWIDTH 1000 0
DWIDTH 28 0
BBX 23 24 4 0
BITMAP
000008
00004C
00006E
000036
000030
FFFFC0
FFFFE0
F000C0
0000C0
0000C0
0001C0
000180
000180
000380
000300
000700
000E00
001C00
003C00
007800
01E000
07C000
1F8000
0E0000
ENDCHAR
STARTCHAR 30D7
ENCODING 12503
SWIDTH 1000 0
DWIDTH 28 0
BBX 24 24 4 0
BITMAP
00001C
000022
000063
000063
000022
FFFFDC
FFFFE0
F000C0
0000C0
0000C0
0001C0
000180
000180
000380
000300
000700
000E00
001C00
003C00
007800
01E000
07C000
1F8000
0E0000
ENDCHAR
ENDFONT
